SplineFontDB: 1.0
FontName: Meera_w01
FullName: Meera_w01
FamilyName: Meera_w01
Weight: Book
Copyright: Copyright (c) 2007, Hussain K H,Suresh P,Swathanthra Malayalam Computing(http://savannah.nongnu.org/projects/smc)\nAll rights reserved.
Version: 0.100;PS 000.001;hotconv 1.0
ItalicAngle: 0
UnderlinePosition: -460
UnderlineWidth: 30
Ascent: 560
Descent: 440
Order2: 1
XUID: [1021 984 1046805320 7489581]
FSType: 0
PfmFamily: 17
TTFWeight: 400
TTFWidth: 5
LineGap: 0
VLineGap: 0
Panose: 2 0 6 3 0 0 0 0 0 0
OS2TypoAscent: 0
OS2TypoAOffset: 1
OS2TypoDescent: 0
OS2TypoDOffset: 1
OS2TypoLinegap: 0
OS2WinAscent: 0
OS2WinAOffset: 1
OS2WinDescent: 0
OS2WinDOffset: 1
HheadAscent: 0
HheadAOffset: 1
HheadDescent: 0
HheadDOffset: 1
OS2SubXSize: 648
OS2SubYSize: 598
OS2SubXOff: 0
OS2SubYOff: 73
OS2SupXSize: 648
OS2SupYSize: 697
OS2SupXOff: 0
OS2SupYOff: 477
OS2StrikeYSize: 48
OS2StrikeYPos: 250
OS2Vendor: 'PfEd'
ScriptLang: 1
 1 mlym 1 dflt 
TableOrder: GSUB 8
	'akhn'
	'rphf'
	'half'
	'blwf'
	'blws'
	'pstf'
	'pres'
	'psts'
TtfTable: maxp 32
!!*'""=+!=!"8i-!!!!#!!!!"!!*'"!'gMaz
EndTtf

StartChar: .notdef
Encoding: 65536 -1 0
Width: 292
GlyphClass: 2
Flags: W
HStem: 0 22<22 250> 432 23<22 250>
VStem: 22 23<0 455> 228 22<0 455>
Fore
22 0 m 1,0,-1
 22 455 l 1,1,-1
 250 455 l 1,2,-1
 250 0 l 1,3,-1
 22 0 l 1,0,-1
45 22 m 1,4,-1
 228 22 l 1,5,-1
 228 432 l 1,6,-1
 45 432 l 1,7,-1
 45 22 l 1,4,-1
EndSplineSet
EndChar
StartChar: exclam
Encoding: 33 33 5
Width: 285
GlyphClass: 2
Flags: W
Fore
202 226 m 1,0,-1
 190 122 l 1,1,-1
 167 122 l 1,2,-1
 155 226 l 2,3,4
 149 279 149 279 149 280 c 2,5,-1
 148 521 l 1,6,-1
 208 521 l 1,7,-1
 208 280 l 1,8,9
 202 226 l 1,0,-1
148 0 m 1,10,-1
 148 67 l 1,11,-1
 208 67 l 1,12,-1
 208 0 l 1,13,-1
 148 0 l 1,10,-1
EndSplineSet
EndChar
StartChar: quotedbl
Encoding: 34 34 6
Width: 375
GlyphClass: 2
Flags: W
Fore
319 421 m 2,0,-1
 309 372 l 1,1,-1
 287 372 l 1,2,-1
 277 421 l 2,3,4
 268 462 268 462 268 468 c 2,5,-1
 268 547 l 1,6,-1
 328 547 l 1,7,-1
 328 468 l 1,8,9
 326 456 326 456 319 421 c 2,0,-1
198 421 m 2,10,-1
 188 372 l 1,11,-1
 167 372 l 1,12,-1
 157 421 l 2,13,14
 148 462 148 462 147 468 c 1,15,-1
 147 547 l 1,16,-1
 208 547 l 1,17,-1
 208 468 l 1,18,19
 206 456 206 456 198 421 c 2,10,-1
EndSplineSet
EndChar
StartChar: numbersign
Encoding: 35 35 7
Width: 385
GlyphClass: 2
Flags: W
Fore
334 315 m 1,0,-1
 309 180 l 1,1,-1
 387 180 l 1,2,-1
 387 139 l 1,3,-1
 302 139 l 1,4,-1
 274 -14 l 1,5,-1
 227 -14 l 1,6,-1
 255 139 l 1,7,-1
 155 139 l 1,8,-1
 126 -14 l 1,9,-1
 80 -14 l 1,10,-1
 108 139 l 1,11,-1
 33 139 l 1,12,-1
 33 180 l 1,13,-1
 116 180 l 1,14,-1
 140 315 l 1,15,-1
 60 315 l 1,16,-1
 60 356 l 1,17,-1
 148 356 l 1,18,-1
 174 498 l 1,19,-1
 221 498 l 1,20,-1
 194 356 l 1,21,-1
 295 356 l 1,22,-1
 321 498 l 1,23,-1
 368 498 l 1,24,-1
 341 356 l 1,25,-1
 411 356 l 1,26,-1
 411 315 l 1,27,-1
 334 315 l 1,0,-1
187 315 m 1,28,-1
 162 180 l 1,29,-1
 263 180 l 1,30,-1
 287 315 l 1,31,-1
 187 315 l 1,28,-1
EndSplineSet
EndChar
StartChar: dollar
Encoding: 36 36 8
Width: 397
GlyphClass: 2
Flags: W
Fore
239 -16 m 1,0,-1
 239 -90 l 1,1,-1
 205 -90 l 1,2,-1
 205 -16 l 1,3,4
 87 -8 87 -8 59 77 c 0,5,6
 51 102 51 102 51 143 c 1,7,-1
 100 143 l 1,8,9
 105 87 105 87 123 63 c 0,10,11
 146 32 146 32 205 25 c 1,12,-1
 205 231 l 1,13,14
 131 253 131 253 102 276 c 0,15,16
 60 309 60 309 60 371 c 0,17,18
 60 494 60 494 205 512 c 1,19,-1
 205 551 l 1,20,-1
 239 551 l 1,21,-1
 239 512 l 1,22,23
 304 507 304 507 342 472.5 c 128,-1,24
 380 438 380 438 381 378 c 1,25,-1
 332 378 l 1,26,27
 330 417 330 417 306 443 c 128,-1,28
 282 469 282 469 239 470 c 1,29,-1
 239 281 l 1,30,-1
 301 264 l 2,31,32
 397 236 397 236 397 138 c 0,33,34
 397 -5 397 -5 239 -16 c 1,0,-1
205 470 m 1,35,36
 110 457 110 457 110 378 c 0,37,38
 110 309 110 309 205 284 c 1,39,-1
 205 470 l 1,35,36
239 227 m 1,40,-1
 239 25 l 1,41,42
 346 37 346 37 346 129 c 0,43,44
 346 173 346 173 313 196 c 0,45,46
 292 211 292 211 239 227 c 1,40,-1
EndSplineSet
EndChar
StartChar: percent
Encoding: 37 37 9
Width: 615
GlyphClass: 2
Flags: W
Fore
495 -14 m 0,0,1
 445 -14 445 -14 410.5 21 c 128,-1,2
 376 56 376 56 376 106 c 0,3,4
 376 155 376 155 411 190 c 128,-1,5
 446 225 446 225 495 225 c 0,6,7
 546 225 546 225 580 190.5 c 128,-1,8
 614 156 614 156 614 105 c 0,9,10
 614 56 614 56 579 21 c 128,-1,11
 544 -14 544 -14 495 -14 c 0,0,1
216 -14 m 1,12,-1
 178 -14 l 1,13,-1
 460 507 l 1,14,-1
 497 507 l 1,15,-1
 216 -14 l 1,12,-1
180 250 m 0,16,17
 130 250 130 250 95.5 284.5 c 128,-1,18
 61 319 61 319 61 370 c 0,19,20
 61 420 61 420 95.5 454.5 c 128,-1,21
 130 489 130 489 180 489 c 256,22,23
 230 489 230 489 264.5 454 c 128,-1,24
 299 419 299 419 299 368 c 0,25,26
 299 320 299 320 264 285 c 128,-1,27
 229 250 229 250 180 250 c 0,16,17
495 184 m 256,28,29
 462 184 462 184 439.5 161.5 c 128,-1,30
 417 139 417 139 417 106 c 256,31,32
 417 73 417 73 439.5 50.5 c 128,-1,33
 462 28 462 28 495 28 c 0,34,35
 527 28 527 28 550 50.5 c 128,-1,36
 573 73 573 73 573 105 c 0,37,38
 573 138 573 138 550.5 161 c 128,-1,39
 528 184 528 184 495 184 c 256,28,29
180 448 m 256,40,41
 147 448 147 448 124.5 425 c 128,-1,42
 102 402 102 402 102 370 c 0,43,44
 102 337 102 337 124.5 314.5 c 128,-1,45
 147 292 147 292 180 292 c 256,46,47
 213 292 213 292 235.5 314.5 c 128,-1,48
 258 337 258 337 258 369 c 0,49,50
 258 402 258 402 235.5 425 c 128,-1,51
 213 448 213 448 180 448 c 256,40,41
EndSplineSet
EndChar
StartChar: ampersand
Encoding: 38 38 10
Width: 458
GlyphClass: 2
Flags: W
Fore
393 0 m 1,0,-1
 346 59 l 1,1,2
 268 -16 268 -16 192 -16 c 0,3,4
 127 -16 127 -16 87 21.5 c 128,-1,5
 47 59 47 59 47 124 c 0,6,7
 47 177 47 177 82 215 c 0,8,9
 106 241 106 241 168 277 c 1,10,11
 106 354 106 354 106 397 c 0,12,13
 106 445 106 445 143 477 c 0,14,15
 177 507 177 507 227 507 c 256,16,17
 277 507 277 507 309 477 c 128,-1,18
 341 447 341 447 341 397 c 0,19,20
 341 355 341 355 311 323 c 0,21,22
 289 300 289 300 238 272 c 1,23,-1
 343 144 l 1,24,25
 368 189 368 189 369 234 c 1,26,-1
 419 234 l 1,27,28
 417 169 417 169 375 105 c 1,29,-1
 460 0 l 1,30,-1
 393 0 l 1,0,-1
225 465 m 0,31,32
 157 465 157 465 157 398 c 0,33,34
 157 366 157 366 192 326 c 0,35,36
 198 319 198 319 212 303 c 1,37,38
 293 354 293 354 293 399 c 0,39,40
 293 428 293 428 273.5 446.5 c 128,-1,41
 254 465 254 465 225 465 c 0,31,32
194 247 m 1,42,43
 99 187 99 187 99 129 c 0,44,45
 99 88 99 88 128.5 59.5 c 128,-1,46
 158 31 158 31 200 31 c 0,47,48
 259 31 259 31 316 95 c 1,49,-1
 194 247 l 1,42,43
EndSplineSet
EndChar
StartChar: quotesingle
Encoding: 39 39 11
Width: 278
GlyphClass: 2
Flags: W
Fore
204 424 m 2,0,-1
 193 375 l 1,1,-1
 169 375 l 1,2,-1
 158 424 l 2,3,4
 148 465 148 465 147 471 c 1,5,-1
 147 550 l 1,6,-1
 215 550 l 1,7,-1
 215 471 l 1,8,9
 212 459 212 459 204 424 c 2,0,-1
EndSplineSet
EndChar
StartChar: parenleft
Encoding: 40 40 12
Width: 203
GlyphClass: 2
Flags: W
Fore
183 -152 m 1,0,1
 62 1 62 1 62 185 c 0,2,3
 62 368 62 368 183 521 c 1,4,-1
 214 521 l 1,5,6
 114 363 114 363 114 185 c 0,7,8
 114 6 114 6 214 -152 c 1,9,-1
 183 -152 l 1,0,1
EndSplineSet
EndChar
StartChar: parenright
Encoding: 41 41 13
Width: 382
GlyphClass: 2
Flags: W
Fore
162 -152 m 1,0,-1
 131 -152 l 1,1,2
 231 7 231 7 231 184 c 0,3,4
 231 363 231 363 131 521 c 1,5,-1
 162 521 l 1,6,7
 283 368 283 368 283 184 c 0,8,9
 283 1 283 1 162 -152 c 1,0,-1
EndSplineSet
EndChar
StartChar: asterisk
Encoding: 42 42 14
Width: 277
GlyphClass: 2
Flags: W
Fore
191 407 m 1,0,-1
 245 339 l 1,1,-1
 215 317 l 1,2,-1
 167 389 l 1,3,-1
 119 317 l 1,4,-1
 90 338 l 1,5,-1
 142 407 l 1,6,-1
 60 430 l 1,7,-1
 71 465 l 1,8,-1
 152 435 l 1,9,-1
 148 521 l 1,10,-1
 186 521 l 1,11,-1
 182 435 l 1,12,-1
 263 465 l 1,13,-1
 274 430 l 1,14,-1
 191 407 l 1,0,-1
EndSplineSet
EndChar
StartChar: plus
Encoding: 43 43 15
Width: 397
GlyphClass: 2
Flags: W
Fore
250 145 m 1,0,-1
 250 -7 l 1,1,-1
 208 -7 l 1,2,-1
 208 145 l 1,3,-1
 56 145 l 1,4,-1
 56 187 l 1,5,-1
 208 187 l 1,6,-1
 208 339 l 1,7,-1
 250 339 l 1,8,-1
 250 187 l 1,9,-1
 402 187 l 1,10,-1
 402 145 l 1,11,-1
 250 145 l 1,0,-1
EndSplineSet
EndChar
StartChar: comma
Encoding: 44 44 16
Width: 174
GlyphClass: 2
Flags: W
Fore
62 -105 m 1,0,-1
 62 -86 l 1,1,2
 96 -83 96 -83 106 -55 c 0,3,4
 110 -44 110 -44 111 -28 c 0,5,6
 111 -24 111 -24 111 6 c 1,7,-1
 62 6 l 1,8,-1
 62 74 l 1,9,-1
 137 74 l 1,10,-1
 137 -11 l 2,11,12
 137 -102 137 -102 62 -105 c 1,0,-1
EndSplineSet
EndChar
StartChar: hyphen
Encoding: 45 45 17
Width: 237
GlyphClass: 2
Flags: W
Fore
53 172 m 1,0,-1
 53 223 l 1,1,-1
 223 223 l 1,2,-1
 223 172 l 1,3,-1
 53 172 l 1,0,-1
EndSplineSet
EndChar
StartChar: period
Encoding: 46 46 18
Width: 198
GlyphClass: 2
Flags: W
Fore
62 0 m 1,0,-1
 62 74 l 1,1,-1
 137 74 l 1,2,-1
 137 0 l 1,3,-1
 62 0 l 1,0,-1
EndSplineSet
EndChar
StartChar: slash
Encoding: 47 47 19
Width: 211
GlyphClass: 2
Flags: W
Fore
67 -14 m 1,0,-1
 36 -14 l 1,1,-1
 210 521 l 1,2,-1
 241 521 l 1,3,-1
 67 -14 l 1,0,-1
EndSplineSet
EndChar
StartChar: zero
Encoding: 48 48 20
Width: 392
GlyphClass: 2
Flags: W
Fore
227 -8 m 0,0,1
 61 -8 61 -8 61 249 c 0,2,3
 61 507 61 507 227 507 c 0,4,5
 392 507 392 507 392 245 c 0,6,7
 392 -8 392 -8 227 -8 c 0,0,1
227 460 m 0,8,9
 118 460 118 460 118 249 c 0,10,11
 118 35 118 35 225 35 c 0,12,13
 335 35 335 35 335 251 c 0,14,15
 335 460 335 460 227 460 c 0,8,9
EndSplineSet
EndChar
StartChar: one
Encoding: 49 49 21
Width: 229
GlyphClass: 2
Flags: W
Fore
171 0 m 1,0,-1
 171 358 l 1,1,-1
 53 358 l 1,2,-1
 53 395 l 1,3,4
 127 404 127 404 151 421 c 0,5,6
 172 437 172 437 193 497 c 1,7,-1
 228 497 l 1,8,-1
 228 0 l 1,9,-1
 171 0 l 1,0,-1
EndSplineSet
EndChar
StartChar: two
Encoding: 50 50 22
Width: 388
GlyphClass: 2
Flags: W
Fore
165 142 m 0,0,1
 118 106 118 106 111 54 c 1,2,-1
 386 54 l 1,3,-1
 386 0 l 1,4,-1
 49 0 l 1,5,6
 54 88 54 88 89 135 c 0,7,8
 119 174 119 174 192 215 c 2,9,-1
 260 253 l 2,10,11
 333 294 333 294 333 359 c 0,12,13
 333 404 333 404 302 432 c 128,-1,14
 271 460 271 460 225 460 c 0,15,16
 126 460 126 460 115 337 c 1,17,-1
 60 337 l 1,18,19
 67 507 67 507 227 507 c 0,20,21
 298 507 298 507 342 469 c 0,22,23
 389 428 389 428 389 360 c 0,24,25
 389 301 389 301 350 259 c 0,26,27
 323 231 323 231 260 197 c 0,28,29
 186 158 186 158 165 142 c 0,0,1
EndSplineSet
EndChar
StartChar: three
Encoding: 51 51 23
Width: 377
GlyphClass: 2
Flags: W
Fore
217 -8 m 0,0,1
 65 -8 65 -8 50 147 c 1,2,-1
 106 147 l 1,3,4
 114 39 114 39 219 39 c 0,5,6
 332 39 332 39 332 145 c 0,7,8
 332 242 332 242 225 242 c 0,9,10
 219 242 219 242 207 241 c 0,11,12
 195 241 195 241 189 241 c 1,13,-1
 189 286 l 1,14,15
 271 288 271 288 295 311 c 0,16,17
 317 330 317 330 317 370 c 0,18,19
 317 461 317 461 220 461 c 0,20,21
 122 461 122 461 116 352 c 1,22,-1
 61 352 l 1,23,24
 66 507 66 507 219 507 c 0,25,26
 289 507 289 507 330 474 c 0,27,28
 373 438 373 438 373 372 c 0,29,30
 373 298 373 298 292 266 c 1,31,32
 345 249 345 249 367 220.5 c 128,-1,33
 389 192 389 192 389 146 c 0,34,35
 389 73 389 73 341.5 32.5 c 128,-1,36
 294 -8 294 -8 217 -8 c 0,0,1
EndSplineSet
EndChar
StartChar: four
Encoding: 52 52 24
Width: 397
GlyphClass: 2
Flags: W
Fore
329 114 m 1,0,-1
 329 0 l 1,1,-1
 273 0 l 1,2,-1
 273 114 l 1,3,-1
 54 114 l 1,4,-1
 54 175 l 1,5,-1
 288 497 l 1,6,-1
 329 497 l 1,7,-1
 329 162 l 1,8,-1
 406 162 l 1,9,-1
 406 114 l 1,10,-1
 329 114 l 1,0,-1
273 407 m 1,11,-1
 97 162 l 1,12,-1
 273 162 l 1,13,-1
 273 407 l 1,11,-1
EndSplineSet
EndChar
StartChar: five
Encoding: 53 53 25
Width: 386
GlyphClass: 2
Flags: W
Fore
213 -10 m 0,0,1
 76 -10 76 -10 46 120 c 1,2,-1
 101 120 l 1,3,4
 126 36 126 36 212 36 c 0,5,6
 269 36 269 36 299.5 68.5 c 128,-1,7
 330 101 330 101 330 156 c 256,8,9
 330 211 330 211 299.5 245.5 c 128,-1,10
 269 280 269 280 212 280 c 256,11,12
 155 280 155 280 114 234 c 1,13,-1
 62 234 l 1,14,-1
 100 497 l 1,15,-1
 360 497 l 1,16,-1
 360 445 l 1,17,-1
 144 445 l 1,18,-1
 121 291 l 1,19,20
 172 327 172 327 223 327 c 0,21,22
 298 327 298 327 342.5 282 c 128,-1,23
 387 237 387 237 387 165 c 0,24,25
 387 88 387 88 339.5 39 c 128,-1,26
 292 -10 292 -10 213 -10 c 0,0,1
EndSplineSet
EndChar
StartChar: six
Encoding: 54 54 26
Width: 391
GlyphClass: 2
Flags: W
Fore
231 -8 m 0,0,1
 60 -8 60 -8 60 235 c 0,2,3
 60 507 60 507 243 507 c 0,4,5
 363 507 363 507 386 384 c 1,6,-1
 330 384 l 1,7,8
 312 460 312 460 238 460 c 0,9,10
 117 460 117 460 117 249 c 1,11,12
 167 315 167 315 242 315 c 0,13,14
 312 315 312 315 354.5 271 c 128,-1,15
 397 227 397 227 397 159 c 0,16,17
 397 86 397 86 351 39 c 128,-1,18
 305 -8 305 -8 231 -8 c 0,0,1
234 268 m 0,19,20
 183 268 183 268 152 237 c 128,-1,21
 121 206 121 206 121 157 c 256,22,23
 121 108 121 108 151 73.5 c 128,-1,24
 181 39 181 39 232 39 c 0,25,26
 281 39 281 39 312 73 c 0,27,28
 340 105 340 105 340 154 c 0,29,30
 340 204 340 204 313 236 c 128,-1,31
 286 268 286 268 234 268 c 0,19,20
EndSplineSet
EndChar
StartChar: seven
Encoding: 55 55 27
Width: 372
GlyphClass: 2
Flags: W
Fore
161 -2 m 1,0,-1
 102 -2 l 1,1,2
 132 125 132 125 184 229 c 0,3,4
 230 322 230 322 318 444 c 1,5,-1
 33 444 l 1,6,-1
 33 497 l 1,7,-1
 372 497 l 1,8,-1
 372 450 l 1,9,10
 202 229 202 229 161 -2 c 1,0,-1
EndSplineSet
EndChar
StartChar: eight
Encoding: 56 56 28
Width: 372
GlyphClass: 2
Flags: W
Fore
213 -8 m 0,0,1
 139 -8 139 -8 92 32 c 0,2,3
 42 75 42 75 42 145 c 0,4,5
 42 227 42 227 136 270 c 1,6,7
 96 295 96 295 80 316 c 0,8,9
 61 341 61 341 61 376 c 0,10,11
 61 436 61 436 106 473 c 0,12,13
 149 507 149 507 213 507 c 256,14,15
 277 507 277 507 320.5 472 c 128,-1,16
 364 437 364 437 364 376 c 0,17,18
 364 340 364 340 346.5 317 c 128,-1,19
 329 294 329 294 288 270 c 1,20,21
 383 227 383 227 383 144 c 0,22,23
 383 75 383 75 334 33.5 c 128,-1,24
 285 -8 285 -8 213 -8 c 0,0,1
213 460 m 256,25,26
 171 460 171 460 144.5 438 c 128,-1,27
 118 416 118 416 118 375 c 0,28,29
 118 336 118 336 145 313.5 c 128,-1,30
 172 291 172 291 213 291 c 0,31,32
 253 291 253 291 280.5 313 c 128,-1,33
 308 335 308 335 308 375 c 256,34,35
 308 415 308 415 281.5 437.5 c 128,-1,36
 255 460 255 460 213 460 c 256,25,26
213 247 m 256,37,38
 163 247 163 247 131 219.5 c 128,-1,39
 99 192 99 192 99 143 c 0,40,41
 99 96 99 96 130.5 67.5 c 128,-1,42
 162 39 162 39 211 39 c 0,43,44
 261 39 261 39 293.5 67 c 128,-1,45
 326 95 326 95 326 143 c 0,46,47
 326 192 326 192 294.5 219.5 c 128,-1,48
 263 247 263 247 213 247 c 256,37,38
EndSplineSet
EndChar
StartChar: nine
Encoding: 57 57 29
Width: 384
GlyphClass: 2
Flags: W
Fore
385 264 m 0,0,1
 385 -8 385 -8 203 -8 c 0,2,3
 84 -8 84 -8 62 115 c 1,4,-1
 117 115 l 1,5,6
 135 39 135 39 208 39 c 0,7,8
 328 39 328 39 328 247 c 1,9,10
 269 184 269 184 203 184 c 0,11,12
 134 184 134 184 92 228.5 c 128,-1,13
 50 273 50 273 50 340 c 0,14,15
 50 413 50 413 96 460 c 128,-1,16
 142 507 142 507 215 507 c 0,17,18
 385 507 385 507 385 264 c 0,0,1
324 342 m 256,19,20
 324 391 324 391 294.5 426 c 128,-1,21
 265 461 265 461 214 461 c 0,22,23
 165 461 165 461 135.5 427 c 128,-1,24
 106 393 106 393 106 345 c 0,25,26
 106 294 106 294 132 264 c 0,27,28
 160 231 160 231 212 231 c 0,29,30
 262 231 262 231 293 262 c 128,-1,31
 324 293 324 293 324 342 c 256,19,20
EndSplineSet
EndChar
StartChar: colon
Encoding: 58 58 30
Width: 168
GlyphClass: 2
Flags: W
Fore
72 298 m 1,0,-1
 72 365 l 1,1,-1
 146 365 l 1,2,-1
 146 298 l 1,3,-1
 72 298 l 1,0,-1
72 10 m 1,4,-1
 72 77 l 1,5,-1
 146 77 l 1,6,-1
 146 10 l 1,7,-1
 72 10 l 1,4,-1
EndSplineSet
EndChar
StartChar: semicolon
Encoding: 59 59 31
Width: 193
GlyphClass: 2
Flags: W
Fore
79 268 m 1,0,-1
 79 335 l 1,1,-1
 154 335 l 1,2,-1
 154 268 l 1,3,-1
 79 268 l 1,0,-1
79 -105 m 1,4,-1
 79 -86 l 1,5,6
 113 -83 113 -83 123 -56 c 0,7,8
 126 -46 126 -46 127 -30 c 0,9,10
 127 -27 127 -27 127 2 c 1,11,-1
 79 2 l 1,12,-1
 79 69 l 1,13,-1
 154 69 l 1,14,-1
 154 -14 l 2,15,16
 154 -102 154 -102 79 -105 c 1,4,-1
EndSplineSet
EndChar
StartChar: less
Encoding: 60 60 32
Width: 391
GlyphClass: 2
Flags: W
Fore
42 144 m 1,0,-1
 42 189 l 1,1,-1
 392 337 l 1,2,-1
 392 289 l 1,3,-1
 95 167 l 1,4,-1
 392 44 l 1,5,-1
 392 -4 l 1,6,-1
 42 144 l 1,0,-1
EndSplineSet
EndChar
StartChar: equal
Encoding: 61 61 33
Width: 406
GlyphClass: 2
Flags: W
Fore
56 209 m 1,0,-1
 56 252 l 1,1,-1
 402 252 l 1,2,-1
 402 209 l 1,3,-1
 56 209 l 1,0,-1
56 79 m 1,4,-1
 56 123 l 1,5,-1
 402 123 l 1,6,-1
 402 79 l 1,7,-1
 56 79 l 1,4,-1
EndSplineSet
EndChar
StartChar: greater
Encoding: 62 62 34
Width: 404
GlyphClass: 2
Flags: W
Fore
56 -4 m 1,0,-1
 56 44 l 1,1,-1
 352 165 l 1,2,-1
 56 289 l 1,3,-1
 56 337 l 1,4,-1
 405 189 l 1,5,-1
 405 144 l 1,6,-1
 56 -4 l 1,0,-1
EndSplineSet
EndChar
StartChar: question
Encoding: 63 63 35
Width: 397
GlyphClass: 2
Flags: W
Fore
254 231 m 0,0,1
 232 204 232 204 232 174 c 2,2,-1
 232 145 l 1,3,-1
 175 145 l 1,4,-1
 175 180 l 2,5,6
 175 225 175 225 221 269 c 2,7,-1
 271 317 l 2,8,9
 307 352 307 352 307 395 c 0,10,11
 307 437 307 437 279 459.5 c 128,-1,12
 251 482 251 482 208 482 c 0,13,14
 110 482 110 482 108 369 c 1,15,-1
 55 369 l 1,16,17
 57 530 57 530 212 530 c 0,18,19
 279 530 279 530 321.5 495 c 128,-1,20
 364 460 364 460 364 395 c 0,21,22
 364 341 364 341 326 301 c 0,23,24
 254 231 l 0,0,1
175 0 m 1,25,-1
 175 66 l 1,26,-1
 232 66 l 1,27,-1
 232 0 l 1,28,-1
 175 0 l 1,25,-1
EndSplineSet
EndChar
StartChar: at
Encoding: 64 64 36
Width: 716
GlyphClass: 2
Flags: W
Fore
657 106 m 0,0,1
 603 43 603 43 525 43 c 0,2,3
 459 43 459 43 448 104 c 1,4,5
 396 46 396 46 343 46 c 0,6,7
 292 46 292 46 260.5 84 c 128,-1,8
 229 122 229 122 229 175 c 0,9,10
 229 249 229 249 283 310 c 128,-1,11
 337 371 337 371 411 371 c 0,12,13
 469 371 469 371 500 300 c 1,14,-1
 518 356 l 1,15,-1
 569 356 l 1,16,-1
 506 159 l 2,17,18
 497 131 497 131 497 121 c 0,19,20
 497 104 497 104 509.5 94 c 128,-1,21
 522 84 522 84 538 84 c 0,22,23
 586 84 586 84 626 139 c 0,24,25
 664 190 664 190 664 256 c 0,26,27
 664 351 664 351 584 419 c 0,28,29
 507 484 507 484 412 483 c 2,30,-1
 404 483 l 2,31,32
 287 482 287 482 201 397 c 128,-1,33
 115 312 115 312 115 195 c 0,34,35
 115 91 115 91 193.5 18 c 128,-1,36
 272 -55 272 -55 391 -55 c 0,37,38
 448 -55 448 -55 528 -33 c 1,39,-1
 545 -73 l 1,40,41
 467 -102 467 -102 388 -102 c 0,42,43
 258 -102 258 -102 165 -25 c 0,44,45
 62 59 62 59 62 184 c 0,46,47
 62 327 62 327 166 428.5 c 128,-1,48
 270 530 270 530 414 530 c 0,49,50
 532 530 532 530 620 458 c 0,51,52
 718 378 718 378 718 265 c 0,53,54
 718 178 718 178 657 106 c 0,0,1
406 334 m 0,55,56
 357 334 357 334 319 280 c 0,57,58
 285 233 285 233 285 174 c 0,59,60
 285 138 285 138 305 113 c 0,61,62
 326 84 326 84 361 84 c 0,63,64
 413 84 413 84 449 152 c 0,65,66
 479 209 479 209 479 264 c 0,67,68
 479 295 479 295 458 314.5 c 128,-1,69
 437 334 437 334 406 334 c 0,55,56
EndSplineSet
EndChar
StartChar: A
Encoding: 65 65 37
Width: 503
GlyphClass: 2
Flags: W
Fore
439 0 m 1,0,-1
 384 159 l 1,1,-1
 173 159 l 1,2,-1
 117 0 l 1,3,-1
 54 0 l 1,4,-1
 240 521 l 1,5,-1
 321 521 l 1,6,-1
 505 0 l 1,7,-1
 439 0 l 1,0,-1
280 467 m 1,8,-1
 186 207 l 1,9,-1
 368 207 l 1,10,-1
 280 467 l 1,8,-1
EndSplineSet
EndChar
StartChar: B
Encoding: 66 66 38
Width: 450
GlyphClass: 2
Flags: W
Fore
297 0 m 2,0,-1
 60 0 l 1,1,-1
 60 521 l 1,2,-1
 273 521 l 2,3,4
 383 521 383 521 415 444 c 0,5,6
 426 419 426 419 426 391 c 0,7,8
 426 313 426 313 345 275 c 1,9,10
 449 235 449 235 449 147 c 0,11,12
 449 79 449 79 407.5 39.5 c 128,-1,13
 366 0 366 0 297 0 c 2,0,-1
360 413 m 0,14,15
 338 471 338 471 256 471 c 2,16,-1
 119 471 l 1,17,-1
 119 293 l 1,18,-1
 256 293 l 2,19,20
 302 293 302 293 332 313 c 0,21,22
 367 336 367 336 367 382 c 0,23,24
 367 395 367 395 360 413 c 0,14,15
290 242 m 2,25,-1
 119 242 l 1,26,-1
 119 51 l 1,27,-1
 290 51 l 2,28,29
 336 51 336 51 363.5 75.5 c 128,-1,30
 391 100 391 100 391 146 c 0,31,32
 391 242 391 242 290 242 c 2,25,-1
EndSplineSet
EndChar
StartChar: C
Encoding: 67 67 39
Width: 496
GlyphClass: 2
Flags: W
Fore
297 -10 m 0,0,1
 151 -10 151 -10 92 115 c 0,2,3
 62 178 62 178 62 258 c 0,4,5
 62 376 62 376 120 450 c 0,6,7
 184 530 184 530 300 530 c 0,8,9
 466 530 466 530 498 368 c 1,10,-1
 439 368 l 1,11,12
 413 480 413 480 292 480 c 0,13,14
 203 480 203 480 158 409 c 0,15,16
 121 350 121 350 121 259 c 0,17,18
 121 134 121 134 191 76 c 0,19,20
 236 40 236 40 298 40 c 0,21,22
 424 40 424 40 449 189 c 1,23,-1
 510 189 l 1,24,25
 484 -10 484 -10 297 -10 c 0,0,1
EndSplineSet
EndChar
StartChar: D
Encoding: 68 68 40
Width: 473
GlyphClass: 2
Flags: W
Fore
392 43 m 0,0,1
 339 0 339 0 262 0 c 2,2,-1
 62 0 l 1,3,-1
 62 521 l 1,4,-1
 262 521 l 2,5,6
 370 521 370 521 426 443 c 0,7,8
 475 373 475 373 475 261 c 0,9,10
 475 111 475 111 392 43 c 0,0,1
251 471 m 2,11,-1
 120 471 l 1,12,-1
 120 51 l 1,13,-1
 251 51 l 2,14,15
 416 51 416 51 416 260 c 0,16,17
 416 471 416 471 251 471 c 2,11,-1
EndSplineSet
EndChar
StartChar: E
Encoding: 69 69 41
Width: 424
GlyphClass: 2
Flags: W
Fore
61 0 m 1,0,-1
 61 521 l 1,1,-1
 422 521 l 1,2,-1
 422 471 l 1,3,-1
 120 471 l 1,4,-1
 120 292 l 1,5,-1
 411 292 l 1,6,-1
 411 242 l 1,7,-1
 120 242 l 1,8,-1
 120 51 l 1,9,-1
 435 51 l 1,10,-1
 435 0 l 1,11,-1
 61 0 l 1,0,-1
EndSplineSet
EndChar
StartChar: F
Encoding: 70 70 42
Width: 399
GlyphClass: 2
Flags: W
Fore
120 471 m 1,0,-1
 120 292 l 1,1,-1
 376 292 l 1,2,-1
 376 242 l 1,3,-1
 120 242 l 1,4,-1
 120 0 l 1,5,-1
 61 0 l 1,6,-1
 61 521 l 1,7,-1
 411 521 l 1,8,-1
 411 471 l 1,9,-1
 120 471 l 1,0,-1
EndSplineSet
EndChar
StartChar: G
Encoding: 71 71 43
Width: 533
GlyphClass: 2
Flags: W
Fore
500 6 m 1,0,-1
 482 80 l 1,1,2
 402 -8 402 -8 298 -8 c 0,3,4
 187 -8 187 -8 121 73 c 0,5,6
 59 147 59 147 59 260 c 0,7,8
 59 362 59 362 111 435 c 0,9,10
 178 530 178 530 310 530 c 0,11,12
 494 530 494 530 527 372 c 1,13,-1
 467 372 l 1,14,15
 454 425 454 425 409 454 c 0,16,17
 367 480 367 480 309 480 c 0,18,19
 217 480 217 480 165 415 c 0,20,21
 118 355 118 355 118 263 c 0,22,23
 118 168 118 168 166 108 c 0,24,25
 218 42 218 42 313 42 c 0,26,27
 387 42 387 42 435.5 88 c 128,-1,28
 484 134 484 134 484 207 c 2,29,-1
 484 226 l 1,30,-1
 323 226 l 1,31,-1
 323 275 l 1,32,-1
 535 275 l 1,33,-1
 535 6 l 1,34,-1
 500 6 l 1,0,-1
EndSplineSet
EndChar
StartChar: H
Encoding: 72 72 44
Width: 462
GlyphClass: 2
Flags: W
Fore
404 0 m 1,0,-1
 404 242 l 1,1,-1
 120 242 l 1,2,-1
 120 0 l 1,3,-1
 61 0 l 1,4,-1
 61 521 l 1,5,-1
 120 521 l 1,6,-1
 120 292 l 1,7,-1
 404 292 l 1,8,-1
 404 521 l 1,9,-1
 462 521 l 1,10,-1
 462 0 l 1,11,-1
 404 0 l 1,0,-1
EndSplineSet
EndChar
StartChar: I
Encoding: 73 73 45
Width: 140
GlyphClass: 2
Flags: W
Fore
69 0 m 1,0,-1
 69 521 l 1,1,-1
 136 521 l 1,2,-1
 136 0 l 1,3,-1
 69 0 l 1,0,-1
EndSplineSet
EndChar
StartChar: J
Encoding: 74 74 46
Width: 353
GlyphClass: 2
Flags: W
Fore
207 -10 m 0,0,1
 141 -10 141 -10 101.5 25 c 128,-1,2
 62 60 62 60 62 124 c 2,3,-1
 62 166 l 1,4,-1
 123 166 l 1,5,-1
 123 136 l 2,6,7
 123 37 123 37 208 37 c 0,8,9
 295 37 295 37 295 157 c 2,10,-1
 295 521 l 1,11,-1
 355 521 l 1,12,-1
 355 133 l 2,13,14
 355 66 355 66 315.5 28 c 128,-1,15
 276 -10 276 -10 207 -10 c 0,0,1
EndSplineSet
EndChar
StartChar: K
Encoding: 75 75 47
Width: 455
GlyphClass: 2
Flags: W
Fore
402 0 m 1,0,-1
 212 275 l 1,1,-1
 120 183 l 1,2,-1
 120 0 l 1,3,-1
 61 0 l 1,4,-1
 61 521 l 1,5,-1
 120 521 l 1,6,-1
 120 246 l 1,7,-1
 392 521 l 1,8,-1
 467 521 l 1,9,-1
 255 310 l 1,10,-1
 471 0 l 1,11,-1
 402 0 l 1,0,-1
EndSplineSet
EndChar
StartChar: L
Encoding: 76 76 48
Width: 381
GlyphClass: 2
Flags: W
Fore
61 0 m 1,0,-1
 61 521 l 1,1,-1
 120 521 l 1,2,-1
 120 51 l 1,3,-1
 385 51 l 1,4,-1
 385 0 l 1,5,-1
 61 0 l 1,0,-1
EndSplineSet
EndChar
StartChar: M
Encoding: 77 77 49
Width: 551
GlyphClass: 2
Flags: W
Fore
497 0 m 1,0,-1
 497 468 l 1,1,-1
 340 0 l 1,2,-1
 275 0 l 1,3,-1
 117 468 l 1,4,-1
 117 0 l 1,5,-1
 62 0 l 1,6,-1
 62 521 l 1,7,-1
 148 521 l 1,8,-1
 308 49 l 1,9,-1
 466 521 l 1,10,-1
 552 521 l 1,11,-1
 552 0 l 1,12,-1
 497 0 l 1,0,-1
EndSplineSet
EndChar
StartChar: N
Encoding: 78 78 50
Width: 469
GlyphClass: 2
Flags: W
Fore
400 0 m 1,0,-1
 117 441 l 1,1,-1
 117 0 l 1,2,-1
 62 0 l 1,3,-1
 62 521 l 1,4,-1
 129 521 l 1,5,-1
 415 77 l 1,6,-1
 415 521 l 1,7,-1
 470 521 l 1,8,-1
 470 0 l 1,9,-1
 400 0 l 1,0,-1
EndSplineSet
EndChar
StartChar: O
Encoding: 79 79 51
Width: 561
GlyphClass: 2
Flags: W
Fore
313 -10 m 0,0,1
 196 -10 196 -10 128 68 c 0,2,3
 62 142 62 142 62 260 c 0,4,5
 62 377 62 377 127 452 c 0,6,7
 196 530 196 530 312 530 c 0,8,9
 431 530 431 530 499 451 c 0,10,11
 564 376 564 376 564 256 c 0,12,13
 564 141 564 141 497 67 c 0,14,15
 427 -10 427 -10 313 -10 c 0,0,1
312 480 m 0,16,17
 220 480 220 480 168 413 c 0,18,19
 120 353 120 353 120 260 c 256,20,21
 120 167 120 167 168 107 c 0,22,23
 221 40 221 40 313 40 c 0,24,25
 403 40 403 40 456 106 c 0,26,27
 505 166 505 166 505 257 c 0,28,29
 505 352 505 352 458 413 c 0,30,31
 406 480 406 480 312 480 c 0,16,17
EndSplineSet
EndChar
StartChar: P
Encoding: 80 80 52
Width: 436
GlyphClass: 2
Flags: W
Fore
292 225 m 2,0,-1
 120 225 l 1,1,-1
 120 0 l 1,2,-1
 61 0 l 1,3,-1
 61 521 l 1,4,-1
 277 521 l 2,5,6
 437 521 437 521 437 370 c 0,7,8
 437 304 437 304 398 264.5 c 128,-1,9
 359 225 359 225 292 225 c 2,0,-1
267 471 m 2,10,-1
 120 471 l 1,11,-1
 120 275 l 1,12,-1
 267 275 l 2,13,14
 315 275 315 275 345 300 c 128,-1,15
 375 325 375 325 375 373 c 256,16,17
 375 421 375 421 345.5 446 c 128,-1,18
 316 471 316 471 267 471 c 2,10,-1
EndSplineSet
EndChar
StartChar: Q
Encoding: 81 81 53
Width: 555
GlyphClass: 2
Flags: W
Fore
486 57 m 1,0,-1
 555 1 l 1,1,-1
 527 -33 l 1,2,-1
 451 28 l 1,3,4
 387 -9 387 -9 312 -9 c 0,5,6
 195 -9 195 -9 127.5 67 c 128,-1,7
 60 143 60 143 60 260 c 0,8,9
 60 378 60 378 126 452 c 0,10,11
 194 530 194 530 312 530 c 0,12,13
 428 530 428 530 497 452 c 0,14,15
 564 378 564 378 564 262 c 0,16,17
 564 140 564 140 486 57 c 1,0,-1
312 480 m 256,18,19
 219 480 219 480 167 414 c 0,20,21
 119 353 119 353 119 260 c 256,22,23
 119 167 119 167 166 107 c 0,24,25
 218 40 218 40 311 40 c 0,26,27
 356 40 356 40 407 64 c 1,28,-1
 351 110 l 1,29,-1
 379 143 l 1,30,-1
 443 91 l 1,31,32
 505 159 505 159 505 261 c 0,33,34
 505 354 505 354 457 414 c 0,35,36
 405 480 405 480 312 480 c 256,18,19
EndSplineSet
EndChar
StartChar: R
Encoding: 82 82 54
Width: 467
GlyphClass: 2
Flags: W
Fore
406 0 m 1,0,1
 394 27 394 27 393 67 c 0,2,3
 392 101 392 101 392 135 c 0,4,5
 387 228 387 228 300 228 c 2,6,-1
 120 228 l 1,7,-1
 120 0 l 1,8,-1
 61 0 l 1,9,-1
 61 521 l 1,10,-1
 302 521 l 2,11,12
 460 521 460 521 460 384 c 0,13,14
 460 338 460 338 439 309.5 c 128,-1,15
 418 281 418 281 370 257 c 1,16,17
 417 237 417 237 435 204 c 0,18,19
 448 180 448 180 449 139 c 0,20,21
 449 72 449 72 450 69 c 2,22,23
 455 28 455 28 480 10 c 1,24,-1
 480 0 l 1,25,-1
 406 0 l 1,0,1
289 471 m 2,26,-1
 120 471 l 1,27,-1
 120 279 l 1,28,-1
 289 279 l 2,29,30
 398 279 398 279 398 374 c 0,31,32
 398 471 398 471 289 471 c 2,26,-1
EndSplineSet
EndChar
StartChar: S
Encoding: 83 83 55
Width: 447
GlyphClass: 2
Flags: W
Fore
250 -8 m 0,0,1
 157 -8 157 -8 104 34 c 0,2,3
 47 79 47 79 44 166 c 1,4,-1
 100 166 l 1,5,6
 102 42 102 42 255 42 c 0,7,8
 395 42 395 42 395 141 c 0,9,10
 395 203 395 203 294 230 c 2,11,-1
 162 264 l 2,12,13
 60 290 60 290 60 381 c 0,14,15
 60 456 60 456 116 495 c 0,16,17
 165 530 165 530 245 530 c 0,18,19
 329 530 329 530 379 494 c 0,20,21
 434 454 434 454 436 377 c 1,22,-1
 381 377 l 1,23,24
 377 483 377 483 243 483 c 0,25,26
 194 483 194 483 160 463 c 0,27,28
 119 438 119 438 119 391 c 0,29,30
 119 333 119 333 210 309 c 2,31,-1
 344 274 l 2,32,33
 454 245 454 245 454 147 c 0,34,35
 454 69 454 69 391 28 c 0,36,37
 336 -8 336 -8 250 -8 c 0,0,1
EndSplineSet
EndChar
StartChar: T
Encoding: 84 84 56
Width: 436
GlyphClass: 2
Flags: W
Fore
279 471 m 1,0,-1
 279 0 l 1,1,-1
 220 0 l 1,2,-1
 220 471 l 1,3,-1
 45 471 l 1,4,-1
 45 521 l 1,5,-1
 454 521 l 1,6,-1
 454 471 l 1,7,-1
 279 471 l 1,0,-1
EndSplineSet
EndChar
StartChar: U
Encoding: 85 85 57
Width: 460
GlyphClass: 2
Flags: W
Fore
260 -12 m 0,0,1
 172 -12 172 -12 119 28 c 0,2,3
 61 73 61 73 61 156 c 2,4,-1
 61 521 l 1,5,-1
 120 521 l 1,6,-1
 120 156 l 2,7,8
 120 38 120 38 260 38 c 0,9,10
 322 38 322 38 359 66 c 0,11,12
 402 97 402 97 402 156 c 2,13,-1
 402 521 l 1,14,-1
 461 521 l 1,15,-1
 461 156 l 2,16,17
 461 74 461 74 401 29 c 0,18,19
 347 -12 347 -12 260 -12 c 0,0,1
EndSplineSet
EndChar
StartChar: V
Encoding: 86 86 58
Width: 467
GlyphClass: 2
Flags: W
Fore
301 0 m 1,0,-1
 234 0 l 1,1,-1
 46 521 l 1,2,-1
 110 521 l 1,3,-1
 269 63 l 1,4,-1
 420 521 l 1,5,-1
 482 521 l 1,6,-1
 301 0 l 1,0,-1
EndSplineSet
EndChar
StartChar: W
Encoding: 87 87 59
Width: 674
GlyphClass: 2
Flags: W
Fore
557 0 m 1,0,-1
 490 0 l 1,1,-1
 365 448 l 1,2,-1
 243 0 l 1,3,-1
 176 0 l 1,4,-1
 43 521 l 1,5,-1
 109 521 l 1,6,-1
 212 76 l 1,7,-1
 333 521 l 1,8,-1
 398 521 l 1,9,-1
 523 76 l 1,10,-1
 623 521 l 1,11,-1
 689 521 l 1,12,-1
 557 0 l 1,0,-1
EndSplineSet
EndChar
StartChar: X
Encoding: 88 88 60
Width: 476
GlyphClass: 2
Flags: W
Fore
415 0 m 1,0,-1
 268 225 l 1,1,-1
 119 0 l 1,2,-1
 48 0 l 1,3,-1
 233 268 l 1,4,-1
 59 521 l 1,5,-1
 131 521 l 1,6,-1
 270 309 l 1,7,-1
 409 521 l 1,8,-1
 479 521 l 1,9,-1
 303 268 l 1,10,-1
 488 0 l 1,11,-1
 415 0 l 1,0,-1
EndSplineSet
EndChar
StartChar: Y
Encoding: 89 89 61
Width: 493
GlyphClass: 2
Flags: W
Fore
306 205 m 1,0,-1
 306 0 l 1,1,-1
 247 0 l 1,2,-1
 247 205 l 1,3,-1
 46 521 l 1,4,-1
 119 521 l 1,5,-1
 278 259 l 1,6,-1
 432 521 l 1,7,-1
 502 521 l 1,8,-1
 306 205 l 1,0,-1
EndSplineSet
EndChar
StartChar: Z
Encoding: 90 90 62
Width: 436
GlyphClass: 2
Flags: W
Fore
42 0 m 1,0,-1
 42 54 l 1,1,-1
 367 471 l 1,2,-1
 63 471 l 1,3,-1
 63 521 l 1,4,-1
 437 521 l 1,5,-1
 437 466 l 1,6,-1
 114 51 l 1,7,-1
 439 51 l 1,8,-1
 439 0 l 1,9,-1
 42 0 l 1,0,-1
EndSplineSet
EndChar
StartChar: bracketleft
Encoding: 91 91 63
Width: 198
GlyphClass: 2
Flags: W
Fore
62 -152 m 1,0,-1
 62 521 l 1,1,-1
 195 521 l 1,2,-1
 195 478 l 1,3,-1
 116 478 l 1,4,-1
 116 -109 l 1,5,-1
 195 -109 l 1,6,-1
 195 -152 l 1,7,-1
 62 -152 l 1,0,-1
EndSplineSet
EndChar
StartChar: backslash
Encoding: 92 92 64
Width: 209
GlyphClass: 2
Flags: W
Fore
210 -14 m 1,0,-1
 36 521 l 1,1,-1
 67 521 l 1,2,-1
 241 -14 l 1,3,-1
 210 -14 l 1,0,-1
EndSplineSet
EndChar
StartChar: bracketright
Encoding: 93 93 65
Width: 189
GlyphClass: 2
Flags: W
Fore
36 -152 m 1,0,-1
 36 -109 l 1,1,-1
 115 -109 l 1,2,-1
 115 478 l 1,3,-1
 36 478 l 1,4,-1
 36 521 l 1,5,-1
 169 521 l 1,6,-1
 169 -152 l 1,7,-1
 36 -152 l 1,0,-1
EndSplineSet
EndChar
StartChar: asciicircum
Encoding: 94 94 66
Width: 299
GlyphClass: 2
Flags: W
Fore
273 250 m 1,0,-1
 179 480 l 1,1,-1
 87 250 l 1,2,-1
 46 250 l 1,3,-1
 155 522 l 1,4,-1
 203 522 l 1,5,-1
 314 250 l 1,6,-1
 273 250 l 1,0,-1
EndSplineSet
EndChar
StartChar: underscore
Encoding: 95 95 67
Width: 402
GlyphClass: 2
Flags: W
Fore
17 -126 m 1,0,-1
 17 -90 l 1,1,-1
 446 -90 l 1,2,-1
 446 -126 l 1,3,-1
 17 -126 l 1,0,-1
EndSplineSet
EndChar
StartChar: grave
Encoding: 96 96 68
Width: 212
GlyphClass: 2
Flags: W
Fore
190 425 m 1,0,-1
 87 531 l 1,1,-1
 158 531 l 1,2,-1
 225 425 l 1,3,-1
 190 425 l 1,0,-1
EndSplineSet
EndChar
StartChar: a
Encoding: 97 97 69
Width: 399
GlyphClass: 2
Flags: W
Fore
371 -12 m 0,0,1
 318 -12 318 -12 310 49 c 1,2,3
 239 -12 239 -12 174 -12 c 0,4,5
 118 -12 118 -12 84 15.5 c 128,-1,6
 50 43 50 43 50 96 c 0,7,8
 50 163 50 163 106 189 c 0,9,10
 124 197 124 197 236 215 c 0,11,12
 263 219 263 219 276 223 c 0,13,14
 301 232 301 232 307 246 c 0,15,16
 309 253 309 253 309 278 c 0,17,18
 309 339 309 339 217 339 c 0,19,20
 131 339 131 339 121 272 c 1,21,-1
 68 272 l 1,22,23
 75 385 75 385 219 385 c 0,24,25
 362 385 362 385 362 287 c 2,26,-1
 362 64 l 2,27,28
 362 30 362 30 400 30 c 0,29,30
 404 30 404 30 409 30 c 1,31,-1
 409 -6 l 1,32,33
 386 -12 386 -12 371 -12 c 0,0,1
309 195 m 1,34,35
 287 185 287 185 251 179 c 0,36,37
 229 176 229 176 186 168 c 0,38,39
 106 150 106 150 106 97 c 0,40,41
 106 32 106 32 187 32 c 0,42,43
 256 32 256 32 291 75 c 0,44,45
 309 97 309 97 309 120 c 2,46,-1
 309 195 l 1,34,35
EndSplineSet
EndChar
StartChar: b
Encoding: 98 98 70
Width: 397
GlyphClass: 2
Flags: W
Fore
333 24 m 0,0,1
 291 -10 291 -10 235 -10 c 0,2,3
 159 -10 159 -10 108 65 c 1,4,-1
 108 7 l 1,5,-1
 63 7 l 1,6,-1
 63 521 l 1,7,-1
 114 521 l 1,8,-1
 114 312 l 1,9,10
 163 385 163 385 238 385 c 0,11,12
 319 385 319 385 361 326 c 0,13,14
 398 275 398 275 398 192 c 0,15,16
 398 78 398 78 333 24 c 0,0,1
226 338 m 0,17,18
 169 338 169 338 139 287 c 0,19,20
 114 246 114 246 114 187 c 0,21,22
 114 95 114 95 167 57 c 0,23,24
 193 37 193 37 226 37 c 0,25,26
 285 37 285 37 317 85 c 0,27,28
 343 126 343 126 343 185 c 0,29,30
 343 246 343 246 318 287 c 0,31,32
 286 338 286 338 226 338 c 0,17,18
EndSplineSet
EndChar
StartChar: c
Encoding: 99 99 71
Width: 373
GlyphClass: 2
Flags: W
Fore
227 -12 m 0,0,1
 144 -12 144 -12 100 47 c 0,2,3
 60 99 60 99 60 183 c 0,4,5
 60 297 60 297 126 351 c 0,6,7
 169 385 169 385 228 385 c 0,8,9
 362 385 362 385 376 256 c 1,10,-1
 323 256 l 1,11,12
 310 339 310 339 227 339 c 0,13,14
 166 339 166 339 137 287 c 0,15,16
 115 246 115 246 115 183 c 0,17,18
 115 122 115 122 139 83 c 0,19,20
 168 35 168 35 229 35 c 0,21,22
 310 35 310 35 328 126 c 1,23,-1
 381 126 l 1,24,25
 374 61 374 61 334 24.5 c 128,-1,26
 294 -12 294 -12 227 -12 c 0,0,1
EndSplineSet
EndChar
StartChar: d
Encoding: 100 100 72
Width: 396
GlyphClass: 2
Flags: W
Fore
351 7 m 1,0,-1
 351 66 l 1,1,2
 297 -10 297 -10 223 -10 c 0,3,4
 141 -10 141 -10 98 52 c 0,5,6
 61 105 61 105 61 191 c 0,7,8
 61 273 61 273 99 325 c 0,9,10
 142 385 142 385 221 385 c 0,11,12
 298 385 298 385 344 316 c 1,13,-1
 344 521 l 1,14,-1
 396 521 l 1,15,-1
 396 7 l 1,16,-1
 351 7 l 1,0,-1
232 338 m 256,17,18
 173 338 173 338 141 288 c 0,19,20
 115 247 115 247 115 187 c 256,21,22
 115 127 115 127 141 86 c 0,23,24
 173 37 173 37 232 37 c 0,25,26
 290 37 290 37 320 87 c 0,27,28
 344 127 344 127 344 186 c 0,29,30
 344 246 344 246 321 287 c 0,31,32
 291 338 291 338 232 338 c 256,17,18
EndSplineSet
EndChar
StartChar: e
Encoding: 101 101 73
Width: 397
GlyphClass: 2
Flags: W
Fore
113 175 m 1,0,1
 114 114 114 114 142 78 c 0,2,3
 173 36 173 36 232 36 c 0,4,5
 310 36 310 36 337 112 c 1,6,-1
 391 112 l 1,7,8
 364 -10 364 -10 230 -10 c 0,9,10
 145 -10 145 -10 99 48 c 0,11,12
 58 100 58 100 58 186 c 0,13,14
 58 271 58 271 100 325 c 0,15,16
 146 385 146 385 231 385 c 0,17,18
 346 385 346 385 385 289 c 0,19,20
 399 252 399 252 400 175 c 1,21,-1
 113 175 l 1,0,1
231 339 m 0,22,23
 178 339 178 339 148.5 304.5 c 128,-1,24
 119 270 119 270 114 215 c 1,25,-1
 341 215 l 1,26,27
 343 220 343 220 343 224 c 0,28,29
 343 271 343 271 311.5 305 c 128,-1,30
 280 339 280 339 231 339 c 0,22,23
EndSplineSet
EndChar
StartChar: f
Encoding: 102 102 74
Width: 222
GlyphClass: 2
Flags: W
Fore
158 332 m 1,0,-1
 158 0 l 1,1,-1
 105 0 l 1,2,-1
 105 332 l 1,3,-1
 52 332 l 1,4,-1
 52 372 l 1,5,-1
 105 372 l 1,6,-1
 105 441 l 2,7,8
 105 502 105 502 157 519 c 0,9,10
 173 523 173 523 193 523 c 0,11,12
 208 523 208 523 223 521 c 1,13,-1
 223 479 l 1,14,15
 213 479 213 479 206 479 c 0,16,17
 158 479 158 479 158 436 c 2,18,-1
 158 372 l 1,19,-1
 223 372 l 1,20,-1
 223 332 l 1,21,-1
 158 332 l 1,0,-1
EndSplineSet
EndChar
StartChar: g
Encoding: 103 103 75
Width: 387
GlyphClass: 2
Flags: W
Fore
221 -147 m 0,0,1
 87 -147 87 -147 73 -43 c 1,2,-1
 126 -43 l 1,3,4
 140 -106 140 -106 217 -106 c 0,5,6
 295 -106 295 -106 319 -56 c 0,7,8
 335 -23 335 -23 335 69 c 1,9,10
 279 -8 279 -8 214 -8 c 0,11,12
 140 -8 140 -8 97 54 c 0,13,14
 60 108 60 108 60 185 c 0,15,16
 60 293 60 293 121 348 c 0,17,18
 162 385 162 385 219 385 c 0,19,20
 289 385 289 385 341 310 c 1,21,-1
 341 375 l 1,22,-1
 389 375 l 1,23,-1
 389 66 l 2,24,25
 389 -40 389 -40 359 -87 c 0,26,27
 321 -147 321 -147 221 -147 c 0,0,1
226 339 m 0,28,29
 167 339 167 339 138 289 c 0,30,31
 114 249 114 249 114 189 c 0,32,33
 114 128 114 128 138 88 c 0,34,35
 167 38 167 38 226 38 c 0,36,37
 284 38 284 38 313 88 c 0,38,39
 335 127 335 127 335 187 c 0,40,41
 335 339 335 339 226 339 c 0,28,29
EndSplineSet
EndChar
StartChar: h
Encoding: 104 104 76
Width: 356
GlyphClass: 2
Flags: W
Fore
306 0 m 1,0,-1
 306 260 l 2,1,2
 306 297 306 297 282.5 318 c 128,-1,3
 259 339 259 339 221 339 c 0,4,5
 167 339 167 339 137 297 c 0,6,7
 112 261 112 261 112 206 c 2,8,-1
 112 0 l 1,9,-1
 60 0 l 1,10,-1
 60 521 l 1,11,-1
 112 521 l 1,12,-1
 112 311 l 1,13,14
 168 383 168 383 240 383 c 0,15,16
 293 383 293 383 325 358 c 128,-1,17
 357 333 357 333 357 284 c 2,18,-1
 357 0 l 1,19,-1
 306 0 l 1,0,-1
EndSplineSet
EndChar
StartChar: i
Encoding: 105 105 77
Width: 119
GlyphClass: 2
Flags: W
Fore
59 454 m 1,0,-1
 59 521 l 1,1,-1
 119 521 l 1,2,-1
 119 454 l 1,3,-1
 59 454 l 1,0,-1
60 0 m 1,4,-1
 60 372 l 1,5,-1
 119 372 l 1,6,-1
 119 0 l 1,7,-1
 60 0 l 1,4,-1
EndSplineSet
EndChar
StartChar: j
Encoding: 106 106 78
Width: 136
GlyphClass: 2
Flags: W
Fore
83 454 m 1,0,-1
 83 521 l 1,1,-1
 137 521 l 1,2,-1
 137 454 l 1,3,-1
 83 454 l 1,0,-1
40 -156 m 0,4,5
 25 -156 25 -156 15 -154 c 1,6,-1
 15 -112 l 1,7,8
 22 -112 22 -112 26 -112 c 0,9,10
 83 -112 83 -112 83 -58 c 2,11,-1
 83 373 l 1,12,-1
 137 373 l 1,13,-1
 137 -81 l 2,14,15
 137 -156 137 -156 40 -156 c 0,4,5
EndSplineSet
EndChar
StartChar: k
Encoding: 107 107 79
Width: 358
GlyphClass: 2
Flags: W
Fore
309 0 m 1,0,-1
 177 209 l 1,1,-1
 112 146 l 1,2,-1
 112 0 l 1,3,-1
 60 0 l 1,4,-1
 60 521 l 1,5,-1
 112 521 l 1,6,-1
 112 204 l 1,7,-1
 282 372 l 1,8,-1
 348 372 l 1,9,-1
 219 246 l 1,10,-1
 374 0 l 1,11,-1
 309 0 l 1,0,-1
EndSplineSet
EndChar
StartChar: l
Encoding: 108 108 80
Width: 119
GlyphClass: 2
Flags: W
Fore
61 0 m 1,0,-1
 61 521 l 1,1,-1
 121 521 l 1,2,-1
 121 0 l 1,3,-1
 61 0 l 1,0,-1
EndSplineSet
EndChar
StartChar: m
Encoding: 109 109 81
Width: 556
GlyphClass: 2
Flags: W
Fore
504 0 m 1,0,-1
 504 260 l 2,1,2
 504 341 504 341 429 341 c 0,3,4
 387 341 387 341 360.5 309.5 c 128,-1,5
 334 278 334 278 334 236 c 2,6,-1
 334 0 l 1,7,-1
 282 0 l 1,8,-1
 282 260 l 2,9,10
 282 341 282 341 207 341 c 0,11,12
 166 341 166 341 139.5 309.5 c 128,-1,13
 113 278 113 278 113 236 c 2,14,-1
 113 0 l 1,15,-1
 61 0 l 1,16,-1
 61 374 l 1,17,-1
 108 374 l 1,18,-1
 108 310 l 1,19,20
 161 385 161 385 230 385 c 0,21,22
 300 385 300 385 332 323 c 1,23,24
 383 385 383 385 450 385 c 0,25,26
 556 385 556 385 556 283 c 2,27,-1
 556 0 l 1,28,-1
 504 0 l 1,0,-1
EndSplineSet
EndChar
StartChar: n
Encoding: 110 110 82
Width: 358
GlyphClass: 2
Flags: W
Fore
306 0 m 1,0,-1
 306 261 l 2,1,2
 306 299 306 299 283 320 c 128,-1,3
 260 341 260 341 222 341 c 0,4,5
 168 341 168 341 138 299 c 0,6,7
 113 262 113 262 113 207 c 2,8,-1
 113 0 l 1,9,-1
 60 0 l 1,10,-1
 60 374 l 1,11,-1
 108 374 l 1,12,-1
 108 299 l 1,13,14
 163 385 163 385 240 385 c 0,15,16
 292 385 292 385 324 361 c 0,17,18
 358 334 358 334 358 285 c 2,19,-1
 358 0 l 1,20,-1
 306 0 l 1,0,-1
EndSplineSet
EndChar
StartChar: o
Encoding: 111 111 83
Width: 397
GlyphClass: 2
Flags: W
Fore
227 -10 m 0,0,1
 142 -10 142 -10 98 48 c 0,2,3
 58 99 58 99 58 188 c 0,4,5
 58 275 58 275 98 327 c 0,6,7
 142 385 142 385 226 385 c 0,8,9
 313 385 313 385 357 327 c 0,10,11
 396 275 396 275 396 185 c 0,12,13
 396 99 396 99 356 47 c 0,14,15
 311 -10 311 -10 227 -10 c 0,0,1
227 339 m 0,16,17
 167 339 167 339 137 290 c 0,18,19
 113 250 113 250 113 188 c 256,20,21
 113 126 113 126 137 86 c 0,22,23
 167 36 167 36 227 36 c 0,24,25
 286 36 286 36 317 85 c 0,26,27
 342 125 342 125 342 186 c 0,28,29
 342 339 342 339 227 339 c 0,16,17
EndSplineSet
EndChar
StartChar: p
Encoding: 112 112 84
Width: 393
GlyphClass: 2
Flags: W
Fore
236 -8 m 0,0,1
 167 -8 167 -8 114 56 c 1,2,-1
 114 -147 l 1,3,-1
 61 -147 l 1,4,-1
 61 375 l 1,5,-1
 108 375 l 1,6,-1
 108 307 l 1,7,8
 159 385 159 385 235 385 c 0,9,10
 317 385 317 385 359 324 c 0,11,12
 395 270 395 270 395 185 c 0,13,14
 395 104 395 104 357 52 c 0,15,16
 315 -8 315 -8 236 -8 c 0,0,1
225 339 m 0,17,18
 168 339 168 339 138 288 c 0,19,20
 114 247 114 247 114 189 c 0,21,22
 114 97 114 97 166 59 c 0,23,24
 192 39 192 39 225 39 c 0,25,26
 283 39 283 39 314 88 c 0,27,28
 341 128 341 128 341 187 c 0,29,30
 341 247 341 247 316 288 c 0,31,32
 285 339 285 339 225 339 c 0,17,18
EndSplineSet
EndChar
StartChar: q
Encoding: 113 113 85
Width: 393
GlyphClass: 2
Flags: W
Fore
342 -147 m 1,0,-1
 342 62 l 1,1,2
 293 -8 293 -8 219 -8 c 0,3,4
 138 -8 138 -8 96 50 c 0,5,6
 59 101 59 101 59 185 c 0,7,8
 59 298 59 298 124 351 c 0,9,10
 165 385 165 385 221 385 c 0,11,12
 298 385 298 385 349 315 c 1,13,-1
 349 375 l 1,14,-1
 394 375 l 1,15,-1
 394 -147 l 1,16,-1
 342 -147 l 1,0,-1
288 321 m 0,17,18
 262 339 262 339 230 339 c 0,19,20
 171 339 171 339 140 289 c 0,21,22
 113 248 113 248 113 189 c 0,23,24
 113 129 113 129 139 88 c 0,25,26
 171 39 171 39 230 39 c 0,27,28
 288 39 288 39 318 88 c 0,29,30
 342 128 342 128 342 187 c 0,31,32
 342 283 342 283 288 321 c 0,17,18
EndSplineSet
EndChar
StartChar: r
Encoding: 114 114 86
Width: 237
GlyphClass: 2
Flags: W
Fore
114 195 m 2,0,-1
 114 0 l 1,1,-1
 60 0 l 1,2,-1
 60 374 l 1,3,-1
 109 374 l 1,4,-1
 109 293 l 1,5,6
 168 385 168 385 221 385 c 0,7,8
 229 385 229 385 241 384 c 1,9,-1
 241 330 l 1,10,11
 172 328 172 328 143 295.5 c 128,-1,12
 114 263 114 263 114 195 c 2,0,-1
EndSplineSet
EndChar
StartChar: s
Encoding: 115 115 87
Width: 356
GlyphClass: 2
Flags: W
Fore
205 -10 m 0,0,1
 59 -10 59 -10 55 110 c 1,2,-1
 111 110 l 1,3,4
 123 36 123 36 210 36 c 0,5,6
 245 36 245 36 271 49 c 0,7,8
 304 66 304 66 304 100 c 0,9,10
 304 142 304 142 241 157 c 0,11,12
 161 176 161 176 147 181 c 0,13,14
 86 202 86 202 72 234 c 0,15,16
 65 251 65 251 65 275 c 0,17,18
 65 330 65 330 109 359 c 0,19,20
 148 385 148 385 208 385 c 0,21,22
 341 385 341 385 344 279 c 1,23,-1
 288 279 l 1,24,25
 283 339 283 339 206 339 c 0,26,27
 120 339 120 339 120 278 c 0,28,29
 120 237 120 237 199 218 c 0,30,31
 285 198 285 198 304 189 c 0,32,33
 359 162 359 162 359 105 c 0,34,35
 359 47 359 47 311 16 c 0,36,37
 269 -10 269 -10 205 -10 c 0,0,1
EndSplineSet
EndChar
StartChar: t
Encoding: 116 116 88
Width: 221
GlyphClass: 2
Flags: W
Fore
174 -16 m 0,0,1
 103 -16 103 -16 103 39 c 2,2,-1
 103 332 l 1,3,-1
 49 332 l 1,4,-1
 49 373 l 1,5,-1
 103 373 l 1,6,-1
 103 478 l 1,7,-1
 156 478 l 1,8,-1
 156 373 l 1,9,-1
 221 373 l 1,10,-1
 221 332 l 1,11,-1
 156 332 l 1,12,-1
 156 66 l 2,13,14
 156 28 156 28 195 28 c 0,15,16
 211 28 211 28 221 29 c 1,17,-1
 221 -12 l 1,18,19
 194 -16 194 -16 174 -16 c 0,0,1
EndSplineSet
EndChar
StartChar: u
Encoding: 117 117 89
Width: 358
GlyphClass: 2
Flags: W
Fore
313 -1 m 1,0,-1
 313 69 l 1,1,2
 255 -10 255 -10 179 -10 c 0,3,4
 127 -10 127 -10 95 14 c 0,5,6
 60 40 60 40 60 88 c 2,7,-1
 60 375 l 1,8,-1
 112 375 l 1,9,-1
 112 112 l 2,10,11
 112 75 112 75 135.5 54 c 128,-1,12
 159 33 159 33 197 33 c 0,13,14
 252 33 252 33 281 75 c 0,15,16
 307 110 307 110 307 165 c 2,17,-1
 307 375 l 1,18,-1
 359 375 l 1,19,-1
 359 -1 l 1,20,-1
 313 -1 l 1,0,-1
EndSplineSet
EndChar
StartChar: v
Encoding: 118 118 90
Width: 368
GlyphClass: 2
Flags: W
Fore
241 0 m 1,0,-1
 181 0 l 1,1,-1
 49 375 l 1,2,-1
 108 375 l 1,3,-1
 214 54 l 1,4,-1
 326 375 l 1,5,-1
 385 375 l 1,6,-1
 241 0 l 1,0,-1
EndSplineSet
EndChar
StartChar: w
Encoding: 119 119 91
Width: 524
GlyphClass: 2
Flags: W
Fore
431 0 m 1,0,-1
 369 0 l 1,1,-1
 288 315 l 1,2,-1
 211 0 l 1,3,-1
 150 0 l 1,4,-1
 42 375 l 1,5,-1
 99 375 l 1,6,-1
 181 62 l 1,7,-1
 257 375 l 1,8,-1
 324 375 l 1,9,-1
 403 62 l 1,10,-1
 482 375 l 1,11,-1
 541 375 l 1,12,-1
 431 0 l 1,0,-1
EndSplineSet
EndChar
StartChar: x
Encoding: 120 120 92
Width: 356
GlyphClass: 2
Flags: W
Fore
304 0 m 1,0,-1
 205 151 l 1,1,-1
 105 0 l 1,2,-1
 46 0 l 1,3,-1
 179 191 l 1,4,-1
 54 375 l 1,5,-1
 112 375 l 1,6,-1
 207 232 l 1,7,-1
 303 375 l 1,8,-1
 360 375 l 1,9,-1
 234 194 l 1,10,-1
 364 0 l 1,11,-1
 304 0 l 1,0,-1
EndSplineSet
EndChar
StartChar: y
Encoding: 121 121 93
Width: 356
GlyphClass: 2
Flags: W
Fore
202 -80 m 2,0,1
 174 -156 174 -156 107 -156 c 0,2,3
 87 -156 87 -156 70 -148 c 1,4,-1
 70 -102 l 1,5,6
 86 -105 86 -105 98 -105 c 0,7,8
 136 -105 136 -105 152 -65 c 2,9,-1
 176 -3 l 1,10,-1
 47 375 l 1,11,-1
 103 375 l 1,12,-1
 204 68 l 1,13,-1
 314 375 l 1,14,-1
 371 375 l 1,15,-1
 202 -80 l 2,0,1
EndSplineSet
EndChar
StartChar: z
Encoding: 122 122 94
Width: 356
GlyphClass: 2
Flags: W
Fore
57 0 m 1,0,-1
 57 49 l 1,1,-1
 293 330 l 1,2,-1
 73 330 l 1,3,-1
 73 375 l 1,4,-1
 351 375 l 1,5,-1
 351 327 l 1,6,-1
 117 44 l 1,7,-1
 362 44 l 1,8,-1
 362 0 l 1,9,-1
 57 0 l 1,0,-1
EndSplineSet
EndChar
StartChar: braceleft
Encoding: 123 123 95
Width: 224
GlyphClass: 2
Flags: W
Fore
193 -152 m 2,0,1
 116 -152 116 -152 116 -61 c 2,2,-1
 116 60 l 2,3,4
 116 130 116 130 87 150 c 0,5,6
 76 159 76 159 57 163 c 1,7,-1
 57 206 l 1,8,9
 96 215 96 215 108 248 c 0,10,11
 116 270 116 270 116 310 c 2,12,-1
 116 431 l 2,13,14
 116 521 116 521 193 521 c 2,15,-1
 223 521 l 1,16,-1
 223 483 l 1,17,18
 190 483 190 483 177 473 c 128,-1,19
 164 463 164 463 164 430 c 2,20,-1
 164 299 l 2,21,22
 164 254 164 254 152 230 c 0,23,24
 136 201 136 201 95 185 c 1,25,26
 164 155 164 155 164 71 c 2,27,-1
 164 -60 l 2,28,29
 164 -94 164 -94 179 -105 c 0,30,31
 191 -113 191 -113 223 -114 c 1,32,-1
 223 -152 l 1,33,-1
 193 -152 l 2,0,1
EndSplineSet
EndChar
StartChar: bar
Encoding: 124 124 96
Width: 155
GlyphClass: 2
Flags: W
Fore
72 -152 m 1,0,-1
 72 521 l 1,1,-1
 114 521 l 1,2,-1
 114 -152 l 1,3,-1
 72 -152 l 1,0,-1
EndSplineSet
EndChar
StartChar: braceright
Encoding: 125 125 97
Width: 213
GlyphClass: 2
Flags: W
Fore
138 60 m 2,0,-1
 138 -61 l 2,1,2
 138 -152 138 -152 60 -152 c 2,3,-1
 29 -152 l 1,4,-1
 29 -114 l 1,5,6
 63 -113 63 -113 74 -105 c 0,7,8
 89 -94 89 -94 89 -60 c 2,9,-1
 89 71 l 2,10,11
 89 155 89 155 158 184 c 1,12,13
 89 215 89 215 89 299 c 2,14,-1
 89 430 l 2,15,16
 89 463 89 463 75.5 473 c 128,-1,17
 62 483 62 483 29 483 c 1,18,-1
 29 521 l 1,19,-1
 60 521 l 2,20,21
 138 521 138 521 138 431 c 2,22,-1
 138 310 l 2,23,24
 138 240 138 240 167 219 c 0,25,26
 179 210 179 210 195 206 c 1,27,-1
 195 163 l 1,28,29
 159 155 159 155 146 123 c 0,30,31
 138 102 138 102 138 60 c 2,0,-1
EndSplineSet
EndChar
StartChar: asciitilde
Encoding: 126 126 98
Width: 383
GlyphClass: 2
Flags: W
Fore
297 319 m 0,0,1
 267 319 267 319 230 343 c 0,2,3
 201 364 201 364 171 385 c 0,4,5
 149 398 149 398 133 398 c 0,6,7
 95 398 95 398 90 338 c 1,8,-1
 60 338 l 1,9,10
 67 440 67 440 135 440 c 0,11,12
 153 440 153 440 172 428 c 2,13,-1
 258 375 l 2,14,15
 280 361 280 361 297 361 c 0,16,17
 338 361 338 361 339 419 c 1,18,-1
 369 419 l 1,19,-1
 369 412 l 2,20,21
 369 372 369 372 352 347 c 0,22,23
 332 319 332 319 297 319 c 0,0,1
EndSplineSet
EndChar
StartChar: uni0D00
Encoding: 3328 3328 99
Width: 1000
GlyphClass: 2
Flags: W
HStem: -77 25<309 433> 488 30<309 432>
VStem: 72 25<159 282> 236 76<30 200> 636 32<160 283>
Fore
668 221 m 128,-1,1
 668 98 668 98 581 11 c 0,2,3
 494 -77 494 -77 371 -77 c 0,4,5
 247 -77 247 -77 159 10 c 0,6,7
 72 97 72 97 72 220 c 0,8,9
 72 344 72 344 159 431 c 0,10,11
 247 518 247 518 370 518 c 128,-1,12
 493 518 493 518 580 431 c 0,13,0
 668 344 668 344 668 221 c 128,-1,1
636 219 m 128,-1,15
 636 331 636 331 557 409 c 0,16,17
 478 488 478 488 366.5 488 c 128,-1,18
 255 488 255 488 176 409 c 0,19,20
 97 331 97 331 97 219 c 128,-1,21
 97 107 97 107 176 27 c 0,22,23
 255 -52 255 -52 366.5 -52 c 128,-1,24
 478 -52 478 -52 557 27 c 0,25,14
 636 107 636 107 636 219 c 128,-1,15
526 68 m 1,26,-1
 455 -3 l 1,27,28
 445 11 445 11 438 48 c 128,-1,29
 431 85 431 85 416 101 c 0,30,31
 407 111 407 111 394 132 c 128,-1,32
 381 153 381 153 369 165 c 1,33,34
 348 181 348 181 344 183 c 1,35,36
 338 183 338 183 327 184 c 0,37,38
 317 184 317 184 312 184 c 1,39,40
 311 156 311 156 311 104 c 1,41,-1
 236 30 l 1,42,43
 236 142 236 142 248 334 c 1,44,-1
 276 362 l 1,45,46
 258 362 258 362 232 358 c 1,47,-1
 307 434 l 1,48,49
 354 441 354 441 417 431.5 c 128,-1,50
 480 422 480 422 507 395 c 0,51,52
 523 378 523 378 523 332 c 128,-1,53
 523 286 523 286 509 272 c 2,54,-1
 455 218 l 1,55,56
 460 212 460 212 466 202 c 128,-1,57
 472 192 472 192 478 184 c 0,58,59
 483 176 483 176 490 169 c 0,60,61
 506 153 506 153 512 116 c 0,62,63
 518 80 518 80 526 68 c 1,26,-1
448 258 m 1,64,65
 452 305 452 305 436 324 c 0,66,67
 404 356 404 356 320 360 c 1,68,69
 316 310 316 310 312 200 c 1,70,-1
 370 258 l 1,71,72
 388 268 388 268 411 257 c 1,73,74
 437 257 437 257 448 258 c 1,64,65
EndSplineSet
EndChar
StartChar: uni0D01
Encoding: 3329 3329 100
Width: 1000
GlyphClass: 2
Flags: W
HStem: -77 25<309 433> 488 30<309 432>
VStem: 72 25<159 282> 236 76<30 200> 636 32<160 283>
Fore
668 221 m 128,-1,1
 668 98 668 98 581 11 c 0,2,3
 494 -77 494 -77 371 -77 c 0,4,5
 247 -77 247 -77 159 10 c 0,6,7
 72 97 72 97 72 220 c 0,8,9
 72 344 72 344 159 431 c 0,10,11
 247 518 247 518 370 518 c 128,-1,12
 493 518 493 518 580 431 c 0,13,0
 668 344 668 344 668 221 c 128,-1,1
636 219 m 128,-1,15
 636 331 636 331 557 409 c 0,16,17
 478 488 478 488 366.5 488 c 128,-1,18
 255 488 255 488 176 409 c 0,19,20
 97 331 97 331 97 219 c 128,-1,21
 97 107 97 107 176 27 c 0,22,23
 255 -52 255 -52 366.5 -52 c 128,-1,24
 478 -52 478 -52 557 27 c 0,25,14
 636 107 636 107 636 219 c 128,-1,15
526 68 m 1,26,-1
 455 -3 l 1,27,28
 445 11 445 11 438 48 c 128,-1,29
 431 85 431 85 416 101 c 0,30,31
 407 111 407 111 394 132 c 128,-1,32
 381 153 381 153 369 165 c 1,33,34
 348 181 348 181 344 183 c 1,35,36
 338 183 338 183 327 184 c 0,37,38
 317 184 317 184 312 184 c 1,39,40
 311 156 311 156 311 104 c 1,41,-1
 236 30 l 1,42,43
 236 142 236 142 248 334 c 1,44,-1
 276 362 l 1,45,46
 258 362 258 362 232 358 c 1,47,-1
 307 434 l 1,48,49
 354 441 354 441 417 431.5 c 128,-1,50
 480 422 480 422 507 395 c 0,51,52
 523 378 523 378 523 332 c 128,-1,53
 523 286 523 286 509 272 c 2,54,-1
 455 218 l 1,55,56
 460 212 460 212 466 202 c 128,-1,57
 472 192 472 192 478 184 c 0,58,59
 483 176 483 176 490 169 c 0,60,61
 506 153 506 153 512 116 c 0,62,63
 518 80 518 80 526 68 c 1,26,-1
448 258 m 1,64,65
 452 305 452 305 436 324 c 0,66,67
 404 356 404 356 320 360 c 1,68,69
 316 310 316 310 312 200 c 1,70,-1
 370 258 l 1,71,72
 388 268 388 268 411 257 c 1,73,74
 437 257 437 257 448 258 c 1,64,65
EndSplineSet
EndChar
StartChar: uni0D02
Encoding: 3330 3330 101
Width: 277
GlyphClass: 2
Flags: W
HStem: -9 50<145 193> 179 50<145 193>
VStem: 50 50<85 134> 238 50<85 134>
Fore
288 110 m 256,0,1
 288 61 288 61 253 26 c 128,-1,2
 218 -9 218 -9 169 -9 c 256,3,4
 120 -9 120 -9 85 26 c 128,-1,5
 50 61 50 61 50 110 c 256,6,7
 50 159 50 159 85 194 c 128,-1,8
 120 229 120 229 169 229 c 256,9,10
 218 229 218 229 253 194 c 128,-1,11
 288 159 288 159 288 110 c 256,0,1
238 110 m 256,12,13
 238 139 238 139 217.5 159 c 128,-1,14
 197 179 197 179 169 179 c 0,15,16
 140 179 140 179 120 159 c 128,-1,17
 100 139 100 139 100 110 c 256,18,19
 100 81 100 81 120 61 c 128,-1,20
 140 41 140 41 169 41 c 0,21,22
 197 41 197 41 217.5 61 c 128,-1,23
 238 81 238 81 238 110 c 256,12,13
EndSplineSet
EndChar
StartChar: uni0D03
Encoding: 3331 3331 102
Width: 184
GlyphClass: 2
Flags: W
HStem: 16 42<107 134> 109 42<107 134> 224 41<107 134> 317 42<107 134>
VStem: 53 42<69 97 277 305> 146 42<69 97 277 305>
Fore
188 291 m 256,0,1
 188 263 188 263 168 243.5 c 128,-1,2
 148 224 148 224 121 224 c 0,3,4
 93 224 93 224 73 243.5 c 128,-1,5
 53 263 53 263 53 291 c 256,6,7
 53 319 53 319 73 339 c 128,-1,8
 93 359 93 359 121 359 c 0,9,10
 148 359 148 359 168 339 c 128,-1,11
 188 319 188 319 188 291 c 256,0,1
146 291 m 256,12,13
 146 317 146 317 121 317 c 0,14,15
 95 317 95 317 95 291 c 256,16,17
 95 265 95 265 121 265 c 0,18,19
 146 265 146 265 146 291 c 256,12,13
188 83 m 0,20,21
 188 56 188 56 168 36 c 128,-1,22
 148 16 148 16 121 16 c 0,23,24
 93 16 93 16 73 36 c 128,-1,25
 53 56 53 56 53 83 c 0,26,27
 53 111 53 111 73 131 c 128,-1,28
 93 151 93 151 121 151 c 0,29,30
 148 151 148 151 168 131 c 128,-1,31
 188 111 188 111 188 83 c 0,20,21
146 83 m 0,32,33
 146 109 146 109 121 109 c 0,34,35
 95 109 95 109 95 83 c 0,36,37
 95 58 95 58 121 58 c 0,38,39
 146 58 146 58 146 83 c 0,32,33
EndSplineSet
EndChar
StartChar: uni0D04
Encoding: 3332 3332 103
Width: 1000
GlyphClass: 2
Flags: W
HStem: -77 26<309 433> 489 29<309 433>
VStem: 73 24<159 283> 237 75<30 200> 636 32<159 283>
Fore
668 221 m 0,0,1
 668 97 668 97 581 10 c 128,-1,2
 494 -77 494 -77 371 -77 c 0,3,4
 247 -77 247 -77 160 10 c 128,-1,5
 73 97 73 97 73 221 c 0,6,7
 73 344 73 344 160 431 c 128,-1,8
 247 518 247 518 371 518 c 0,9,10
 494 518 494 518 581 431 c 128,-1,11
 668 344 668 344 668 221 c 0,0,1
636 219 m 256,12,13
 636 331 636 331 557 410 c 128,-1,14
 478 489 478 489 367 489 c 0,15,16
 255 489 255 489 176 410 c 128,-1,17
 97 331 97 331 97 219 c 256,18,19
 97 107 97 107 176 28 c 128,-1,20
 255 -51 255 -51 367 -51 c 0,21,22
 478 -51 478 -51 557 28 c 128,-1,23
 636 107 636 107 636 219 c 256,12,13
526 68 m 1,24,-1
 455 -3 l 1,25,26
 445 10 445 10 438 50 c 0,27,28
 432 85 432 85 416 101 c 0,29,30
 406 111 406 111 393 132 c 128,-1,31
 380 153 380 153 368.5 165 c 128,-1,32
 357 177 357 177 344 183 c 1,33,34
 332 183 332 183 312 184 c 1,35,36
 311 141 311 141 311 104 c 1,37,-1
 237 30 l 1,38,39
 237 125 237 125 248 334 c 1,40,-1
 277 363 l 1,41,42
 252 362 252 362 232 359 c 1,43,-1
 307 434 l 1,44,45
 327 437 327 437 352 437 c 0,46,47
 466 437 466 437 507 395 c 0,48,49
 523 380 523 380 523 334 c 0,50,51
 523 286 523 286 509 272 c 2,52,-1
 455 218 l 1,53,54
 464 201 464 201 490 169 c 0,55,56
 506 153 506 153 512 118 c 0,57,58
 518 80 518 80 526 68 c 1,24,-1
449 258 m 1,59,60
 452 307 452 307 436 325 c 0,61,62
 404 355 404 355 320 361 c 1,63,64
 314 260 314 260 312 200 c 1,65,-1
 370 258 l 1,66,67
 388 268 388 268 411 257 c 1,68,69
 433 256 433 256 449 258 c 1,59,60
EndSplineSet
EndChar
StartChar: uni0D05
Encoding: 3333 3333 104
Width: 936
GlyphClass: 2
Flags: W
HStem: -9 52<319 378> -9 47<771 833> 150 42<314 379> 241 47<772 822> 335 48<228 296 405 486 669 769>
VStem: 61 50<113 216> 203 49<132 220> 410 55<221 270> 415 55<70 124> 552 55<0 257> 667 50<105 167> 886 50<119 201>
Fore
936 156 m 0,0,1
 936 89 936 89 903 43 c 0,2,3
 865 -9 865 -9 801 -9 c 0,4,5
 740 -9 740 -9 703 34 c 0,6,7
 667 74 667 74 667 136 c 0,8,9
 667 197 667 197 704.5 242.5 c 128,-1,10
 742 288 742 288 802 288 c 0,11,12
 820 288 820 288 837 283 c 1,13,14
 793 335 793 335 719 335 c 0,15,16
 671 335 671 335 639 307.5 c 128,-1,17
 607 280 607 280 607 233 c 2,18,-1
 607 0 l 1,19,-1
 552 0 l 1,20,-1
 552 232 l 2,21,22
 552 283 552 283 514 311 c 0,23,24
 480 336 480 336 429 334 c 2,25,-1
 418 334 l 1,26,27
 436 324 436 324 450.5 299 c 128,-1,28
 465 274 465 274 465 250 c 0,29,30
 465 192 465 192 413 177 c 1,31,32
 438 170 438 170 454 146 c 128,-1,33
 470 122 470 122 470 93 c 0,34,35
 470 48 470 48 436 19.5 c 128,-1,36
 402 -9 402 -9 355 -9 c 0,37,38
 284 -9 284 -9 242 45 c 0,39,40
 203 95 203 95 203 169 c 0,41,42
 203 269 203 269 285 334 c 1,43,44
 276 334 276 334 264 334 c 0,45,46
 197 334 197 334 154 287 c 128,-1,47
 111 240 111 240 111 172 c 0,48,49
 111 74 111 74 188 26 c 1,50,-1
 152 -10 l 1,51,52
 61 54 61 54 61 173 c 0,53,54
 61 259 61 259 122.5 321 c 128,-1,55
 184 383 184 383 271 383 c 0,56,57
 322 383 322 383 350 367 c 1,58,59
 379 383 379 383 431 383 c 0,60,61
 542 383 542 383 581 326 c 1,62,63
 615 383 615 383 724 383 c 0,64,65
 814 383 814 383 875 314.5 c 128,-1,66
 936 246 936 246 936 156 c 0,0,1
886 139 m 0,67,68
 886 185 886 185 867 225 c 1,69,70
 842 241 842 241 803 241 c 0,71,72
 763 241 763 241 740 210.5 c 128,-1,73
 717 180 717 180 717 140 c 0,74,75
 717 99 717 99 741 68.5 c 128,-1,76
 765 38 765 38 805 38 c 0,77,78
 844 38 844 38 866 70 c 0,79,80
 886 99 886 99 886 139 c 0,67,68
415 97 m 0,81,82
 415 150 415 150 343 150 c 2,83,-1
 314 150 l 1,84,-1
 314 192 l 1,85,-1
 343 192 l 2,86,87
 371 192 371 192 390.5 207 c 128,-1,88
 410 222 410 222 410 250 c 0,89,90
 410 290 410 290 350 318 c 1,91,92
 252 271 252 271 252 168 c 0,93,94
 252 118 252 118 275 83 c 0,95,96
 302 43 302 43 349 43 c 0,97,98
 373 43 373 43 394 58 c 128,-1,99
 415 73 415 73 415 97 c 0,81,82
EndSplineSet
EndChar
StartChar: uni0D06
Encoding: 3334 3334 105
Width: 1046
GlyphClass: 2
Flags: W
HStem: -156 45<812 884> -7 47<319 381 766 834> 150 42<314 362> 250 44<786 834> 334 50<226 296 407 482 670 773>
VStem: 61 48<113 216> 203 49<130 217> 410 55<221 274> 415 55<70 114> 552 55<0 257> 673 49<101 167> 873 49<92 182> 1001 46<33 127>
Fore
1047 83 m 0,0,1
 1047 -18 1047 -18 988.5 -87 c 128,-1,2
 930 -156 930 -156 839 -156 c 0,3,4
 786 -156 786 -156 736 -123 c 1,5,-1
 756 -81 l 1,6,7
 795 -111 795 -111 838 -111 c 0,8,9
 909 -111 909 -111 956 -53 c 0,10,11
 1001 2 1001 2 1001 80 c 0,12,13
 1001 137 1001 137 977 181 c 0,14,15
 950 229 950 229 903 243 c 1,16,17
 922 207 922 207 922 156 c 0,18,19
 922 86 922 86 893 43 c 0,20,21
 860 -7 860 -7 795 -7 c 0,22,23
 736 -7 736 -7 704.5 31 c 128,-1,24
 673 69 673 69 673 133 c 0,25,26
 673 202 673 202 713 248 c 128,-1,27
 753 294 753 294 818 294 c 1,28,29
 781 334 781 334 719 334 c 0,30,31
 670 334 670 334 640 309 c 0,32,33
 607 282 607 282 607 233 c 2,34,-1
 607 0 l 1,35,-1
 552 0 l 1,36,-1
 552 232 l 2,37,38
 552 282 552 282 520.5 308 c 128,-1,39
 489 334 489 334 439 334 c 0,40,41
 424 334 424 334 423 334 c 1,42,43
 465 299 465 299 465 250 c 0,44,45
 465 192 465 192 413 177 c 1,46,47
 439 170 439 170 454.5 146 c 128,-1,48
 470 122 470 122 470 93 c 0,49,50
 470 47 470 47 437.5 20 c 128,-1,51
 405 -7 405 -7 357 -7 c 0,52,53
 282 -7 282 -7 240 45 c 0,54,55
 203 92 203 92 203 169 c 0,56,57
 203 266 203 266 283 334 c 1,58,-1
 264 334 l 2,59,60
 198 334 198 334 153.5 286.5 c 128,-1,61
 109 239 109 239 109 172 c 0,62,63
 109 74 109 74 188 25 c 1,64,-1
 152 -10 l 1,65,66
 61 53 61 53 61 173 c 0,67,68
 61 259 61 259 122 321.5 c 128,-1,69
 183 384 183 384 269 384 c 0,70,71
 324 384 324 384 353 367 c 1,72,73
 382 384 382 384 431 384 c 0,74,75
 534 384 534 384 581 326 c 1,76,77
 623 384 623 384 717 384 c 0,78,79
 829 384 829 384 880 295 c 1,80,81
 959 286 959 286 1003 228.5 c 128,-1,82
 1047 171 1047 171 1047 83 c 0,0,1
873 144 m 0,83,84
 873 207 873 207 848 249 c 1,85,86
 839 250 839 250 830 250 c 0,87,88
 781 250 781 250 751.5 217 c 128,-1,89
 722 184 722 184 722 132 c 0,90,91
 722 93 722 93 740 68 c 0,92,93
 759 40 759 40 795 40 c 0,94,95
 873 40 873 40 873 144 c 0,83,84
415 97 m 0,96,97
 415 132 415 132 379 143 c 0,98,99
 359 150 359 150 314 150 c 1,100,-1
 314 192 l 1,101,102
 410 192 410 192 410 250 c 0,103,104
 410 273 410 273 389 293 c 0,105,106
 372 310 372 310 353 316 c 1,107,108
 312 306 312 306 282 261.5 c 128,-1,109
 252 217 252 217 252 168 c 256,110,111
 252 119 252 119 275 84 c 0,112,113
 302 43 302 43 349 43 c 0,114,115
 373 43 373 43 394 58 c 128,-1,116
 415 73 415 73 415 97 c 0,96,97
EndSplineSet
EndChar
StartChar: uni0D07
Encoding: 3335 3335 106
Width: 673
GlyphClass: 2
Flags: W
HStem: -149 49<157 667> 0 46<180 513> 70 48<147 198> 243 46<166 212> 334 49<201 292 456 540>
VStem: 60 58<169 251> 72 54<-72 -27> 234 51<154 202> 355 60<78 253> 616 59<150 234>
Fore
675 191 m 0,0,1
 675 109 675 109 615 54.5 c 128,-1,2
 555 0 555 0 471 0 c 2,3,-1
 189 0 l 2,4,5
 164 0 164 0 147 -12 c 0,6,7
 126 -25 126 -25 126 -50 c 0,8,9
 126 -74 126 -74 146 -88 c 0,10,11
 163 -100 163 -100 188 -100 c 2,12,-1
 667 -100 l 1,13,-1
 667 -149 l 1,14,-1
 180 -149 l 2,15,16
 134 -149 134 -149 103 -122 c 128,-1,17
 72 -95 72 -95 72 -50 c 0,18,19
 72 -4 72 -4 103 21 c 128,-1,20
 134 46 134 46 180 46 c 2,21,-1
 459 46 l 2,22,23
 523 46 523 46 569.5 87 c 128,-1,24
 616 128 616 128 616 189 c 0,25,26
 616 254 616 254 583 294 c 128,-1,27
 550 334 550 334 495 334 c 0,28,29
 459 334 459 334 437 303 c 128,-1,30
 415 272 415 272 415 231 c 2,31,-1
 415 78 l 1,32,-1
 355 78 l 1,33,-1
 355 231 l 2,34,35
 355 276 355 276 316 306 c 0,36,37
 281 334 281 334 238 334 c 0,38,39
 187 334 187 334 152 309.5 c 128,-1,40
 117 285 117 285 112 239 c 1,41,42
 115 265 115 265 142 278 c 0,43,44
 164 289 164 289 191 289 c 0,45,46
 233 289 233 289 259 257 c 128,-1,47
 285 225 285 225 285 179 c 0,48,49
 285 130 285 130 253 100 c 128,-1,50
 221 70 221 70 175 70 c 0,51,52
 119 70 119 70 88 112 c 0,53,54
 60 150 60 150 60 211 c 0,55,56
 60 292 60 292 109.5 337.5 c 128,-1,57
 159 383 159 383 242 383 c 0,58,59
 343 383 343 383 384 320 c 1,60,61
 414 383 414 383 498 383 c 256,62,63
 582 383 582 383 630 329 c 0,64,65
 675 277 675 277 675 191 c 0,0,1
234 176 m 0,66,67
 234 205 234 205 219 224 c 128,-1,68
 204 243 204 243 178 243 c 0,69,70
 154 243 154 243 136 225.5 c 128,-1,71
 118 208 118 208 118 183 c 0,72,73
 118 156 118 156 133.5 137 c 128,-1,74
 149 118 149 118 174 118 c 0,75,76
 200 118 200 118 217 133.5 c 128,-1,77
 234 149 234 149 234 176 c 0,66,67
EndSplineSet
EndChar
StartChar: uni0D08
Encoding: 3336 3336 107
Width: 1187
GlyphClass: 2
Flags: W
HStem: -149 49<157 667> -9 50<962 1064> 0 46<180 513> 70 48<147 198> 243 46<166 212> 329 55<789 883 1021 1082> 334 49<201 292 456 540>
VStem: 60 58<169 251> 72 54<-72 -27> 234 51<154 202> 355 60<78 253> 616 59<150 234> 722 54<224 309> 727 51<185 185> 907 60<193 292> 1129 59<117 261>
Fore
1188 194 m 0,0,1
 1188 116 1188 116 1151 62 c 0,2,3
 1102 -9 1102 -9 1002 -9 c 0,4,5
 932 -9 932 -9 892 31 c 0,6,7
 858 64 858 64 858 106 c 1,8,-1
 912 106 l 1,9,10
 926 41 926 41 999 41 c 0,11,12
 1129 41 1129 41 1129 192 c 0,13,14
 1129 329 1129 329 1034 329 c 0,15,16
 1007 329 1007 329 987 310 c 128,-1,17
 967 291 967 291 967 261 c 2,18,-1
 967 194 l 1,19,-1
 907 193 l 1,20,-1
 907 254 l 2,21,22
 907 329 907 329 845 329 c 0,23,24
 808 329 808 329 792 306 c 128,-1,25
 776 283 776 283 776 228 c 0,26,27
 776 219 776 219 778 185 c 1,28,-1
 727 185 l 1,29,30
 722 224 722 224 722 235 c 0,31,32
 722 383 722 383 855 383 c 0,33,34
 911 383 911 383 938 337 c 1,35,36
 956 362 956 362 976 372 c 0,37,38
 1000 384 1000 384 1045 384 c 0,39,40
 1107 384 1107 384 1147.5 333 c 128,-1,41
 1188 282 1188 282 1188 194 c 0,0,1
675 191 m 0,42,43
 675 109 675 109 615 54.5 c 128,-1,44
 555 0 555 0 471 0 c 2,45,-1
 189 0 l 2,46,47
 164 0 164 0 147 -12 c 0,48,49
 126 -25 126 -25 126 -50 c 0,50,51
 126 -74 126 -74 146 -88 c 0,52,53
 163 -100 163 -100 188 -100 c 2,54,-1
 667 -100 l 1,55,-1
 667 -149 l 1,56,-1
 180 -149 l 2,57,58
 134 -149 134 -149 103 -122 c 128,-1,59
 72 -95 72 -95 72 -50 c 0,60,61
 72 -4 72 -4 103 21 c 128,-1,62
 134 46 134 46 180 46 c 2,63,-1
 459 46 l 2,64,65
 523 46 523 46 569.5 87 c 128,-1,66
 616 128 616 128 616 189 c 0,67,68
 616 254 616 254 583 294 c 128,-1,69
 550 334 550 334 495 334 c 0,70,71
 459 334 459 334 437 303 c 128,-1,72
 415 272 415 272 415 231 c 2,73,-1
 415 78 l 1,74,-1
 355 78 l 1,75,-1
 355 231 l 2,76,77
 355 276 355 276 316 306 c 0,78,79
 281 334 281 334 238 334 c 0,80,81
 187 334 187 334 152 309.5 c 128,-1,82
 117 285 117 285 112 239 c 1,83,84
 115 265 115 265 142 278 c 0,85,86
 164 289 164 289 191 289 c 0,87,88
 233 289 233 289 259 257 c 128,-1,89
 285 225 285 225 285 179 c 0,90,91
 285 130 285 130 253 100 c 128,-1,92
 221 70 221 70 175 70 c 0,93,94
 119 70 119 70 88 112 c 0,95,96
 60 150 60 150 60 211 c 0,97,98
 60 292 60 292 109.5 337.5 c 128,-1,99
 159 383 159 383 242 383 c 0,100,101
 343 383 343 383 384 320 c 1,102,103
 414 383 414 383 498 383 c 256,104,105
 582 383 582 383 630 329 c 0,106,107
 675 277 675 277 675 191 c 0,42,43
234 176 m 0,108,109
 234 205 234 205 219 224 c 128,-1,110
 204 243 204 243 178 243 c 0,111,112
 154 243 154 243 136 225.5 c 128,-1,113
 118 208 118 208 118 183 c 0,114,115
 118 156 118 156 133.5 137 c 128,-1,116
 149 118 149 118 174 118 c 0,117,118
 200 118 200 118 217 133.5 c 128,-1,119
 234 149 234 149 234 176 c 0,108,109
EndSplineSet
EndChar
StartChar: uni0D09
Encoding: 3337 3337 108
Width: 495
GlyphClass: 2
Flags: W
HStem: -148 50<155 487> 1 45<178 398> 71 47<154 205> 243 43<166 214> 333 51<225 318>
VStem: 62 57<167 244> 70 59<-69 -23> 236 59<155 204> 436 59<91 231>
Fore
495 181 m 0,0,1
 495 1 495 1 302 1 c 2,2,-1
 187 1 l 2,3,4
 129 1 129 1 129 -47 c 0,5,6
 129 -71 129 -71 146.5 -84.5 c 128,-1,7
 164 -98 164 -98 187 -98 c 2,8,-1
 487 -98 l 1,9,-1
 487 -148 l 1,10,-1
 178 -148 l 2,11,12
 133 -148 133 -148 101.5 -120 c 128,-1,13
 70 -92 70 -92 70 -47 c 0,14,15
 70 -3 70 -3 101 21.5 c 128,-1,16
 132 46 132 46 178 46 c 2,17,-1
 290 46 l 2,18,19
 436 46 436 46 436 182 c 0,20,21
 436 258 436 258 382 299 c 0,22,23
 335 333 335 333 262 333 c 0,24,25
 215 333 215 333 178 314 c 0,26,27
 134 292 134 292 121 250 c 1,28,29
 143 286 143 286 192 286 c 0,30,31
 236 286 236 286 265.5 256.5 c 128,-1,32
 295 227 295 227 295 180 c 0,33,34
 295 130 295 130 262 100.5 c 128,-1,35
 229 71 229 71 181 71 c 0,36,37
 127 71 127 71 94.5 107 c 128,-1,38
 62 143 62 143 62 200 c 0,39,40
 62 288 62 288 122 337 c 0,41,42
 178 384 178 384 271 384 c 0,43,44
 366 384 366 384 426 336 c 0,45,46
 495 282 495 282 495 181 c 0,0,1
236 180 m 0,47,48
 236 208 236 208 220.5 225.5 c 128,-1,49
 205 243 205 243 179 243 c 256,50,51
 153 243 153 243 136 225.5 c 128,-1,52
 119 208 119 208 119 181 c 256,53,54
 119 154 119 154 136 136 c 128,-1,55
 153 118 153 118 179 118 c 0,56,57
 204 118 204 118 220 135.5 c 128,-1,58
 236 153 236 153 236 180 c 0,47,48
EndSplineSet
EndChar
StartChar: uni0D0A
Encoding: 3338 3338 109
Width: 1013
GlyphClass: 2
Flags: W
HStem: -148 50<155 487> -9 50<788 889> 0 46<178 398> 71 47<154 205> 243 43<166 214> 329 55<613 708 846 907>
VStem: 62 57<167 244> 70 59<-69 -23> 236 59<155 204> 436 59<90 231> 547 54<224 309> 552 51<185 185> 732 60<193 292> 954 59<117 261>
Fore
1013 194 m 0,0,1
 1013 116 1013 116 976 62 c 0,2,3
 927 -9 927 -9 827 -9 c 0,4,5
 757 -9 757 -9 717 31 c 0,6,7
 683 64 683 64 683 106 c 1,8,-1
 737 106 l 1,9,10
 751 41 751 41 824 41 c 0,11,12
 954 41 954 41 954 192 c 0,13,14
 954 329 954 329 859 329 c 0,15,16
 832 329 832 329 812 310 c 128,-1,17
 792 291 792 291 792 261 c 2,18,-1
 792 194 l 1,19,-1
 732 193 l 1,20,-1
 732 254 l 2,21,22
 732 329 732 329 670 329 c 0,23,24
 633 329 633 329 617 306 c 128,-1,25
 601 283 601 283 601 228 c 0,26,27
 601 219 601 219 603 185 c 1,28,-1
 552 185 l 1,29,30
 547 224 547 224 547 235 c 0,31,32
 547 383 547 383 680 383 c 0,33,34
 736 383 736 383 763 337 c 1,35,36
 781 362 781 362 801 372 c 0,37,38
 825 384 825 384 870 384 c 0,39,40
 932 384 932 384 972.5 333 c 128,-1,41
 1013 282 1013 282 1013 194 c 0,0,1
495 181 m 0,42,43
 495 0 495 0 302 0 c 2,44,-1
 187 0 l 2,45,46
 129 0 129 0 129 -47 c 0,47,48
 129 -71 129 -71 146.5 -84.5 c 128,-1,49
 164 -98 164 -98 187 -98 c 2,50,-1
 487 -98 l 1,51,-1
 487 -148 l 1,52,-1
 178 -148 l 2,53,54
 133 -148 133 -148 101.5 -120 c 128,-1,55
 70 -92 70 -92 70 -47 c 0,56,57
 70 -3 70 -3 101 21.5 c 128,-1,58
 132 46 132 46 178 46 c 2,59,-1
 290 46 l 2,60,61
 436 46 436 46 436 182 c 0,62,63
 436 258 436 258 382 299 c 0,64,65
 335 333 335 333 262 333 c 0,66,67
 215 333 215 333 178 314 c 0,68,69
 134 292 134 292 121 250 c 1,70,71
 143 286 143 286 192 286 c 0,72,73
 236 286 236 286 265.5 256.5 c 128,-1,74
 295 227 295 227 295 180 c 0,75,76
 295 130 295 130 262 100.5 c 128,-1,77
 229 71 229 71 181 71 c 0,78,79
 127 71 127 71 94.5 107 c 128,-1,80
 62 143 62 143 62 200 c 0,81,82
 62 288 62 288 122 337 c 0,83,84
 178 384 178 384 271 384 c 0,85,86
 366 384 366 384 426 336 c 0,87,88
 495 282 495 282 495 181 c 0,42,43
236 180 m 0,89,90
 236 208 236 208 220.5 225.5 c 128,-1,91
 205 243 205 243 179 243 c 256,92,93
 153 243 153 243 136 225.5 c 128,-1,94
 119 208 119 208 119 181 c 256,95,96
 119 154 119 154 136 136 c 128,-1,97
 153 118 153 118 179 118 c 0,98,99
 204 118 204 118 220 135.5 c 128,-1,100
 236 153 236 153 236 180 c 0,89,90
EndSplineSet
EndChar
StartChar: uni0D0B
Encoding: 3339 3339 110
Width: 593
GlyphClass: 2
Flags: W
HStem: -159 54<230 376> 42 53<218 435> 162 49<173 216 438 480> 333 51<157 212 444 498>
VStem: 60 51<158 267> 77 57<-67 12> 246 52<249 296> 359 47<250 297> 524 58<-65 12> 544 51<158 265>
Fore
595 234 m 0,0,1
 595 175 595 175 566 130 c 0,2,3
 536 82 536 82 487 76 c 1,4,-1
 487 71 l 1,5,6
 582 54 582 54 582 -30 c 0,7,8
 582 -101 582 -101 493 -134 c 0,9,10
 427 -159 427 -159 326 -159 c 256,11,12
 225 -159 225 -159 161 -134 c 0,13,14
 77 -102 77 -102 77 -30 c 0,15,16
 77 54 77 54 170 71 c 1,17,-1
 170 74 l 1,18,19
 114 85 114 85 86 132 c 0,20,21
 60 174 60 174 60 235 c 0,22,23
 60 298 60 298 91 338 c 0,24,25
 125 384 125 384 189 384 c 0,26,27
 236 384 236 384 267 352.5 c 128,-1,28
 298 321 298 321 298 272 c 0,29,30
 298 225 298 225 268.5 193.5 c 128,-1,31
 239 162 239 162 194 162 c 0,32,33
 167 162 167 162 143 178 c 128,-1,34
 119 194 119 194 111 220 c 1,35,36
 111 95 111 95 326 95 c 0,37,38
 544 95 544 95 544 220 c 1,39,40
 537 193 537 193 512.5 177.5 c 128,-1,41
 488 162 488 162 460 162 c 0,42,43
 416 162 416 162 387.5 194.5 c 128,-1,44
 359 227 359 227 359 273 c 0,45,46
 359 322 359 322 389.5 353 c 128,-1,47
 420 384 420 384 468 384 c 0,48,49
 528 384 528 384 563 337 c 0,50,51
 595 296 595 296 595 234 c 0,0,1
526 274 m 256,52,53
 526 299 526 299 510 316 c 128,-1,54
 494 333 494 333 466 333 c 0,55,56
 439 333 439 333 422.5 316 c 128,-1,57
 406 299 406 299 406 275 c 0,58,59
 406 250 406 250 423 230.5 c 128,-1,60
 440 211 440 211 466 211 c 0,61,62
 494 211 494 211 510 230 c 128,-1,63
 526 249 526 249 526 274 c 256,52,53
246 274 m 256,64,65
 246 299 246 299 230.5 316 c 128,-1,66
 215 333 215 333 187 333 c 0,67,68
 160 333 160 333 143 316 c 128,-1,69
 126 299 126 299 126 275 c 0,70,71
 126 250 126 250 143 230.5 c 128,-1,72
 160 211 160 211 187 211 c 256,73,74
 214 211 214 211 230 230 c 128,-1,75
 246 249 246 249 246 274 c 256,64,65
524 -30 m 0,76,77
 524 42 524 42 326 42 c 0,78,79
 134 42 134 42 134 -30 c 0,80,81
 134 -105 134 -105 326 -105 c 0,82,83
 394 -105 394 -105 445 -93 c 0,84,85
 524 -74 524 -74 524 -30 c 0,76,77
EndSplineSet
EndChar
StartChar: l1
Encoding: 3340 3340 111
Width: 834
GlyphClass: 2
Flags: W
HStem: -7 49<166 228 562 624> 182 56<184 232 557 605> 333 51<235 305 484 554>
VStem: 61 66<97 205> 266 57<84 139> 367 55<0 263> 466 57<84 139> 662 66<97 205>
Fore
728 160 m 0,0,1
 728 89 728 89 695 44 c 0,2,3
 658 -7 658 -7 589 -7 c 0,4,5
 534 -7 534 -7 500 25 c 128,-1,6
 466 57 466 57 466 112 c 0,7,8
 466 165 466 165 499 201.5 c 128,-1,9
 532 238 532 238 582 238 c 0,10,11
 611 238 611 238 639 224.5 c 128,-1,12
 667 211 667 211 676 187 c 1,13,14
 672 247 672 247 629 290 c 128,-1,15
 586 333 586 333 522 333 c 0,16,17
 479 333 479 333 450.5 308.5 c 128,-1,18
 422 284 422 284 422 241 c 2,19,-1
 422 0 l 1,20,-1
 367 0 l 1,21,-1
 367 241 l 2,22,23
 367 284 367 284 338.5 308.5 c 128,-1,24
 310 333 310 333 267 333 c 0,25,26
 203 333 203 333 160 290 c 128,-1,27
 117 247 117 247 113 187 c 1,28,29
 122 211 122 211 150 224.5 c 128,-1,30
 178 238 178 238 207 238 c 0,31,32
 257 238 257 238 290 201.5 c 128,-1,33
 323 165 323 165 323 112 c 0,34,35
 323 57 323 57 289 25 c 128,-1,36
 255 -7 255 -7 200 -7 c 0,37,38
 131 -7 131 -7 94 44 c 0,39,40
 61 89 61 89 61 160 c 0,41,42
 61 250 61 250 114 315 c 0,43,44
 171 385 171 385 259 384 c 0,45,46
 350 384 350 384 394 327 c 1,47,48
 439 384 439 384 530 384 c 0,49,50
 618 385 618 385 675 315 c 0,51,52
 728 250 728 250 728 160 c 0,0,1
662 111 m 256,53,54
 662 140 662 140 640.5 161 c 128,-1,55
 619 182 619 182 591 182 c 256,56,57
 563 182 563 182 543 160.5 c 128,-1,58
 523 139 523 139 523 110 c 256,59,60
 523 81 523 81 542.5 61.5 c 128,-1,61
 562 42 562 42 591 42 c 256,62,63
 620 42 620 42 641 62 c 128,-1,64
 662 82 662 82 662 111 c 256,53,54
266 110 m 256,65,66
 266 139 266 139 246 160.5 c 128,-1,67
 226 182 226 182 198 182 c 256,68,69
 170 182 170 182 148.5 161 c 128,-1,70
 127 140 127 140 127 111 c 256,71,72
 127 82 127 82 148 62 c 128,-1,73
 169 42 169 42 198 42 c 256,74,75
 227 42 227 42 246.5 61.5 c 128,-1,76
 266 81 266 81 266 110 c 256,65,66
EndSplineSet
EndChar
StartChar: uni0D0D
Encoding: 3341 3341 112
Width: 1000
GlyphClass: 2
Flags: W
HStem: -77 26<309 433> 489 29<309 433>
VStem: 73 24<159 283> 237 75<30 200> 636 32<159 283>
Fore
668 221 m 0,0,1
 668 97 668 97 581 10 c 128,-1,2
 494 -77 494 -77 371 -77 c 0,3,4
 247 -77 247 -77 160 10 c 128,-1,5
 73 97 73 97 73 221 c 0,6,7
 73 344 73 344 160 431 c 128,-1,8
 247 518 247 518 371 518 c 0,9,10
 494 518 494 518 581 431 c 128,-1,11
 668 344 668 344 668 221 c 0,0,1
636 219 m 256,12,13
 636 331 636 331 557 410 c 128,-1,14
 478 489 478 489 367 489 c 0,15,16
 255 489 255 489 176 410 c 128,-1,17
 97 331 97 331 97 219 c 256,18,19
 97 107 97 107 176 28 c 128,-1,20
 255 -51 255 -51 367 -51 c 0,21,22
 478 -51 478 -51 557 28 c 128,-1,23
 636 107 636 107 636 219 c 256,12,13
526 68 m 1,24,-1
 455 -3 l 1,25,26
 445 10 445 10 438 50 c 0,27,28
 432 85 432 85 416 101 c 0,29,30
 406 111 406 111 393 132 c 128,-1,31
 380 153 380 153 368.5 165 c 128,-1,32
 357 177 357 177 344 183 c 1,33,34
 332 183 332 183 312 184 c 1,35,36
 311 141 311 141 311 104 c 1,37,-1
 237 30 l 1,38,39
 237 125 237 125 248 334 c 1,40,-1
 277 363 l 1,41,42
 252 362 252 362 232 359 c 1,43,-1
 307 434 l 1,44,45
 327 437 327 437 352 437 c 0,46,47
 466 437 466 437 507 395 c 0,48,49
 523 380 523 380 523 334 c 0,50,51
 523 286 523 286 509 272 c 2,52,-1
 455 218 l 1,53,54
 464 201 464 201 490 169 c 0,55,56
 506 153 506 153 512 118 c 0,57,58
 518 80 518 80 526 68 c 1,24,-1
449 258 m 1,59,60
 452 307 452 307 436 325 c 0,61,62
 404 355 404 355 320 361 c 1,63,64
 314 260 314 260 312 200 c 1,65,-1
 370 258 l 1,66,67
 388 268 388 268 411 257 c 1,68,69
 433 256 433 256 449 258 c 1,59,60
EndSplineSet
EndChar
StartChar: uni0D0E
Encoding: 3342 3342 113
Width: 828
GlyphClass: 2
Flags: W
HStem: -150 53<517 567> 0 45<255 425 481 594> 209 48<175 243> 334 51<577 728>
VStem: 61 48<77 148> 307 51<84 148> 424 56<45 159> 594 56<-55 256> 772 55<21 242>
Fore
827 98 m 0,0,1
 827 -56 827 -56 733 -152 c 1,2,-1
 697 -117 l 1,3,4
 739 -68 739 -68 756 -17 c 0,5,6
 772 29 772 29 772 98 c 0,7,8
 772 334 772 334 629 334 c 0,9,10
 557 334 557 334 518.5 271.5 c 128,-1,11
 480 209 480 209 480 93 c 0,12,13
 480 51 480 51 481 45 c 1,14,-1
 594 45 l 1,15,-1
 594 256 l 1,16,-1
 650 256 l 1,17,-1
 650 -31 l 2,18,19
 650 -78 650 -78 622 -112 c 0,20,21
 591 -150 591 -150 544 -150 c 0,22,23
 490 -150 490 -150 458 -98 c 0,24,25
 433 -59 433 -59 425 0 c 1,26,-1
 255 0 l 1,27,-1
 255 29 l 1,28,29
 307 53 307 53 307 116 c 0,30,31
 307 155 307 155 278 182 c 128,-1,32
 249 209 249 209 208 209 c 0,33,34
 168 209 168 209 138.5 183 c 128,-1,35
 109 157 109 157 109 118 c 0,36,37
 109 50 109 50 170 29 c 1,38,-1
 137 -3 l 1,39,40
 61 35 61 35 61 118 c 0,41,42
 61 179 61 179 101 218 c 128,-1,43
 141 257 141 257 209 257 c 256,44,45
 277 257 277 257 317.5 218 c 128,-1,46
 358 179 358 179 358 118 c 0,47,48
 358 70 358 70 336 45 c 1,49,-1
 424 45 l 1,50,-1
 424 93 l 2,51,52
 424 224 424 224 471 300 c 0,53,54
 524 385 524 385 629 385 c 0,55,56
 827 385 827 385 827 98 c 0,0,1
594 -42 m 2,57,-1
 594 0 l 1,58,-1
 486 0 l 1,59,60
 493 -97 493 -97 547 -97 c 0,61,62
 568 -97 568 -97 581 -80.5 c 128,-1,63
 594 -64 594 -64 594 -42 c 2,57,-1
EndSplineSet
EndChar
StartChar: uni0D0F
Encoding: 3343 3343 114
Width: 847
GlyphClass: 2
Flags: W
HStem: -153 54<496 566> -148 53<720 792> 0 45<255 427 477 595> 63 56<700 739> 209 48<179 238> 333 51<593 695>
VStem: 61 48<76 147> 307 50<86 147> 425 53<45 152> 595 54<-63 256> 796 51<-84 19 196 253>
Fore
847 -20 m 0,0,1
 847 -148 847 -148 736 -148 c 0,2,3
 725 -148 725 -148 695 -139 c 1,4,-1
 695 -82 l 1,5,6
 710 -95 710 -95 729 -95 c 0,7,8
 796 -95 796 -95 796 -20 c 0,9,10
 796 14 796 14 776.5 38.5 c 128,-1,11
 757 63 757 63 722 63 c 2,12,-1
 700 63 l 1,13,-1
 700 119 l 1,14,-1
 722 119 l 2,15,16
 751 119 751 119 774 153 c 0,17,18
 796 184 796 184 796 215 c 0,19,20
 796 272 796 272 753 304 c 0,21,22
 713 333 713 333 649 333 c 0,23,24
 560 333 560 333 515 253 c 0,25,26
 478 188 478 188 478 93 c 0,27,28
 478 42 478 42 477 45 c 1,29,-1
 595 45 l 1,30,-1
 595 256 l 1,31,-1
 649 256 l 1,32,-1
 649 -39 l 2,33,34
 649 -87 649 -87 618.5 -120 c 128,-1,35
 588 -153 588 -153 545 -153 c 0,36,37
 446 -153 446 -153 427 0 c 1,38,-1
 255 0 l 1,39,-1
 255 32 l 1,40,41
 307 56 307 56 307 116 c 0,42,43
 307 155 307 155 277 182 c 128,-1,44
 247 209 247 209 208 209 c 0,45,46
 168 209 168 209 138.5 183 c 128,-1,47
 109 157 109 157 109 118 c 0,48,49
 109 52 109 52 169 30 c 1,50,-1
 134 -7 l 1,51,52
 61 33 61 33 61 118 c 0,53,54
 61 177 61 177 105 217 c 128,-1,55
 149 257 149 257 209 257 c 0,56,57
 268 257 268 257 312.5 217 c 128,-1,58
 357 177 357 177 357 118 c 0,59,60
 357 70 357 70 336 45 c 1,61,-1
 425 45 l 1,62,-1
 425 93 l 2,63,64
 425 211 425 211 476 290 c 0,65,66
 536 384 536 384 650 384 c 0,67,68
 740 384 740 384 793.5 338.5 c 128,-1,69
 847 293 847 293 847 213 c 0,70,71
 847 179 847 179 834 146 c 0,72,73
 819 110 819 110 795 95 c 1,74,75
 847 58 847 58 847 -20 c 0,0,1
594 -44 m 2,76,-1
 594 0 l 1,77,-1
 483 0 l 1,78,79
 491 -99 491 -99 545 -99 c 0,80,81
 566 -99 566 -99 580 -82.5 c 128,-1,82
 594 -66 594 -66 594 -44 c 2,76,-1
EndSplineSet
EndChar
StartChar: uni0D10
Encoding: 3344 3344 115
Width: 1306
GlyphClass: 2
Flags: W
HStem: -150 53<997 1047> -7 49<165 229> 0 45<735 905 961 1074> 182 48<183 233> 209 48<655 723> 334 51<228 326 1057 1208>
VStem: 61 66<97 208> 266 63<85 137> 434 57<112 219> 541 48<77 148> 787 51<84 148> 904 56<45 159> 1074 56<-55 256> 1252 55<21 242>
Fore
1307 98 m 0,0,1
 1307 -56 1307 -56 1213 -152 c 1,2,-1
 1177 -117 l 1,3,4
 1219 -68 1219 -68 1236 -17 c 0,5,6
 1252 29 1252 29 1252 98 c 0,7,8
 1252 334 1252 334 1109 334 c 0,9,10
 1037 334 1037 334 998.5 271.5 c 128,-1,11
 960 209 960 209 960 93 c 0,12,13
 960 51 960 51 961 45 c 1,14,-1
 1074 45 l 1,15,-1
 1074 256 l 1,16,-1
 1130 256 l 1,17,-1
 1130 -31 l 2,18,19
 1130 -78 1130 -78 1102 -112 c 0,20,21
 1071 -150 1071 -150 1024 -150 c 0,22,23
 970 -150 970 -150 938 -98 c 0,24,25
 913 -59 913 -59 905 0 c 1,26,-1
 735 0 l 1,27,-1
 735 29 l 1,28,29
 787 53 787 53 787 116 c 0,30,31
 787 155 787 155 758 182 c 128,-1,32
 729 209 729 209 688 209 c 0,33,34
 648 209 648 209 618.5 183 c 128,-1,35
 589 157 589 157 589 118 c 0,36,37
 589 50 589 50 650 29 c 1,38,-1
 617 -3 l 1,39,40
 541 35 541 35 541 118 c 0,41,42
 541 179 541 179 581 218 c 128,-1,43
 621 257 621 257 689 257 c 256,44,45
 757 257 757 257 797.5 218 c 128,-1,46
 838 179 838 179 838 118 c 0,47,48
 838 70 838 70 816 45 c 1,49,-1
 904 45 l 1,50,-1
 904 93 l 2,51,52
 904 224 904 224 951 300 c 0,53,54
 1004 385 1004 385 1109 385 c 0,55,56
 1307 385 1307 385 1307 98 c 0,0,1
1074 -42 m 2,57,-1
 1074 0 l 1,58,-1
 966 0 l 1,59,60
 973 -97 973 -97 1027 -97 c 0,61,62
 1048 -97 1048 -97 1061 -80.5 c 128,-1,63
 1074 -64 1074 -64 1074 -42 c 2,57,-1
491 174 m 0,64,65
 491 51 491 51 376 -7 c 1,66,-1
 347 33 l 1,67,68
 434 77 434 77 434 174 c 0,69,70
 434 242 434 242 391 288 c 128,-1,71
 348 334 348 334 276 334 c 0,72,73
 205 334 205 334 161 290 c 128,-1,74
 117 246 117 246 113 178 c 1,75,76
 121 203 121 203 151 217 c 0,77,78
 177 230 177 230 207 230 c 0,79,80
 259 230 259 230 294 196 c 128,-1,81
 329 162 329 162 329 112 c 0,82,83
 329 59 329 59 293 26 c 128,-1,84
 257 -7 257 -7 200 -7 c 0,85,86
 129 -7 129 -7 92 46 c 0,87,88
 61 91 61 91 61 160 c 0,89,90
 61 255 61 255 119.5 319 c 128,-1,91
 178 383 178 383 278 383 c 0,92,93
 374 383 374 383 432.5 323.5 c 128,-1,94
 491 264 491 264 491 174 c 0,64,65
266 110 m 0,95,96
 266 139 266 139 247 160.5 c 128,-1,97
 228 182 228 182 198 182 c 256,98,99
 168 182 168 182 147.5 161 c 128,-1,100
 127 140 127 140 127 111 c 0,101,102
 127 83 127 83 147.5 62.5 c 128,-1,103
 168 42 168 42 198 42 c 256,104,105
 228 42 228 42 247 62 c 128,-1,106
 266 82 266 82 266 110 c 0,95,96
EndSplineSet
EndChar
StartChar: uni0D11
Encoding: 3345 3345 116
Width: 1000
GlyphClass: 2
Flags: W
HStem: -77 26<309 433> 489 29<309 433>
VStem: 73 24<159 283> 237 75<30 200> 636 32<159 283>
Fore
668 221 m 0,0,1
 668 97 668 97 581 10 c 128,-1,2
 494 -77 494 -77 371 -77 c 0,3,4
 247 -77 247 -77 160 10 c 128,-1,5
 73 97 73 97 73 221 c 0,6,7
 73 344 73 344 160 431 c 128,-1,8
 247 518 247 518 371 518 c 0,9,10
 494 518 494 518 581 431 c 128,-1,11
 668 344 668 344 668 221 c 0,0,1
636 219 m 256,12,13
 636 331 636 331 557 410 c 128,-1,14
 478 489 478 489 367 489 c 0,15,16
 255 489 255 489 176 410 c 128,-1,17
 97 331 97 331 97 219 c 256,18,19
 97 107 97 107 176 28 c 128,-1,20
 255 -51 255 -51 367 -51 c 0,21,22
 478 -51 478 -51 557 28 c 128,-1,23
 636 107 636 107 636 219 c 256,12,13
526 68 m 1,24,-1
 455 -3 l 1,25,26
 445 10 445 10 438 50 c 0,27,28
 432 85 432 85 416 101 c 0,29,30
 406 111 406 111 393 132 c 128,-1,31
 380 153 380 153 368.5 165 c 128,-1,32
 357 177 357 177 344 183 c 1,33,34
 332 183 332 183 312 184 c 1,35,36
 311 141 311 141 311 104 c 1,37,-1
 237 30 l 1,38,39
 237 125 237 125 248 334 c 1,40,-1
 277 363 l 1,41,42
 252 362 252 362 232 359 c 1,43,-1
 307 434 l 1,44,45
 327 437 327 437 352 437 c 0,46,47
 466 437 466 437 507 395 c 0,48,49
 523 380 523 380 523 334 c 0,50,51
 523 286 523 286 509 272 c 2,52,-1
 455 218 l 1,53,54
 464 201 464 201 490 169 c 0,55,56
 506 153 506 153 512 118 c 0,57,58
 518 80 518 80 526 68 c 1,24,-1
449 258 m 1,59,60
 452 307 452 307 436 325 c 0,61,62
 404 355 404 355 320 361 c 1,63,64
 314 260 314 260 312 200 c 1,65,-1
 370 258 l 1,66,67
 388 268 388 268 411 257 c 1,68,69
 433 256 433 256 449 258 c 1,59,60
EndSplineSet
EndChar
StartChar: uni0D12
Encoding: 3346 3346 117
Width: 488
GlyphClass: 2
Flags: W
HStem: -9 46<150 206 366 411> 157 55<336 392> 181 44<164 211> 333 52<245 364>
VStem: 59 54<125 213> 241 55<85 135> 437 54<65 127 232 297>
Fore
491 90 m 0,0,1
 491 44 491 44 462.5 17.5 c 128,-1,2
 434 -9 434 -9 387 -9 c 0,3,4
 361 -9 361 -9 335 -1 c 1,5,-1
 335 50 l 1,6,7
 354 37 354 37 378 37 c 0,8,9
 437 37 437 37 437 93 c 0,10,11
 437 119 437 119 420.5 138 c 128,-1,12
 404 157 404 157 379 157 c 2,13,-1
 336 157 l 1,14,-1
 336 212 l 1,15,-1
 374 212 l 2,16,17
 398 212 398 212 416.5 225 c 128,-1,18
 435 238 435 238 435 261 c 0,19,20
 435 333 435 333 291 333 c 0,21,22
 214 333 214 333 165 296 c 128,-1,23
 116 259 116 259 113 192 c 1,24,25
 140 225 140 225 187 225 c 0,26,27
 236 225 236 225 266 192.5 c 128,-1,28
 296 160 296 160 296 110 c 256,29,30
 296 60 296 60 263.5 25.5 c 128,-1,31
 231 -9 231 -9 180 -9 c 0,32,33
 121 -9 121 -9 87 46 c 0,34,35
 59 93 59 93 59 157 c 0,36,37
 59 269 59 269 123 327 c 128,-1,38
 187 385 187 385 303 385 c 0,39,40
 426 385 426 385 471 318 c 0,41,42
 489 291 489 291 489 261 c 0,43,44
 489 204 489 204 441 186 c 1,45,46
 491 165 491 165 491 90 c 0,0,1
241 108 m 0,47,48
 241 138 241 138 226 158 c 0,49,50
 208 181 208 181 180 181 c 0,51,52
 151 181 151 181 134.5 161 c 128,-1,53
 118 141 118 141 118 112 c 0,54,55
 118 81 118 81 135.5 59 c 128,-1,56
 153 37 153 37 182 37 c 0,57,58
 210 37 210 37 225.5 58.5 c 128,-1,59
 241 80 241 80 241 108 c 0,47,48
EndSplineSet
EndChar
StartChar: uni0D13
Encoding: 3347 3347 118
Width: 820
GlyphClass: 2
Flags: W
HStem: -9 46<153 208> -9 51<362 411 641 719> 157 55<336 392> 181 44<164 211> 334 49<245 364 642 722>
VStem: 59 51<125 213> 241 55<85 135> 437 54<67 127 232 297> 537 54<104 141 239 259> 766 56<118 264>
Fore
822 193 m 0,0,1
 822 106 822 106 789 53 c 0,2,3
 749 -9 749 -9 672 -9 c 0,4,5
 610 -9 610 -9 575 27 c 0,6,7
 537 67 537 67 537 141 c 1,8,-1
 591 141 l 1,9,10
 589 102 589 102 612.5 72 c 128,-1,11
 636 42 636 42 672 42 c 0,12,13
 766 42 766 42 766 193 c 0,14,15
 766 334 766 334 677 334 c 0,16,17
 636 334 636 334 613 306.5 c 128,-1,18
 590 279 590 279 590 239 c 1,19,-1
 536 239 l 1,20,21
 537 301 537 301 572 340 c 0,22,23
 609 383 609 383 674 383 c 0,24,25
 749 383 749 383 788 325 c 0,26,27
 822 274 822 274 822 193 c 0,0,1
491 90 m 0,28,29
 491 44 491 44 462.5 17.5 c 128,-1,30
 434 -9 434 -9 387 -9 c 0,31,32
 361 -9 361 -9 335 -1 c 1,33,-1
 335 50 l 1,34,35
 347 42 347 42 378 42 c 0,36,37
 437 42 437 42 437 93 c 0,38,39
 437 119 437 119 420.5 138 c 128,-1,40
 404 157 404 157 379 157 c 2,41,-1
 336 157 l 1,42,-1
 336 212 l 1,43,-1
 374 212 l 2,44,45
 398 212 398 212 416.5 225 c 128,-1,46
 435 238 435 238 435 261 c 0,47,48
 435 333 435 333 291 333 c 0,49,50
 215 333 215 333 164 293 c 128,-1,51
 113 253 113 253 110 187 c 1,52,53
 141 225 141 225 187 225 c 0,54,55
 236 225 236 225 266 192.5 c 128,-1,56
 296 160 296 160 296 110 c 256,57,58
 296 60 296 60 264.5 25.5 c 128,-1,59
 233 -9 233 -9 183 -9 c 0,60,61
 123 -9 123 -9 89 46 c 0,62,63
 59 94 59 94 59 157 c 0,64,65
 59 269 59 269 123 327 c 128,-1,66
 187 385 187 385 303 385 c 0,67,68
 426 385 426 385 471 318 c 0,69,70
 489 291 489 291 489 261 c 0,71,72
 489 204 489 204 441 186 c 1,73,74
 491 165 491 165 491 90 c 0,28,29
241 108 m 0,75,76
 241 138 241 138 226 158 c 0,77,78
 208 181 208 181 180 181 c 0,79,80
 151 181 151 181 134.5 161 c 128,-1,81
 118 141 118 141 118 112 c 0,82,83
 118 81 118 81 135.5 59 c 128,-1,84
 153 37 153 37 182 37 c 0,85,86
 210 37 210 37 225.5 58.5 c 128,-1,87
 241 80 241 80 241 108 c 0,75,76
EndSplineSet
EndChar
StartChar: uni0D14
Encoding: 3348 3348 119
Width: 1005
GlyphClass: 2
Flags: W
HStem: -9 46<153 208 366 411> 157 55<336 392> 181 44<164 211> 329 55<604 699 836 897>
VStem: 59 51<125 213> 241 55<85 135> 437 54<65 127 232 297> 538 54<224 309> 543 51<185 185> 723 60<193 292> 945 59<117 261>
Fore
1004 194 m 0,0,1
 1004 116 1004 116 967 62 c 0,2,3
 918 -9 918 -9 818 -9 c 0,4,5
 748 -9 748 -9 708 31 c 0,6,7
 674 64 674 64 674 106 c 1,8,-1
 728 106 l 1,9,10
 742 41 742 41 815 41 c 0,11,12
 945 41 945 41 945 192 c 0,13,14
 945 329 945 329 850 329 c 0,15,16
 823 329 823 329 803 310 c 128,-1,17
 783 291 783 291 783 261 c 2,18,-1
 783 194 l 1,19,-1
 723 193 l 1,20,-1
 723 254 l 2,21,22
 723 329 723 329 661 329 c 0,23,24
 624 329 624 329 608 306 c 128,-1,25
 592 283 592 283 592 228 c 0,26,27
 592 219 592 219 594 185 c 1,28,-1
 543 185 l 1,29,30
 538 224 538 224 538 235 c 0,31,32
 538 383 538 383 671 383 c 0,33,34
 727 383 727 383 754 337 c 1,35,36
 772 362 772 362 792 372 c 0,37,38
 816 384 816 384 861 384 c 0,39,40
 923 384 923 384 963.5 333 c 128,-1,41
 1004 282 1004 282 1004 194 c 0,0,1
491 90 m 0,42,43
 491 44 491 44 462.5 17.5 c 128,-1,44
 434 -9 434 -9 387 -9 c 0,45,46
 361 -9 361 -9 335 -1 c 1,47,-1
 335 50 l 1,48,49
 354 37 354 37 378 37 c 0,50,51
 437 37 437 37 437 93 c 0,52,53
 437 119 437 119 420.5 138 c 128,-1,54
 404 157 404 157 379 157 c 2,55,-1
 336 157 l 1,56,-1
 336 212 l 1,57,-1
 374 212 l 2,58,59
 398 212 398 212 416.5 225 c 128,-1,60
 435 238 435 238 435 261 c 0,61,62
 435 333 435 333 291 333 c 0,63,64
 215 333 215 333 164 293 c 128,-1,65
 113 253 113 253 110 187 c 1,66,67
 141 225 141 225 187 225 c 0,68,69
 236 225 236 225 266 192.5 c 128,-1,70
 296 160 296 160 296 110 c 256,71,72
 296 60 296 60 264.5 25.5 c 128,-1,73
 233 -9 233 -9 183 -9 c 0,74,75
 123 -9 123 -9 89 46 c 0,76,77
 59 94 59 94 59 157 c 0,78,79
 59 269 59 269 123 327 c 128,-1,80
 187 385 187 385 303 385 c 0,81,82
 426 385 426 385 471 318 c 0,83,84
 489 291 489 291 489 261 c 0,85,86
 489 204 489 204 441 186 c 1,87,88
 491 165 491 165 491 90 c 0,42,43
241 108 m 0,89,90
 241 138 241 138 226 158 c 0,91,92
 208 181 208 181 180 181 c 0,93,94
 151 181 151 181 134.5 161 c 128,-1,95
 118 141 118 141 118 112 c 0,96,97
 118 81 118 81 135.5 59 c 128,-1,98
 153 37 153 37 182 37 c 0,99,100
 210 37 210 37 225.5 58.5 c 128,-1,101
 241 80 241 80 241 108 c 0,89,90
EndSplineSet
EndChar
StartChar: k1
Encoding: 3349 3349 120
Width: 655
GlyphClass: 2
Flags: W
HStem: -10 48<140 199 315 425 525 569> 178 50<152 221 274 437 492 562> 334 50<330 390>
VStem: 61 49<87 146> 221 53<162 178 228 245> 437 55<161 178 228 274> 601 55<76 146>
Fore
656 115 m 0,0,1
 656 58 656 58 626.5 24 c 128,-1,2
 597 -10 597 -10 542 -10 c 0,3,4
 519 -10 519 -10 501 -3 c 1,5,-1
 501 48 l 1,6,7
 517 38 517 38 534 38 c 0,8,9
 601 38 601 38 601 114 c 0,10,11
 601 178 601 178 522 178 c 2,12,-1
 492 178 l 1,13,-1
 492 161 l 2,14,15
 492 -10 492 -10 358 -10 c 0,16,17
 276 -10 276 -10 250 46 c 1,18,19
 232 -10 232 -10 166 -10 c 0,20,21
 114 -10 114 -10 86 28 c 0,22,23
 61 62 61 62 61 112 c 0,24,25
 61 164 61 164 96.5 196 c 128,-1,26
 132 228 132 228 183 228 c 2,27,-1
 221 228 l 1,28,-1
 221 245 l 2,29,30
 221 304 221 304 259.5 344 c 128,-1,31
 298 384 298 384 361 384 c 0,32,33
 419 384 419 384 455.5 343.5 c 128,-1,34
 492 303 492 303 492 245 c 2,35,-1
 492 228 l 1,36,-1
 530 228 l 2,37,38
 583 228 583 228 618 200 c 0,39,40
 656 169 656 169 656 115 c 0,0,1
437 228 m 1,41,-1
 437 243 l 2,42,43
 437 280 437 280 414 307 c 128,-1,44
 391 334 391 334 355 334 c 256,45,46
 319 334 319 334 296.5 306.5 c 128,-1,47
 274 279 274 279 274 241 c 2,48,-1
 274 228 l 1,49,-1
 437 228 l 1,41,-1
437 164 m 2,50,-1
 437 178 l 1,51,-1
 274 178 l 1,52,-1
 274 163 l 2,53,54
 274 37 274 37 356 37 c 0,55,56
 437 37 437 37 437 164 c 2,50,-1
224 102 m 2,57,-1
 221 162 l 1,58,-1
 221 178 l 1,59,-1
 195 178 l 2,60,61
 110 178 110 178 110 113 c 0,62,63
 110 84 110 84 124 63 c 0,64,65
 140 38 140 38 170 38 c 0,66,67
 194 38 194 38 210 57.5 c 128,-1,68
 226 77 226 77 224 102 c 2,57,-1
EndSplineSet
EndChar
StartChar: k2
Encoding: 3350 3350 121
Width: 625
GlyphClass: 2
Flags: W
HStem: -9 46<158 216> 0 45<355 626> 178 49<162 215> 335 48<224 317>
VStem: 60 66<93 203> 250 50<83 133> 416 58<125 215> 571 55<0 374>
Fore
626 0 m 1,0,-1
 355 0 l 1,1,-1
 355 40 l 1,2,3
 416 79 416 79 416 172 c 0,4,5
 416 241 416 241 378 286 c 0,6,7
 338 335 338 335 270 335 c 0,8,9
 199 335 199 335 152 283 c 0,10,11
 109 236 109 236 112 178 c 1,12,13
 133 227 133 227 191 227 c 0,14,15
 240 227 240 227 270 192.5 c 128,-1,16
 300 158 300 158 300 108 c 256,17,18
 300 58 300 58 270.5 24.5 c 128,-1,19
 241 -9 241 -9 192 -9 c 0,20,21
 124 -9 124 -9 89 43 c 0,22,23
 60 87 60 87 60 154 c 0,24,25
 60 252 60 252 116 316 c 0,26,27
 176 383 176 383 272 383 c 0,28,29
 362 383 362 383 418 321.5 c 128,-1,30
 474 260 474 260 474 170 c 0,31,32
 474 89 474 89 431 45 c 1,33,-1
 571 45 l 1,34,-1
 571 374 l 1,35,-1
 626 374 l 1,36,-1
 626 0 l 1,0,-1
250 108 m 0,37,38
 250 136 250 136 233.5 157 c 128,-1,39
 217 178 217 178 188 178 c 0,40,41
 160 178 160 178 143 157 c 128,-1,42
 126 136 126 136 126 107 c 0,43,44
 126 79 126 79 143 58 c 128,-1,45
 160 37 160 37 188 37 c 0,46,47
 217 37 217 37 233.5 58 c 128,-1,48
 250 79 250 79 250 108 c 0,37,38
EndSplineSet
EndChar
StartChar: k3
Encoding: 3351 3351 122
Width: 625
GlyphClass: 2
Flags: W
HStem: -9 51<188 274> 333 50<417 500>
VStem: 61 55<145 256> 320 54<105 266> 575 51<116 223>
Fore
626 181 m 0,0,1
 626 50 626 50 513 -9 c 1,2,-1
 477 26 l 1,3,4
 575 69 575 69 575 188 c 0,5,6
 575 247 575 247 547 287 c 0,7,8
 515 333 515 333 459 333 c 0,9,10
 374 333 374 333 374 198 c 2,11,-1
 374 143 l 2,12,13
 374 78 374 78 335 36 c 0,14,15
 294 -9 294 -9 226 -9 c 0,16,17
 149 -9 149 -9 103 51 c 0,18,19
 61 105 61 105 61 184 c 0,20,21
 61 329 61 329 175 386 c 1,22,-1
 209 352 l 1,23,24
 116 306 116 306 116 192 c 0,25,26
 116 136 116 136 144 92 c 0,27,28
 175 42 175 42 228 42 c 0,29,30
 320 42 320 42 320 169 c 2,31,-1
 319 234 l 2,32,33
 319 296 319 296 357 339.5 c 128,-1,34
 395 383 395 383 458 383 c 0,35,36
 543 383 543 383 587 320 c 0,37,38
 626 265 626 265 626 181 c 0,0,1
EndSplineSet
EndChar
StartChar: k4
Encoding: 3352 3352 123
Width: 925
GlyphClass: 2
Flags: W
HStem: 0 45<424 924> 128 45<299 321 336 424 482 770> 334 50<179 238 562 637>
VStem: 61 48<203 274> 307 50<211 274> 424 58<0 128 173 227> 714 56<128 263> 869 55<0 374>
Fore
924 0 m 1,0,-1
 424 0 l 1,1,-1
 424 128 l 1,2,3
 401 127 401 127 388 127 c 0,4,5
 366 127 366 127 321 128 c 0,6,7
 277 128 277 128 255 128 c 1,8,-1
 255 156 l 1,9,10
 307 180 307 180 307 243 c 0,11,12
 307 282 307 282 277.5 308 c 128,-1,13
 248 334 248 334 208 334 c 256,14,15
 168 334 168 334 138.5 309 c 128,-1,16
 109 284 109 284 109 245 c 0,17,18
 109 189 109 189 159 165 c 1,19,-1
 136 124 l 1,20,21
 61 161 61 161 61 245 c 0,22,23
 61 304 61 304 105 344 c 128,-1,24
 149 384 149 384 209 384 c 0,25,26
 268 384 268 384 312.5 344 c 128,-1,27
 357 304 357 304 357 245 c 0,28,29
 357 196 357 196 336 173 c 1,30,-1
 424 173 l 1,31,-1
 424 227 l 2,32,33
 424 299 424 299 476 343 c 0,34,35
 525 384 525 384 599 384 c 0,36,37
 674 384 674 384 721 343 c 0,38,39
 770 299 770 299 770 227 c 2,40,-1
 770 128 l 1,41,-1
 482 128 l 1,42,-1
 482 45 l 1,43,-1
 869 45 l 1,44,-1
 869 374 l 1,45,-1
 924 374 l 1,46,-1
 924 0 l 1,0,-1
714 173 m 1,47,-1
 714 212 l 2,48,49
 714 266 714 266 684 300 c 128,-1,50
 654 334 654 334 600 334 c 256,51,52
 546 334 546 334 514.5 300 c 128,-1,53
 483 266 483 266 483 212 c 2,54,-1
 483 173 l 1,55,-1
 714 173 l 1,47,-1
EndSplineSet
EndChar
StartChar: ng
Encoding: 3353 3353 124
Width: 690
GlyphClass: 2
Flags: W
HStem: -9 49<151 211 532 592> 165 49<497 597> 179 47<160 218> 333 50<209 299 485 564>
VStem: 60 50<126 208> 248 57<86 137> 361 55<0 271> 635 54<77 138 242 298>
Fore
689 101 m 0,0,1
 689 52 689 52 653 21.5 c 128,-1,2
 617 -9 617 -9 567 -9 c 0,3,4
 525 -9 525 -9 489 1 c 1,5,-1
 489 51 l 1,6,7
 502 40 502 40 562 40 c 0,8,9
 592 40 592 40 613.5 56.5 c 128,-1,10
 635 73 635 73 635 104 c 0,11,12
 635 165 635 165 558 165 c 2,13,-1
 497 165 l 1,14,-1
 497 214 l 1,15,-1
 557 214 l 2,16,17
 635 214 635 214 635 269 c 0,18,19
 635 302 635 302 601 319 c 0,20,21
 574 333 574 333 536 333 c 0,22,23
 489 333 489 333 455 314 c 0,24,25
 416 291 416 291 416 252 c 2,26,-1
 416 0 l 1,27,-1
 361 1 l 1,28,-1
 361 252 l 2,29,30
 361 289 361 289 326 312 c 0,31,32
 295 333 295 333 254 333 c 0,33,34
 186 333 186 333 145 282 c 0,35,36
 110 238 110 238 110 178 c 1,37,38
 127 226 127 226 193 226 c 0,39,40
 244 226 244 226 274.5 193.5 c 128,-1,41
 305 161 305 161 305 112 c 0,42,43
 305 61 305 61 271.5 26 c 128,-1,44
 238 -9 238 -9 184 -9 c 0,45,46
 119 -9 119 -9 86 48 c 0,47,48
 60 93 60 93 60 160 c 0,49,50
 60 252 60 252 107 313 c 0,51,52
 161 383 161 383 258 383 c 0,53,54
 341 383 341 383 390 329 c 1,55,56
 436 383 436 383 535 383 c 0,57,58
 593 383 593 383 637 356 c 0,59,60
 689 325 689 325 689 271 c 0,61,62
 689 244 689 244 675 223 c 0,63,64
 659 199 659 199 634 192 c 1,65,66
 689 174 689 174 689 101 c 0,0,1
248 108 m 0,67,68
 248 137 248 137 231.5 158 c 128,-1,69
 215 179 215 179 186 179 c 256,70,71
 157 179 157 179 139.5 158.5 c 128,-1,72
 122 138 122 138 122 110 c 256,73,74
 122 82 122 82 140.5 61 c 128,-1,75
 159 40 159 40 185 40 c 0,76,77
 212 40 212 40 230 60.5 c 128,-1,78
 248 81 248 81 248 108 c 0,67,68
EndSplineSet
EndChar
StartChar: ch1
Encoding: 3354 3354 125
Width: 593
GlyphClass: 2
Flags: W
HStem: 0 46<62 595> 202 51<269 322> 354 20G<540 595>
VStem: 163 51<117 152> 371 52<101 153> 540 55<0 374>
Fore
595 0 m 1,0,-1
 62 0 l 1,1,-1
 62 46 l 1,2,-1
 287 46 l 2,3,4
 321 46 321 46 346 71 c 128,-1,5
 371 96 371 96 371 127 c 256,6,7
 371 158 371 158 348 180 c 128,-1,8
 325 202 325 202 293 202 c 256,9,10
 261 202 261 202 237.5 180 c 128,-1,11
 214 158 214 158 214 126 c 0,12,13
 214 107 214 107 223 91 c 1,14,-1
 169 89 l 1,15,16
 164 106 164 106 163 126 c 0,17,18
 163 179 163 179 202 216 c 128,-1,19
 241 253 241 253 296 253 c 0,20,21
 348 253 348 253 385.5 216 c 128,-1,22
 423 179 423 179 423 127 c 256,23,24
 423 75 423 75 385 46 c 1,25,-1
 540 46 l 1,26,-1
 540 374 l 1,27,-1
 595 374 l 1,28,-1
 595 0 l 1,0,-1
EndSplineSet
EndChar
StartChar: ch2
Encoding: 3355 3355 126
Width: 882
GlyphClass: 2
Flags: W
HStem: -10 51<711 772> 0 46<62 590> 205 48<269 322> 241 48<717 768> 334 49<626 714>
VStem: 163 48<116 152> 461 48<175 178> 610 48<136 140> 830 51<123 203>
Fore
881 157 m 0,0,1
 881 89 881 89 845 42 c 0,2,3
 805 -10 805 -10 739 -10 c 0,4,5
 683 -10 683 -10 645.5 33.5 c 128,-1,6
 608 77 608 77 610 136 c 0,7,8
 612 200 612 200 646 242 c 0,9,10
 684 289 684 289 750 289 c 0,11,12
 763 289 763 289 786 284 c 1,13,14
 745 334 745 334 670 334 c 0,15,16
 602 334 602 334 556 288.5 c 128,-1,17
 510 243 510 243 509 175 c 0,18,19
 506 88 506 88 557 46 c 0,20,21
 566 38 566 38 590 34 c 1,22,-1
 590 0 l 1,23,-1
 62 0 l 1,24,-1
 62 46 l 1,25,-1
 287 46 l 2,26,27
 321 46 321 46 347 70.5 c 128,-1,28
 373 95 373 95 373 127 c 256,29,30
 373 159 373 159 349.5 182 c 128,-1,31
 326 205 326 205 293 205 c 256,32,33
 260 205 260 205 235.5 182 c 128,-1,34
 211 159 211 159 211 126 c 0,35,36
 211 106 211 106 221 90 c 1,37,-1
 169 89 l 1,38,39
 163 105 163 105 163 126 c 0,40,41
 163 179 163 179 202 216 c 128,-1,42
 241 253 241 253 296 253 c 0,43,44
 348 253 348 253 386 215.5 c 128,-1,45
 424 178 424 178 421 127 c 0,46,47
 417 69 417 69 384 46 c 1,48,-1
 492 46 l 1,49,50
 458 97 458 97 461 178 c 0,51,52
 463 265 463 265 523 324 c 128,-1,53
 583 383 583 383 670 383 c 0,54,55
 759 383 759 383 820 316 c 128,-1,56
 881 249 881 249 881 157 c 0,0,1
830 139 m 0,57,58
 831 182 831 182 811 225 c 1,59,60
 788 241 788 241 747 241 c 0,61,62
 709 241 709 241 684 211.5 c 128,-1,63
 659 182 659 182 658 140 c 0,64,65
 657 100 657 100 680 70.5 c 128,-1,66
 703 41 703 41 740 41 c 0,67,68
 778 41 778 41 803 70 c 128,-1,69
 828 99 828 99 830 139 c 0,57,58
EndSplineSet
EndChar
StartChar: ch3
Encoding: 3356 3356 127
Width: 575
GlyphClass: 2
Flags: W
HStem: -10 48<167 282 465 502> 117 45<151 387> 162 42<101 160> 285 33<133 168> 335 48<174 257 402 481>
VStem: 61 41<208 285> 66 51<44 117> 179 42<224 257> 308 55<179 297> 523 54<221 279> 530 48<65 108>
Fore
578 85 m 0,0,1
 578 45 578 45 550 17.5 c 128,-1,2
 522 -10 522 -10 482 -10 c 0,3,4
 449 -10 449 -10 423 7.5 c 128,-1,5
 397 25 397 25 390 52 c 1,6,7
 337 -10 337 -10 209 -10 c 0,8,9
 141 -10 141 -10 113 1 c 0,10,11
 66 18 66 18 66 71 c 0,12,13
 66 162 66 162 237 162 c 2,14,-1
 387 162 l 2,15,16
 442 162 442 162 479 183 c 0,17,18
 523 207 523 207 523 254 c 0,19,20
 523 291 523 291 501 313 c 128,-1,21
 479 335 479 335 442 335 c 0,22,23
 363 335 363 335 363 260 c 2,24,-1
 363 179 l 1,25,-1
 308 179 l 1,26,-1
 308 256 l 2,27,28
 308 335 308 335 207 335 c 0,29,30
 142 335 142 335 127 310 c 1,31,32
 141 318 141 318 152 318 c 0,33,34
 184 318 184 318 202.5 296 c 128,-1,35
 221 274 221 274 221 241 c 256,36,37
 221 208 221 208 198 185 c 128,-1,38
 175 162 175 162 141 162 c 0,39,40
 61 162 61 162 61 253 c 0,41,42
 61 317 61 317 105 351 c 0,43,44
 145 383 145 383 210 383 c 0,45,46
 297 383 297 383 334 331 c 1,47,48
 365 383 365 383 451 383 c 0,49,50
 511 383 511 383 544 346 c 128,-1,51
 577 309 577 309 577 249 c 0,52,53
 577 193 577 193 535 160 c 1,54,55
 578 131 578 131 578 85 c 0,0,1
530 85 m 0,56,57
 530 128 530 128 482 128 c 0,58,59
 433 128 433 128 433 85 c 0,60,61
 433 65 433 65 447.5 51.5 c 128,-1,62
 462 38 462 38 482 38 c 256,63,64
 502 38 502 38 516 51.5 c 128,-1,65
 530 65 530 65 530 85 c 0,56,57
179 244 m 0,66,67
 179 261 179 261 168.5 273 c 128,-1,68
 158 285 158 285 141 285 c 0,69,70
 125 285 125 285 113.5 273.5 c 128,-1,71
 102 262 102 262 102 245 c 0,72,73
 102 204 102 204 140 204 c 0,74,75
 179 204 179 204 179 244 c 0,66,67
387 117 m 1,76,-1
 275 117 l 2,77,78
 117 117 117 117 117 73 c 0,79,80
 117 38 117 38 216 38 c 0,81,82
 348 38 348 38 387 117 c 1,76,-1
EndSplineSet
EndChar
StartChar: ch4
Encoding: 3357 3357 128
Width: 1055
GlyphClass: 2
Flags: W
HStem: -8 49<302 356 679 727 871 951> 334 50<209 278 397 466>
VStem: 61 53<118 221> 202 55<121 207> 397 60<124 196> 551 52<100 232> 778 55<117 377> 1005 51<111 253>
Fore
1056 185 m 0,0,1
 1056 104 1056 104 1018 51 c 0,2,3
 976 -8 976 -8 901 -8 c 0,4,5
 841 -8 841 -8 808 44 c 1,6,7
 795 21 795 21 768 6 c 128,-1,8
 741 -9 741 -9 712 -9 c 0,9,10
 646 -9 646 -9 598.5 30 c 128,-1,11
 551 69 551 69 551 130 c 2,12,-1
 551 208 l 2,13,14
 551 261 551 261 511.5 297.5 c 128,-1,15
 472 334 472 334 420 334 c 0,16,17
 399 334 399 334 377 327 c 1,18,19
 414 295 414 295 437 242 c 0,20,21
 457 194 457 194 457 154 c 0,22,23
 457 94 457 94 422 45 c 0,24,25
 384 -9 384 -9 329 -9 c 0,26,27
 275 -9 275 -9 237 41 c 0,28,29
 202 88 202 88 202 154 c 0,30,31
 202 259 202 259 286 325 c 1,32,33
 263 334 263 334 240 334 c 0,34,35
 185 334 185 334 149.5 287.5 c 128,-1,36
 114 241 114 241 114 178 c 0,37,38
 114 78 114 78 186 25 c 1,39,-1
 152 -10 l 1,40,41
 61 53 61 53 61 183 c 0,42,43
 61 258 61 258 106 315 c 0,44,45
 161 384 161 384 258 384 c 0,46,47
 299 384 299 384 332 358 c 1,48,49
 365 384 365 384 430 384 c 0,50,51
 503 384 503 384 553 341.5 c 128,-1,52
 603 299 603 299 603 232 c 2,53,-1
 603 150 l 2,54,55
 603 104 603 104 633 72.5 c 128,-1,56
 663 41 663 41 711 41 c 0,57,58
 742 41 742 41 761 71 c 0,59,60
 778 98 778 98 778 136 c 2,61,-1
 778 377 l 1,62,-1
 833 377 l 1,63,-1
 833 136 l 2,64,65
 833 100 833 100 849 73 c 0,66,67
 867 41 867 41 897 41 c 0,68,69
 1005 41 1005 41 1005 182 c 0,70,71
 1005 302 1005 302 918 350 c 1,72,-1
 953 385 l 1,73,74
 1056 322 1056 322 1056 185 c 0,0,1
397 154 m 0,75,76
 397 238 397 238 329 301 c 1,77,78
 257 248 257 248 257 154 c 0,79,80
 257 105 257 105 276.5 71.5 c 128,-1,81
 296 38 296 38 329 38 c 256,82,83
 362 38 362 38 381 77 c 0,84,85
 397 110 397 110 397 154 c 0,75,76
EndSplineSet
EndChar
StartChar: nj
Encoding: 3358 3358 129
Width: 921
GlyphClass: 2
Flags: W
HStem: -9 47<156 214 595 659> 181 45<161 219> 334 49<211 304 494 563 702 775>
VStem: 60 61<97 207> 250 55<86 137> 367 62<-2 271> 494 52<129 199> 703 57<123 193> 870 53<118 221>
Fore
923 183 m 0,0,1
 923 53 923 53 827 -10 c 1,2,-1
 796 22 l 1,3,4
 870 73 870 73 870 178 c 0,5,6
 870 240 870 240 826.5 287 c 128,-1,7
 783 334 783 334 722 334 c 0,8,9
 698 334 698 334 676 326 c 1,10,11
 715 295 715 295 739 241 c 0,12,13
 760 194 760 194 760 154 c 0,14,15
 760 91 760 91 728 45 c 0,16,17
 691 -9 691 -9 626 -9 c 0,18,19
 563 -9 563 -9 527 39 c 0,20,21
 493 83 493 83 494 149 c 0,22,23
 496 257 496 257 578 324 c 1,24,25
 553 334 553 334 533 334 c 0,26,27
 494 334 494 334 464 315 c 0,28,29
 429 292 429 292 429 251 c 2,30,-1
 429 -2 l 1,31,-1
 367 -2 l 1,32,-1
 367 251 l 2,33,34
 367 289 367 289 329 313 c 0,35,36
 296 334 296 334 254 334 c 0,37,38
 192 334 192 334 150 282 c 0,39,40
 114 237 114 237 110 178 c 1,41,42
 128 226 128 226 194 226 c 0,43,44
 244 226 244 226 274.5 193.5 c 128,-1,45
 305 161 305 161 305 112 c 0,46,47
 305 61 305 61 272.5 26 c 128,-1,48
 240 -9 240 -9 188 -9 c 0,49,50
 124 -9 124 -9 89 48 c 0,51,52
 60 95 60 95 60 160 c 0,53,54
 60 253 60 253 110 315 c 0,55,56
 165 383 165 383 258 383 c 0,57,58
 350 383 350 383 399 329 c 1,59,60
 445 383 445 383 543 383 c 0,61,62
 583 383 583 383 626 357 c 1,63,64
 672 383 672 383 731 383 c 0,65,66
 820 383 820 383 874 318 c 0,67,68
 923 259 923 259 923 183 c 0,0,1
703 154 m 0,69,70
 703 233 703 233 626 301 c 1,71,72
 546 244 546 244 546 154 c 0,73,74
 546 105 546 105 567.5 71.5 c 128,-1,75
 589 38 589 38 626 38 c 256,76,77
 663 38 663 38 684 77 c 0,78,79
 703 110 703 110 703 154 c 0,69,70
250 110 m 256,80,81
 250 139 250 139 233 160 c 128,-1,82
 216 181 216 181 186 181 c 256,83,84
 156 181 156 181 138.5 160.5 c 128,-1,85
 121 140 121 140 121 111 c 256,86,87
 121 82 121 82 138.5 60.5 c 128,-1,88
 156 39 156 39 186 39 c 0,89,90
 215 39 215 39 232.5 60 c 128,-1,91
 250 81 250 81 250 110 c 256,80,81
EndSplineSet
EndChar
StartChar: t1
Encoding: 3359 3359 130
Width: 404
GlyphClass: 2
Flags: W
HStem: -10 50<181 274> 159 53<199 309> 334 50<192 286>
VStem: 61 56<238 295> 350 55<79 134>
Fore
405 109 m 0,0,1
 405 49 405 49 354 18 c 0,2,3
 309 -10 309 -10 240 -10 c 0,4,5
 122 -10 122 -10 61 54 c 1,6,-1
 95 91 l 1,7,8
 141 40 141 40 239 40 c 0,9,10
 282 40 282 40 313 55 c 0,11,12
 350 74 350 74 350 109 c 0,13,14
 350 159 350 159 267 159 c 2,15,-1
 199 159 l 2,16,17
 137 159 137 159 99 187 c 128,-1,18
 61 215 61 215 61 265 c 0,19,20
 61 325 61 325 112 356 c 0,21,22
 157 384 157 384 227 384 c 0,23,24
 344 384 344 384 405 320 c 1,25,-1
 371 283 l 1,26,27
 324 334 324 334 227 334 c 0,28,29
 184 334 184 334 154 319 c 0,30,31
 117 300 117 300 117 265 c 0,32,33
 117 212 117 212 200 212 c 2,34,-1
 272 212 l 2,35,36
 330 212 330 212 366 188 c 0,37,38
 405 160 405 160 405 109 c 0,0,1
EndSplineSet
EndChar
StartChar: t2
Encoding: 3360 3360 131
Width: 458
GlyphClass: 2
Flags: W
HStem: -9 51<218 300> 334 50<218 300>
VStem: 61 51<147 229> 407 51<147 229>
Fore
458 188 m 0,0,1
 458 107 458 107 400 49 c 128,-1,2
 342 -9 342 -9 259 -9 c 0,3,4
 177 -9 177 -9 119 49 c 128,-1,5
 61 107 61 107 61 188 c 0,6,7
 61 270 61 270 119 327 c 128,-1,8
 177 384 177 384 259 384 c 0,9,10
 342 384 342 384 400 327 c 128,-1,11
 458 270 458 270 458 188 c 0,0,1
407 188 m 0,12,13
 407 249 407 249 364 291.5 c 128,-1,14
 321 334 321 334 259 334 c 0,15,16
 198 334 198 334 155 291.5 c 128,-1,17
 112 249 112 249 112 188 c 0,18,19
 112 128 112 128 155 85 c 128,-1,20
 198 42 198 42 259 42 c 0,21,22
 321 42 321 42 364 85 c 128,-1,23
 407 128 407 128 407 188 c 0,12,13
EndSplineSet
EndChar
StartChar: t3
Encoding: 3361 3361 132
Width: 886
GlyphClass: 2
Flags: W
HStem: -9 51<442 518 677 757> 334 50<186 262>
VStem: 60 49<116 224> 318 56<114 219> 566 58<116 377> 834 54<146 257>
Fore
888 187 m 0,0,1
 888 106 888 106 844 51 c 0,2,3
 797 -9 797 -9 718 -9 c 0,4,5
 636 -9 636 -9 596 52 c 1,6,7
 557 -9 557 -9 479 -9 c 0,8,9
 405 -9 405 -9 361.5 36 c 128,-1,10
 318 81 318 81 318 148 c 2,11,-1
 318 219 l 2,12,13
 318 265 318 265 293 299.5 c 128,-1,14
 268 334 268 334 225 334 c 0,15,16
 170 334 170 334 138 286 c 0,17,18
 109 243 109 243 109 181 c 0,19,20
 109 74 109 74 199 28 c 1,21,-1
 171 -11 l 1,22,23
 60 49 60 49 60 182 c 0,24,25
 60 266 60 266 101 322 c 0,26,27
 147 384 147 384 225 384 c 0,28,29
 299 384 299 384 339 328 c 0,30,31
 374 280 374 280 374 204 c 2,32,-1
 374 146 l 2,33,34
 374 100 374 100 398 73 c 0,35,36
 425 42 425 42 475 42 c 0,37,38
 515 42 515 42 540.5 68.5 c 128,-1,39
 566 95 566 95 566 136 c 2,40,-1
 566 377 l 1,41,-1
 624 377 l 1,42,-1
 624 136 l 2,43,44
 624 98 624 98 652.5 70 c 128,-1,45
 681 42 681 42 721 42 c 0,46,47
 775 42 775 42 807 88 c 0,48,49
 834 128 834 128 834 185 c 0,50,51
 834 299 834 299 748 347 c 1,52,-1
 776 388 l 1,53,54
 888 328 888 328 888 187 c 0,0,1
EndSplineSet
EndChar
StartChar: t4
Encoding: 3362 3362 133
Width: 912
GlyphClass: 2
Flags: W
HStem: -10 50<419 491 668 763> 146 48<750 795> 335 49<182 271 757 815>
VStem: 61 48<116 224> 307 51<112 205> 542 55<108 374> 664 54<239 290> 850 66<170 279>
Fore
916 216 m 0,0,1
 916 124 916 124 864 60 c 0,2,3
 808 -10 808 -10 718 -10 c 0,4,5
 618 -10 618 -10 570 47 c 1,6,7
 527 -9 527 -9 455 -9 c 256,8,9
 383 -9 383 -9 345 33.5 c 128,-1,10
 307 76 307 76 307 148 c 0,11,12
 307 245 307 245 301 268 c 0,13,14
 285 335 285 335 218 335 c 0,15,16
 162 335 162 335 133 283 c 0,17,18
 109 241 109 241 109 181 c 0,19,20
 109 77 109 77 196 31 c 1,21,-1
 172 -9 l 1,22,23
 61 50 61 50 61 182 c 0,24,25
 61 266 61 266 96 320 c 0,26,27
 139 384 139 384 224 384 c 0,28,29
 318 384 318 384 345 304 c 0,30,31
 358 264 358 264 358 146 c 0,32,33
 358 102 358 102 383 72 c 128,-1,34
 408 42 408 42 451 42 c 0,35,36
 490 42 490 42 516 72.5 c 128,-1,37
 542 103 542 103 542 142 c 2,38,-1
 542 374 l 1,39,-1
 597 374 l 1,40,-1
 597 130 l 2,41,42
 597 87 597 87 640 61 c 0,43,44
 676 40 676 40 722 40 c 0,45,46
 785 40 785 40 823 89 c 0,47,48
 856 131 856 131 861 197 c 1,49,50
 851 174 851 174 826 160 c 128,-1,51
 801 146 801 146 774 146 c 0,52,53
 725 146 725 146 694.5 180.5 c 128,-1,54
 664 215 664 215 664 264 c 0,55,56
 664 316 664 316 698 350 c 128,-1,57
 732 384 732 384 783 384 c 0,58,59
 848 384 848 384 885 331 c 0,60,61
 916 284 916 284 916 216 c 0,0,1
850 265 m 256,62,63
 850 294 850 294 830 314.5 c 128,-1,64
 810 335 810 335 782 335 c 0,65,66
 753 335 753 335 735.5 315 c 128,-1,67
 718 295 718 295 718 266 c 256,68,69
 718 237 718 237 735 217 c 0,70,71
 753 194 753 194 781 194 c 0,72,73
 810 194 810 194 830 215 c 128,-1,74
 850 236 850 236 850 265 c 256,62,63
EndSplineSet
EndChar
StartChar: nh
Encoding: 3363 3363 134
Width: 910
GlyphClass: 2
Flags: W
HStem: -10 49<122 209> 181 45<159 214> 334 50<216 306 473 553 700 782>
VStem: 60 59<75 208> 245 53<86 136> 363 59<0 288> 607 55<0 288> 859 53<121 231>
Fore
912 191 m 0,0,1
 912 50 912 50 801 -10 c 1,2,-1
 774 32 l 1,3,4
 859 77 859 77 859 193 c 0,5,6
 859 253 859 253 829 292 c 0,7,8
 796 334 796 334 738 334 c 0,9,10
 662 334 662 334 662 241 c 2,11,-1
 662 0 l 1,12,-1
 607 0 l 1,13,-1
 607 241 l 2,14,15
 607 286 607 286 580.5 310.5 c 128,-1,16
 554 335 554 335 513 335 c 0,17,18
 473 335 473 335 447.5 311 c 128,-1,19
 422 287 422 287 422 241 c 2,20,-1
 422 0 l 1,21,-1
 363 0 l 1,22,-1
 363 241 l 2,23,24
 363 334 363 334 249 334 c 0,25,26
 190 334 190 334 151.5 286.5 c 128,-1,27
 113 239 113 239 109 178 c 1,28,29
 127 226 127 226 190 226 c 0,30,31
 238 226 238 226 268 193 c 128,-1,32
 298 160 298 160 298 112 c 0,33,34
 298 61 298 61 266 25.5 c 128,-1,35
 234 -10 234 -10 184 -10 c 0,36,37
 60 -10 60 -10 60 160 c 0,38,39
 60 255 60 255 115 319.5 c 128,-1,40
 170 384 170 384 263 384 c 0,41,42
 346 384 346 384 391 331 c 1,43,44
 431 384 431 384 514 384 c 0,45,46
 591 384 591 384 634 332 c 1,47,48
 669 384 669 384 743 384 c 0,49,50
 821 384 821 384 869 326 c 0,51,52
 912 271 912 271 912 191 c 0,0,1
245 109 m 0,53,54
 245 138 245 138 228 159.5 c 128,-1,55
 211 181 211 181 183 181 c 0,56,57
 154 181 154 181 136.5 160.5 c 128,-1,58
 119 140 119 140 119 111 c 256,59,60
 119 82 119 82 136.5 60.5 c 128,-1,61
 154 39 154 39 182 39 c 0,62,63
 211 39 211 39 228 60 c 128,-1,64
 245 81 245 81 245 109 c 0,53,54
EndSplineSet
EndChar
StartChar: th1
Encoding: 3364 3364 135
Width: 657
GlyphClass: 2
Flags: W
HStem: -9 47<319 388> 334 49<224 303 433 508>
VStem: 60 52<118 221> 225 54<93 204> 435 58<119 171> 603 53<119 221>
Fore
656 183 m 0,0,1
 656 54 656 54 560 -10 c 1,2,-1
 528 23 l 1,3,4
 603 75 603 75 603 178 c 0,5,6
 603 240 603 240 559.5 287 c 128,-1,7
 516 334 516 334 454 334 c 0,8,9
 440 334 440 334 414 327 c 1,10,11
 453 296 453 296 475 239 c 0,12,13
 493 191 493 191 493 148 c 0,14,15
 493 89 493 89 457 42 c 0,16,17
 417 -9 417 -9 359 -9 c 0,18,19
 295 -9 295 -9 259 38 c 0,20,21
 225 81 225 81 225 148 c 0,22,23
 225 259 225 259 308 325 c 1,24,25
 283 334 283 334 257 334 c 0,26,27
 197 334 197 334 154.5 289 c 128,-1,28
 112 244 112 244 112 178 c 0,29,30
 112 74 112 74 189 22 c 1,31,-1
 156 -10 l 1,32,33
 60 53 60 53 60 183 c 0,34,35
 60 259 60 259 112 317 c 0,36,37
 172 383 172 383 276 383 c 0,38,39
 329 383 329 383 364 354 c 1,40,41
 401 383 401 383 464 383 c 0,42,43
 553 383 553 383 607 318 c 0,44,45
 656 259 656 259 656 183 c 0,0,1
435 148 m 0,46,47
 435 194 435 194 413.5 235.5 c 128,-1,48
 392 277 392 277 359 300 c 1,49,50
 322 275 322 275 300.5 233 c 128,-1,51
 279 191 279 191 279 148 c 0,52,53
 279 38 279 38 359 38 c 0,54,55
 396 38 396 38 417 74 c 0,56,57
 435 105 435 105 435 148 c 0,46,47
EndSplineSet
EndChar
StartChar: th2
Encoding: 3365 3365 136
Width: 566
GlyphClass: 2
Flags: W
HStem: 0 46<60 566> 334 50<364 434>
VStem: 60 55<0 378> 233 56<46 221> 511 55<0 258>
Fore
566 0 m 1,0,-1
 60 0 l 1,1,-1
 60 378 l 1,2,-1
 115 378 l 1,3,-1
 115 46 l 1,4,-1
 233 46 l 1,5,-1
 233 220 l 2,6,7
 233 288 233 288 281.5 336 c 128,-1,8
 330 384 330 384 399 384 c 0,9,10
 469 384 469 384 517.5 338 c 128,-1,11
 566 292 566 292 566 225 c 2,12,-1
 566 0 l 1,0,-1
511 46 m 1,13,-1
 511 222 l 2,14,15
 511 268 511 268 478 301 c 128,-1,16
 445 334 445 334 399 334 c 256,17,18
 353 334 353 334 321 300.5 c 128,-1,19
 289 267 289 267 289 221 c 2,20,-1
 289 46 l 1,21,-1
 511 46 l 1,13,-1
EndSplineSet
EndChar
StartChar: th3
Encoding: 3366 3366 137
Width: 424
GlyphClass: 2
Flags: W
HStem: -9 49<256 328> 164 51<232 333> 333 50<221 301>
VStem: 61 50<162 214> 371 54<77 134 242 298>
Fore
425 101 m 0,0,1
 425 52 425 52 389 21.5 c 128,-1,2
 353 -9 353 -9 302 -9 c 0,3,4
 248 -9 248 -9 225 1 c 1,5,-1
 225 51 l 1,6,7
 240 41 240 41 260 40 c 1,8,9
 252 40 252 40 298 40 c 0,10,11
 328 40 328 40 349.5 56.5 c 128,-1,12
 371 73 371 73 371 104 c 0,13,14
 371 164 371 164 294 164 c 2,15,-1
 232 164 l 1,16,-1
 232 215 l 1,17,-1
 293 215 l 2,18,19
 371 215 371 215 371 269 c 0,20,21
 371 302 371 302 337 319 c 0,22,23
 310 333 310 333 272 333 c 0,24,25
 195 333 195 333 152 283 c 0,26,27
 111 237 111 237 111 162 c 0,28,29
 110 93 110 93 150 6 c 1,30,-1
 102 -9 l 1,31,32
 60 82 60 82 61 166 c 0,33,34
 61 263 61 263 116 323 c 128,-1,35
 171 383 171 383 271 383 c 0,36,37
 332 383 332 383 375 356 c 0,38,39
 425 325 425 325 425 271 c 0,40,41
 425 245 425 245 409.5 220.5 c 128,-1,42
 394 196 394 196 372 189 c 1,43,44
 425 167 425 167 425 101 c 0,0,1
EndSplineSet
EndChar
StartChar: th4
Encoding: 3367 3367 138
Width: 638
GlyphClass: 2
Flags: W
HStem: -9 51<197 274 420 500> 355 20G<317 375>
VStem: 61 55<144 239> 317 58<115 375> 583 55<146 242>
Fore
638 187 m 0,0,1
 638 106 638 106 591 50 c 0,2,3
 541 -9 541 -9 460 -9 c 0,4,5
 381 -9 381 -9 347 48 c 1,6,7
 311 -10 311 -10 237 -10 c 0,8,9
 158 -10 158 -10 108 49 c 0,10,11
 61 104 61 104 61 183 c 0,12,13
 61 247 61 247 90 299 c 0,14,15
 121 356 121 356 180 384 c 1,16,-1
 206 342 l 1,17,18
 116 299 116 299 116 179 c 0,19,20
 116 121 116 121 149 83 c 0,21,22
 184 42 184 42 242 42 c 0,23,24
 276 42 276 42 297 72 c 0,25,26
 317 99 317 99 317 133 c 2,27,-1
 317 375 l 1,28,-1
 375 375 l 1,29,-1
 375 133 l 2,30,31
 375 97 375 97 399.5 69.5 c 128,-1,32
 424 42 424 42 461 42 c 0,33,34
 517 42 517 42 551 86 c 0,35,36
 583 126 583 126 583 183 c 0,37,38
 583 300 583 300 492 342 c 1,39,-1
 520 384 l 1,40,41
 578 357 578 357 610 301 c 0,42,43
 638 249 638 249 638 187 c 0,0,1
EndSplineSet
EndChar
StartChar: n1
Encoding: 3368 3368 139
Width: 638
GlyphClass: 2
Flags: W
HStem: 0 21G<325 382> 334 50<200 279 425 502>
VStem: 61 56<131 229> 325 57<0 264> 584 54<135 231>
Fore
638 192 m 0,0,1
 638 127 638 127 610 75 c 0,2,3
 579 18 579 18 520 -10 c 1,4,-1
 494 31 l 1,5,6
 584 75 584 75 584 195 c 0,7,8
 584 254 584 254 550 294 c 128,-1,9
 516 334 516 334 458 334 c 0,10,11
 423 334 423 334 402.5 308 c 128,-1,12
 382 282 382 282 382 246 c 2,13,-1
 382 0 l 1,14,-1
 325 0 l 1,15,-1
 325 246 l 2,16,17
 325 282 325 282 300.5 307.5 c 128,-1,18
 276 333 276 333 239 333 c 0,19,20
 183 333 183 333 148 289 c 0,21,22
 117 248 117 248 117 191 c 0,23,24
 117 72 117 72 211 29 c 1,25,-1
 180 -10 l 1,26,27
 122 18 122 18 90 74 c 0,28,29
 61 125 61 125 61 188 c 0,30,31
 61 269 61 269 109 324 c 0,32,33
 159 384 159 384 240 384 c 0,34,35
 318 384 318 384 353 330 c 1,36,37
 388 384 388 384 463 384 c 0,38,39
 542 384 542 384 592 326 c 0,40,41
 638 271 638 271 638 192 c 0,0,1
EndSplineSet
EndChar
StartChar: uni0D29
Encoding: 3369 3369 140
Width: 1000
GlyphClass: 2
Flags: W
HStem: -77 26<309 433> 489 29<309 433>
VStem: 73 24<159 283> 237 75<30 200> 636 32<159 283>
Fore
668 221 m 0,0,1
 668 97 668 97 581 10 c 128,-1,2
 494 -77 494 -77 371 -77 c 0,3,4
 247 -77 247 -77 160 10 c 128,-1,5
 73 97 73 97 73 221 c 0,6,7
 73 344 73 344 160 431 c 128,-1,8
 247 518 247 518 371 518 c 0,9,10
 494 518 494 518 581 431 c 128,-1,11
 668 344 668 344 668 221 c 0,0,1
636 219 m 256,12,13
 636 331 636 331 557 410 c 128,-1,14
 478 489 478 489 367 489 c 0,15,16
 255 489 255 489 176 410 c 128,-1,17
 97 331 97 331 97 219 c 256,18,19
 97 107 97 107 176 28 c 128,-1,20
 255 -51 255 -51 367 -51 c 0,21,22
 478 -51 478 -51 557 28 c 128,-1,23
 636 107 636 107 636 219 c 256,12,13
526 68 m 1,24,-1
 455 -3 l 1,25,26
 445 10 445 10 438 50 c 0,27,28
 432 85 432 85 416 101 c 0,29,30
 406 111 406 111 393 132 c 128,-1,31
 380 153 380 153 368.5 165 c 128,-1,32
 357 177 357 177 344 183 c 1,33,34
 332 183 332 183 312 184 c 1,35,36
 311 141 311 141 311 104 c 1,37,-1
 237 30 l 1,38,39
 237 125 237 125 248 334 c 1,40,-1
 277 363 l 1,41,42
 252 362 252 362 232 359 c 1,43,-1
 307 434 l 1,44,45
 327 437 327 437 352 437 c 0,46,47
 466 437 466 437 507 395 c 0,48,49
 523 380 523 380 523 334 c 0,50,51
 523 286 523 286 509 272 c 2,52,-1
 455 218 l 1,53,54
 464 201 464 201 490 169 c 0,55,56
 506 153 506 153 512 118 c 0,57,58
 518 80 518 80 526 68 c 1,24,-1
449 258 m 1,59,60
 452 307 452 307 436 325 c 0,61,62
 404 355 404 355 320 361 c 1,63,64
 314 260 314 260 312 200 c 1,65,-1
 370 258 l 1,66,67
 388 268 388 268 411 257 c 1,68,69
 433 256 433 256 449 258 c 1,59,60
EndSplineSet
EndChar
StartChar: p1
Encoding: 3370 3370 141
Width: 588
GlyphClass: 2
Flags: W
HStem: 0 45<255 588> 206 51<179 239> 354 20G<534 588>
VStem: 61 50<77 147> 304 54<116 135> 534 54<0 374>
Fore
588 0 m 1,0,-1
 255 0 l 1,1,-1
 254 32 l 1,2,3
 305 58 305 58 304 116 c 0,4,5
 304 154 304 154 275.5 180 c 128,-1,6
 247 206 247 206 208 206 c 256,7,8
 169 206 169 206 140 180.5 c 128,-1,9
 111 155 111 155 111 118 c 0,10,11
 111 62 111 62 160 39 c 1,12,-1
 137 -3 l 1,13,14
 61 35 61 35 61 118 c 0,15,16
 61 177 61 177 105 217 c 128,-1,17
 149 257 149 257 209 257 c 0,18,19
 270 257 270 257 315.5 216.5 c 128,-1,20
 361 176 361 176 358 118 c 0,21,22
 356 76 356 76 337 45 c 1,23,-1
 534 45 l 1,24,-1
 534 374 l 1,25,-1
 588 374 l 1,26,-1
 588 0 l 1,0,-1
EndSplineSet
EndChar
StartChar: p2
Encoding: 3371 3371 142
Width: 785
GlyphClass: 2
Flags: W
HStem: 0 45<255 786> 209 48<179 241> 334 49<586 657>
VStem: 61 48<77 147> 307 49<86 148> 461 55<45 219> 735 51<0 255>
Fore
786 0 m 1,0,-1
 255 0 l 1,1,-1
 255 29 l 1,2,3
 307 56 307 56 307 116 c 0,4,5
 307 155 307 155 278 182 c 128,-1,6
 249 209 249 209 208 209 c 0,7,8
 168 209 168 209 138.5 183 c 128,-1,9
 109 157 109 157 109 118 c 0,10,11
 108 60 108 60 160 35 c 1,12,-1
 137 -3 l 1,13,14
 61 35 61 35 61 118 c 0,15,16
 61 177 61 177 105 217 c 128,-1,17
 149 257 149 257 209 257 c 0,18,19
 273 257 273 257 314.5 217.5 c 128,-1,20
 356 178 356 178 356 118 c 0,21,22
 356 68 356 68 336 45 c 1,23,-1
 461 45 l 1,24,-1
 461 218 l 2,25,26
 461 288 461 288 505 335.5 c 128,-1,27
 549 383 549 383 623 383 c 0,28,29
 691 383 691 383 738.5 336 c 128,-1,30
 786 289 786 289 786 222 c 2,31,-1
 786 0 l 1,0,-1
735 45 m 1,32,-1
 735 219 l 2,33,34
 735 267 735 267 702 301 c 128,-1,35
 669 335 669 335 623 334 c 0,36,37
 577 334 577 334 546.5 299.5 c 128,-1,38
 516 265 516 265 516 219 c 2,39,-1
 516 45 l 1,40,-1
 735 45 l 1,32,-1
EndSplineSet
EndChar
StartChar: p3
Encoding: 3372 3372 143
Width: 825
GlyphClass: 2
Flags: W
HStem: -9 50<120 206> 0 45<535 827> 179 47<158 215> 334 49<217 310 473 546>
VStem: 60 59<72 202> 243 54<84 135> 371 57<0 271> 618 55<145 228> 772 55<0 374>
Fore
827 0 m 1,0,-1
 535 0 l 1,1,-1
 535 32 l 1,2,3
 574 60 574 60 597 107 c 0,4,5
 618 151 618 151 618 196 c 0,6,7
 618 252 618 252 591 290 c 0,8,9
 561 334 561 334 507 334 c 0,10,11
 470 334 470 334 449 309 c 128,-1,12
 428 284 428 284 428 246 c 2,13,-1
 428 0 l 1,14,-1
 371 0 l 1,15,-1
 371 251 l 2,16,17
 371 292 371 292 333 314 c 0,18,19
 300 334 300 334 254 334 c 0,20,21
 190 334 190 334 151 285 c 0,22,23
 117 244 117 244 108 178 c 1,24,25
 125 226 125 226 190 226 c 0,26,27
 240 226 240 226 268.5 193 c 128,-1,28
 297 160 297 160 297 110 c 0,29,30
 297 59 297 59 264.5 25 c 128,-1,31
 232 -9 232 -9 180 -9 c 0,32,33
 60 -9 60 -9 60 153 c 0,34,35
 60 250 60 250 111 313 c 0,36,37
 168 383 168 383 266 383 c 0,38,39
 354 383 354 383 398 333 c 1,40,41
 445 383 445 383 501 383 c 0,42,43
 591 383 591 383 635 322 c 0,44,45
 673 271 673 271 673 185 c 0,46,47
 673 104 673 104 624 45 c 1,48,-1
 772 45 l 1,49,-1
 772 374 l 1,50,-1
 827 374 l 1,51,-1
 827 0 l 1,0,-1
243 108 m 0,52,53
 243 138 243 138 227 158.5 c 128,-1,54
 211 179 211 179 182 179 c 256,55,56
 153 179 153 179 136 159 c 128,-1,57
 119 139 119 139 119 109 c 0,58,59
 119 80 119 80 135.5 60.5 c 128,-1,60
 152 41 152 41 181 41 c 256,61,62
 210 41 210 41 226.5 60 c 128,-1,63
 243 79 243 79 243 108 c 0,52,53
EndSplineSet
EndChar
StartChar: p4
Encoding: 3373 3373 144
Width: 440
GlyphClass: 2
Flags: W
HStem: -9 49<268 335> 102 52<270 358> 203 54<333 346> 206 52<273 294> 335 50<228 359>
VStem: 61 51<125 172> 192 58<161 193> 384 59<44 88 282 282>
Fore
443 71 m 0,0,1
 443 18 443 18 397 1 c 0,2,3
 369 -9 369 -9 301 -9 c 0,4,5
 234 -9 234 -9 194 6 c 1,6,-1
 189 61 l 1,7,8
 231 40 231 40 311 40 c 0,9,10
 349 40 349 40 359 42 c 0,11,12
 384 48 384 48 384 71 c 0,13,14
 384 102 384 102 333 102 c 2,15,-1
 270 102 l 2,16,17
 238 101 238 101 215 123 c 128,-1,18
 192 145 192 145 192 177 c 0,19,20
 192 210 192 210 217.5 234.5 c 128,-1,21
 243 259 243 259 273 258 c 2,22,-1
 333 257 l 2,23,24
 363 256 363 256 372 259 c 0,25,26
 385 264 385 264 384 283 c 0,27,28
 383 312 383 312 344 325 c 0,29,30
 315 335 315 335 278 335 c 0,31,32
 197 335 197 335 154 286.5 c 128,-1,33
 111 238 111 238 112 156 c 0,34,35
 112 99 112 99 145 4 c 1,36,-1
 96 -13 l 1,37,38
 61 77 61 77 61 172 c 0,39,40
 60 271 60 271 118.5 328 c 128,-1,41
 177 385 177 385 279 385 c 0,42,43
 439 385 439 385 442 282 c 0,44,45
 443 249 443 249 415 225 c 128,-1,46
 387 201 387 201 346 203 c 2,47,-1
 294 206 l 2,48,49
 250 208 250 208 250 178 c 0,50,51
 250 157 250 157 267 153 c 0,52,53
 273 152 273 152 299 152 c 2,54,-1
 349 154 l 2,55,56
 386 155 386 155 414.5 130 c 128,-1,57
 443 105 443 105 443 71 c 0,0,1
EndSplineSet
EndChar
StartChar: m1
Encoding: 3374 3374 145
Width: 432
GlyphClass: 2
Flags: W
HStem: 0 46<60 432> 326 58<154 340>
VStem: 60 51<0 278> 256 58<196 288> 380 52<0 280>
Fore
432 0 m 1,0,-1
 60 0 l 1,1,-1
 60 173 l 2,2,3
 60 384 60 384 248 384 c 0,4,5
 432 384 432 384 432 177 c 2,6,-1
 432 0 l 1,0,-1
380 46 m 1,7,-1
 380 177 l 2,8,9
 380 319 380 319 272 335 c 1,10,11
 314 315 314 315 314 246 c 0,12,13
 314 203 314 203 287 152 c 0,14,15
 256 90 256 90 197 46 c 1,16,-1
 380 46 l 1,7,-1
256 250 m 0,17,18
 256 326 256 326 207 326 c 0,19,20
 169 326 169 326 142 291 c 0,21,22
 111 250 111 250 111 177 c 2,23,-1
 111 50 l 1,24,25
 256 142 256 142 256 250 c 0,17,18
EndSplineSet
EndChar
StartChar: y1
Encoding: 3375 3375 146
Width: 702
GlyphClass: 2
Flags: W
HStem: -11 46<250 303 449 523> 333 50<159 220 366 439>
VStem: 62 54<167 254> 253 53<160 275> 494 56<184 256> 649 54<162 262>
Fore
703 208 m 0,0,1
 703 116 703 116 647 55 c 0,2,3
 586 -10 586 -10 479 -11 c 0,4,5
 419 -11 419 -11 396 11 c 1,6,7
 366 -11 366 -11 303 -10 c 0,8,9
 197 -10 197 -10 129.5 53 c 128,-1,10
 62 116 62 116 62 218 c 0,11,12
 62 290 62 290 96.5 336.5 c 128,-1,13
 131 383 131 383 186 383 c 0,14,15
 254 383 254 383 285 329 c 1,16,17
 323 383 323 383 409 383 c 0,18,19
 469 383 469 383 509.5 335.5 c 128,-1,20
 550 288 550 288 550 225 c 0,21,22
 552 106 552 106 457 38 c 1,23,24
 473 35 473 35 491 35 c 0,25,26
 555 35 555 35 601 82 c 0,27,28
 649 133 649 133 649 210 c 0,29,30
 649 295 649 295 590 348 c 1,31,-1
 632 383 l 1,32,33
 703 315 703 315 703 208 c 0,0,1
494 207 m 0,34,35
 494 262 494 262 472 296 c 0,36,37
 447 333 447 333 400 333 c 0,38,39
 352 333 352 333 326 294 c 0,40,41
 306 261 306 261 306 213 c 0,42,43
 306 107 306 107 398 59 c 1,44,45
 438 77 438 77 466 118.5 c 128,-1,46
 494 160 494 160 494 207 c 0,34,35
340 39 m 1,47,48
 253 108 253 108 253 218 c 0,49,50
 253 333 253 333 186 333 c 0,51,52
 156 333 156 333 136 297 c 128,-1,53
 116 261 116 261 116 218 c 0,54,55
 116 138 116 138 168 87 c 128,-1,56
 220 36 220 36 298 35 c 0,57,58
 322 34 322 34 340 39 c 1,47,48
EndSplineSet
EndChar
StartChar: r3
Encoding: 3376 3376 147
Width: 493
GlyphClass: 2
Flags: W
HStem: -9 52<309 373> 235 53<332 372> 334 50<232 332>
VStem: 216 52<141 141 145 145> 434 58<139 139 156 156>
Fore
492 156 m 0,0,1
 487 89 487 89 448 43 c 0,2,3
 405 -9 405 -9 340 -9 c 0,4,5
 278 -9 278 -9 245 33 c 128,-1,6
 212 75 212 75 216 141 c 0,7,8
 220 206 220 206 260 247 c 128,-1,9
 300 288 300 288 363 288 c 0,10,11
 381 288 381 288 400 283 c 1,12,13
 360 334 360 334 284 334 c 0,14,15
 213 334 213 334 165.5 290 c 128,-1,16
 118 246 118 246 113 172 c 0,17,18
 108 81 108 81 180 26 c 1,19,-1
 145 -8 l 1,20,21
 55 62 55 62 62 177 c 0,22,23
 68 271 68 271 126 327.5 c 128,-1,24
 184 384 184 384 281 384 c 0,25,26
 382 384 382 384 440 319 c 128,-1,27
 498 254 498 254 492 156 c 0,0,1
434 139 m 0,28,29
 437 192 437 192 423 225 c 1,30,31
 412 233 412 233 367 235 c 0,32,33
 326 237 326 237 298.5 209.5 c 128,-1,34
 271 182 271 182 268 145 c 0,35,36
 265 105 265 105 284 76 c 0,37,38
 305 43 305 43 344 43 c 0,39,40
 384 43 384 43 409 72 c 0,41,42
 431 99 431 99 434 139 c 0,28,29
EndSplineSet
EndChar
StartChar: rh
Encoding: 3377 3377 148
Width: 450
GlyphClass: 2
Flags: W
HStem: 333 50<217 302>
VStem: 61 49<123 222> 404 51<123 222>
Fore
455 178 m 0,0,1
 455 115 455 115 421.5 65.5 c 128,-1,2
 388 16 388 16 327 -9 c 1,3,-1
 305 31 l 1,4,5
 404 68 404 68 404 178 c 0,6,7
 404 243 404 243 361.5 288 c 128,-1,8
 319 333 319 333 256 333 c 256,9,10
 193 333 193 333 151.5 288 c 128,-1,11
 110 243 110 243 110 178 c 0,12,13
 110 67 110 67 210 31 c 1,14,-1
 187 -9 l 1,15,16
 126 15 126 15 93.5 65 c 128,-1,17
 61 115 61 115 61 178 c 0,18,19
 61 265 61 265 118 324 c 128,-1,20
 175 383 175 383 259 383 c 0,21,22
 345 383 345 383 400 324.5 c 128,-1,23
 455 266 455 266 455 178 c 0,0,1
EndSplineSet
EndChar
StartChar: l3
Encoding: 3378 3378 149
Width: 587
GlyphClass: 2
Flags: W
HStem: 0 46<61 588> 120 47<117 407> 334 49<199 273>
VStem: 61 57<0 260> 351 56<120 262> 533 55<0 374>
Fore
588 0 m 1,0,-1
 61 0 l 1,1,-1
 61 227 l 2,2,3
 61 293 61 293 112.5 338 c 128,-1,4
 164 383 164 383 234 383 c 0,5,6
 312 383 312 383 359.5 339.5 c 128,-1,7
 407 296 407 296 407 227 c 2,8,-1
 407 120 l 1,9,-1
 117 120 l 1,10,-1
 117 46 l 1,11,-1
 533 46 l 1,12,-1
 533 374 l 1,13,-1
 588 374 l 1,14,-1
 588 0 l 1,0,-1
351 167 m 1,15,-1
 351 212 l 2,16,17
 351 264 351 264 322 298 c 0,18,19
 290 334 290 334 235 334 c 0,20,21
 184 334 184 334 151 301 c 128,-1,22
 118 268 118 268 118 212 c 2,23,-1
 118 167 l 1,24,-1
 351 167 l 1,15,-1
EndSplineSet
EndChar
StartChar: lh
Encoding: 3379 3379 150
Width: 488
GlyphClass: 2
Flags: W
HStem: -143 47<157 480> 0 46<182 398> 67 46<147 199> 161 51<344 403> 214 49<159 202> 335 50<236 321>
VStem: 59 61<153 247> 72 52<-72 -2> 225 58<141 185> 434 57<75 134 234 294>
Fore
491 103 m 0,0,1
 491 62 491 62 460 33 c 0,2,3
 426 0 426 0 370 0 c 2,4,-1
 189 0 l 2,5,6
 163 0 163 0 145 -12 c 0,7,8
 124 -26 124 -26 124 -50 c 0,9,10
 124 -72 124 -72 146 -85 c 0,11,12
 164 -96 164 -96 189 -96 c 2,13,-1
 480 -96 l 1,14,-1
 480 -143 l 1,15,-1
 180 -143 l 2,16,17
 134 -143 134 -143 103 -118.5 c 128,-1,18
 72 -94 72 -94 72 -50 c 0,19,20
 72 46 72 46 182 46 c 2,21,-1
 358 46 l 2,22,23
 434 46 434 46 434 104 c 0,24,25
 434 161 434 161 372 161 c 2,26,-1
 344 161 l 1,27,-1
 344 212 l 1,28,-1
 372 212 l 2,29,30
 432 212 432 212 432 261 c 0,31,32
 432 301 432 301 369 321 c 0,33,34
 324 335 324 335 274 335 c 0,35,36
 214 335 214 335 168 308 c 0,37,38
 118 278 118 278 107 225 c 1,39,40
 137 263 137 263 180 263 c 256,41,42
 223 263 223 263 253 234.5 c 128,-1,43
 283 206 283 206 283 163 c 0,44,45
 283 119 283 119 252 93 c 128,-1,46
 221 67 221 67 176 67 c 0,47,48
 119 67 119 67 88 107 c 0,49,50
 59 143 59 143 59 201 c 0,51,52
 59 293 59 293 128 342 c 0,53,54
 188 385 188 385 284 385 c 0,55,56
 359 385 359 385 415 360 c 0,57,58
 489 327 489 327 489 261 c 0,59,60
 489 207 489 207 441 185 c 1,61,62
 491 165 491 165 491 103 c 0,0,1
225 162 m 0,63,64
 225 185 225 185 210.5 199.5 c 128,-1,65
 196 214 196 214 173 214 c 0,66,67
 151 214 151 214 135.5 200.5 c 128,-1,68
 120 187 120 187 120 165 c 0,69,70
 120 142 120 142 136 127.5 c 128,-1,71
 152 113 152 113 175 113 c 0,72,73
 197 113 197 113 211 127 c 128,-1,74
 225 141 225 141 225 162 c 0,63,64
EndSplineSet
EndChar
StartChar: zh
Encoding: 3380 3380 151
Width: 440
GlyphClass: 2
Flags: W
HStem: -9 47<169 229> 335 49<294 352>
VStem: 195 56<235 287> 260 55<59 85> 389 52<228 286>
Fore
441 259 m 0,0,1
 441 214 441 214 406 177 c 0,2,3
 367 136 367 136 300 124 c 1,4,5
 315 85 315 85 315 78 c 0,6,7
 315 39 315 39 282.5 15 c 128,-1,8
 250 -9 250 -9 207 -9 c 0,9,10
 132 -9 132 -9 98 47 c 1,11,-1
 128 85 l 1,12,13
 160 38 160 38 202 38 c 0,14,15
 225 38 225 38 242.5 49 c 128,-1,16
 260 60 260 60 260 79 c 0,17,18
 260 92 260 92 250 114 c 1,19,20
 236 112 236 112 222 112 c 0,21,22
 153 112 153 112 107.5 155 c 128,-1,23
 62 198 62 198 62 259 c 0,24,25
 61 336 61 336 123 387 c 1,26,-1
 157 359 l 1,27,28
 106 328 106 328 110 257 c 0,29,30
 113 204 113 204 154 179 c 0,31,32
 187 158 187 158 229 161 c 1,33,34
 195 211 195 211 195 262 c 0,35,36
 195 311 195 311 231 347.5 c 128,-1,37
 267 384 267 384 322 384 c 0,38,39
 381 384 381 384 413 345 c 0,40,41
 441 312 441 312 441 259 c 0,0,1
389 265 m 0,42,43
 389 295 389 295 372 315 c 128,-1,44
 355 335 355 335 325 335 c 0,45,46
 291 335 291 335 271 313 c 128,-1,47
 251 291 251 291 251 261 c 0,48,49
 251 209 251 209 281 169 c 1,50,51
 389 191 389 191 389 265 c 0,42,43
EndSplineSet
EndChar
StartChar: v1
Encoding: 3381 3381 152
Width: 603
GlyphClass: 2
Flags: W
HStem: 0 46<311 604> 333 51<216 301>
VStem: 59 49<114 226> 400 50<137 229> 549 55<0 375>
Fore
604 0 m 1,0,-1
 311 0 l 1,1,-1
 311 40 l 1,2,3
 400 89 400 89 400 185 c 0,4,5
 400 249 400 249 358 291 c 128,-1,6
 316 333 316 333 253 333 c 0,7,8
 189 333 189 333 148.5 290 c 128,-1,9
 108 247 108 247 108 182 c 0,10,11
 108 72 108 72 207 35 c 1,12,-1
 183 -7 l 1,13,14
 59 45 59 45 59 183 c 0,15,16
 59 269 59 269 116.5 326.5 c 128,-1,17
 174 384 174 384 259 384 c 0,18,19
 343 384 343 384 396.5 328 c 128,-1,20
 450 272 450 272 450 186 c 0,21,22
 450 89 450 89 396 46 c 1,23,-1
 549 46 l 1,24,-1
 549 375 l 1,25,-1
 604 375 l 1,26,-1
 604 0 l 1,0,-1
EndSplineSet
EndChar
StartChar: z1
Encoding: 3382 3382 153
Width: 693
GlyphClass: 2
Flags: W
HStem: -9 51<188 260 509 578> 235 53<529 587> 334 50<442 527>
VStem: 61 55<145 255> 311 58<134 259> 416 55<93 171>
Fore
694 156 m 0,0,1
 694 90 694 90 655 42 c 0,2,3
 612 -9 612 -9 544 -9 c 0,4,5
 483 -9 483 -9 448 37 c 0,6,7
 416 79 416 79 416 141 c 0,8,9
 416 202 416 202 458 245 c 128,-1,10
 500 288 500 288 559 288 c 0,11,12
 582 288 582 288 602 283 c 1,13,14
 559 334 559 334 485 334 c 0,15,16
 436 334 436 334 402.5 298 c 128,-1,17
 369 262 369 262 369 213 c 2,18,-1
 369 134 l 2,19,20
 369 72 369 72 333 33 c 0,21,22
 294 -9 294 -9 226 -9 c 0,23,24
 149 -9 149 -9 103 50 c 0,25,26
 61 105 61 105 61 184 c 0,27,28
 61 326 61 326 173 386 c 1,29,-1
 201 345 l 1,30,31
 116 297 116 297 116 192 c 0,32,33
 116 136 116 136 144 93 c 0,34,35
 175 42 175 42 228 42 c 0,36,37
 279 42 279 42 298 80 c 0,38,39
 311 106 311 106 311 160 c 2,40,-1
 311 226 l 2,41,42
 311 292 311 292 360.5 338 c 128,-1,43
 410 384 410 384 475 384 c 0,44,45
 580 384 580 384 639 318 c 0,46,47
 694 256 694 256 694 156 c 0,0,1
637 139 m 0,48,49
 641 196 641 196 627 225 c 1,50,51
 612 235 612 235 563 235 c 0,52,53
 525 235 525 235 498 208.5 c 128,-1,54
 471 182 471 182 471 145 c 0,55,56
 471 42 471 42 548 42 c 0,57,58
 588 42 588 42 612 72 c 0,59,60
 634 99 634 99 637 139 c 0,48,49
EndSplineSet
EndChar
StartChar: sh
Encoding: 3383 3383 154
Width: 755
GlyphClass: 2
Flags: W
HStem: 0 45<255 755> 209 48<179 239> 335 48<439 514>
VStem: 61 48<77 147> 307 51<86 147> 355 50<244 296> 509 58<45 134 184 327> 704 51<0 375>
Fore
755 0 m 1,0,-1
 255 0 l 1,1,-1
 255 29 l 1,2,3
 307 56 307 56 307 116 c 0,4,5
 307 155 307 155 278 182 c 128,-1,6
 249 209 249 209 208 209 c 0,7,8
 168 209 168 209 138.5 183 c 128,-1,9
 109 157 109 157 109 118 c 0,10,11
 109 61 109 61 159 37 c 1,12,-1
 134 -3 l 1,13,14
 61 36 61 36 61 118 c 0,15,16
 61 177 61 177 105 217 c 128,-1,17
 149 257 149 257 209 257 c 256,18,19
 269 257 269 257 313.5 216.5 c 128,-1,20
 358 176 358 176 358 118 c 0,21,22
 358 71 358 71 336 45 c 1,23,-1
 509 45 l 1,24,-1
 509 134 l 1,25,26
 446 143 446 143 405 174 c 0,27,28
 355 212 355 212 355 275 c 0,29,30
 355 318 355 318 386 350.5 c 128,-1,31
 417 383 417 383 461 383 c 0,32,33
 567 383 567 383 567 270 c 2,34,-1
 567 184 l 1,35,36
 696 194 696 194 724 375 c 1,37,-1
 755 375 l 1,38,-1
 755 0 l 1,0,-1
704 45 m 1,39,-1
 704 204 l 1,40,41
 691 181 691 181 649 158 c 0,42,43
 604 134 604 134 567 134 c 1,44,-1
 567 45 l 1,45,-1
 704 45 l 1,39,-1
509 281 m 2,46,47
 509 304 509 304 492 319.5 c 128,-1,48
 475 335 475 335 456 335 c 0,49,50
 435 335 435 335 420 316.5 c 128,-1,51
 405 298 405 298 405 274 c 0,52,53
 405 239 405 239 434.5 214 c 128,-1,54
 464 189 464 189 509 185 c 1,55,-1
 509 281 l 2,46,47
EndSplineSet
EndChar
StartChar: s1
Encoding: 3384 3384 155
Width: 884
GlyphClass: 2
Flags: W
HStem: -9 51<687 767> 333 52<190 273 426 519>
VStem: 60 53<120 229> 325 60<-2 286> 569 62<131 232> 833 52<149 261>
Fore
885 193 m 0,0,1
 885 105 885 105 850 53 c 0,2,3
 809 -9 809 -9 725 -9 c 0,4,5
 648 -9 648 -9 607 44 c 0,6,7
 569 92 569 92 569 170 c 2,8,-1
 569 232 l 2,9,10
 569 333 569 333 468 333 c 0,11,12
 385 333 385 333 385 239 c 2,13,-1
 385 -2 l 1,14,-1
 325 -2 l 1,15,-1
 325 239 l 2,16,17
 325 284 325 284 297 309 c 128,-1,18
 269 334 269 334 227 334 c 0,19,20
 172 334 172 334 141 288 c 0,21,22
 113 247 113 247 113 190 c 0,23,24
 113 75 113 75 201 30 c 1,25,-1
 171 -11 l 1,26,27
 60 50 60 50 60 189 c 0,28,29
 60 269 60 269 104 325 c 0,30,31
 151 385 151 385 229 385 c 0,32,33
 317 385 317 385 355 332 c 1,34,35
 391 385 391 385 464 385 c 0,36,37
 542 385 542 385 586.5 341.5 c 128,-1,38
 631 298 631 298 631 227 c 2,39,-1
 631 157 l 2,40,41
 631 107 631 107 654 76 c 0,42,43
 679 42 679 42 726 42 c 0,44,45
 782 42 782 42 810 90 c 0,46,47
 833 129 833 129 833 194 c 0,48,49
 833 305 833 305 736 349 c 1,50,-1
 765 387 l 1,51,52
 885 329 885 329 885 193 c 0,0,1
EndSplineSet
EndChar
StartChar: h1
Encoding: 3385 3385 156
Width: 789
GlyphClass: 2
Flags: W
HStem: 1 45<254 542> 208 52<179 241> 334 50<561 641>
VStem: 61 50<76 148> 303 51<84 149> 408 56<146 233> 732 57<116 227>
Fore
789 185 m 0,0,1
 789 47 789 47 665 -5 c 1,2,-1
 642 38 l 1,3,4
 732 80 732 80 732 185 c 0,5,6
 732 247 732 247 695.5 290.5 c 128,-1,7
 659 334 659 334 601 334 c 0,8,9
 542 334 542 334 503 294 c 128,-1,10
 464 254 464 254 464 191 c 0,11,12
 464 146 464 146 482 102 c 0,13,14
 504 49 504 49 542 34 c 1,15,-1
 542 1 l 1,16,-1
 254 1 l 1,17,-1
 254 30 l 1,18,19
 303 52 303 52 303 116 c 0,20,21
 303 155 303 155 275 181.5 c 128,-1,22
 247 208 247 208 207 208 c 0,23,24
 168 208 168 208 139.5 183 c 128,-1,25
 111 158 111 158 111 119 c 0,26,27
 111 61 111 61 159 35 c 1,28,-1
 136 -6 l 1,29,30
 61 32 61 32 61 119 c 0,31,32
 61 177 61 177 105 218.5 c 128,-1,33
 149 260 149 260 208 260 c 0,34,35
 273 260 273 260 313.5 219.5 c 128,-1,36
 354 179 354 179 354 119 c 0,37,38
 354 69 354 69 334 46 c 1,39,-1
 453 46 l 1,40,41
 408 102 408 102 408 191 c 0,42,43
 408 276 408 276 464 330 c 128,-1,44
 520 384 520 384 601 384 c 0,45,46
 680 384 680 384 734.5 326 c 128,-1,47
 789 268 789 268 789 185 c 0,0,1
EndSplineSet
EndChar
StartChar: uni0D3A
Encoding: 3386 3386 157
Width: 1000
GlyphClass: 2
Flags: W
HStem: -77 26<309 433> 489 29<309 433>
VStem: 73 24<159 283> 237 75<30 200> 636 32<159 283>
Fore
668 221 m 0,0,1
 668 97 668 97 581 10 c 128,-1,2
 494 -77 494 -77 371 -77 c 0,3,4
 247 -77 247 -77 160 10 c 128,-1,5
 73 97 73 97 73 221 c 0,6,7
 73 344 73 344 160 431 c 128,-1,8
 247 518 247 518 371 518 c 0,9,10
 494 518 494 518 581 431 c 128,-1,11
 668 344 668 344 668 221 c 0,0,1
636 219 m 256,12,13
 636 331 636 331 557 410 c 128,-1,14
 478 489 478 489 367 489 c 0,15,16
 255 489 255 489 176 410 c 128,-1,17
 97 331 97 331 97 219 c 256,18,19
 97 107 97 107 176 28 c 128,-1,20
 255 -51 255 -51 367 -51 c 0,21,22
 478 -51 478 -51 557 28 c 128,-1,23
 636 107 636 107 636 219 c 256,12,13
526 68 m 1,24,-1
 455 -3 l 1,25,26
 445 10 445 10 438 50 c 0,27,28
 432 85 432 85 416 101 c 0,29,30
 406 111 406 111 393 132 c 128,-1,31
 380 153 380 153 368.5 165 c 128,-1,32
 357 177 357 177 344 183 c 1,33,34
 332 183 332 183 312 184 c 1,35,36
 311 141 311 141 311 104 c 1,37,-1
 237 30 l 1,38,39
 237 125 237 125 248 334 c 1,40,-1
 277 363 l 1,41,42
 252 362 252 362 232 359 c 1,43,-1
 307 434 l 1,44,45
 327 437 327 437 352 437 c 0,46,47
 466 437 466 437 507 395 c 0,48,49
 523 380 523 380 523 334 c 0,50,51
 523 286 523 286 509 272 c 2,52,-1
 455 218 l 1,53,54
 464 201 464 201 490 169 c 0,55,56
 506 153 506 153 512 118 c 0,57,58
 518 80 518 80 526 68 c 1,24,-1
449 258 m 1,59,60
 452 307 452 307 436 325 c 0,61,62
 404 355 404 355 320 361 c 1,63,64
 314 260 314 260 312 200 c 1,65,-1
 370 258 l 1,66,67
 388 268 388 268 411 257 c 1,68,69
 433 256 433 256 449 258 c 1,59,60
EndSplineSet
EndChar
StartChar: uni0D3B
Encoding: 3387 3387 158
Width: 1000
GlyphClass: 2
Flags: W
HStem: -77 26<309 433> 489 29<309 433>
VStem: 73 24<159 283> 237 75<30 200> 636 32<159 283>
Fore
668 221 m 0,0,1
 668 97 668 97 581 10 c 128,-1,2
 494 -77 494 -77 371 -77 c 0,3,4
 247 -77 247 -77 160 10 c 128,-1,5
 73 97 73 97 73 221 c 0,6,7
 73 344 73 344 160 431 c 128,-1,8
 247 518 247 518 371 518 c 0,9,10
 494 518 494 518 581 431 c 128,-1,11
 668 344 668 344 668 221 c 0,0,1
636 219 m 256,12,13
 636 331 636 331 557 410 c 128,-1,14
 478 489 478 489 367 489 c 0,15,16
 255 489 255 489 176 410 c 128,-1,17
 97 331 97 331 97 219 c 256,18,19
 97 107 97 107 176 28 c 128,-1,20
 255 -51 255 -51 367 -51 c 0,21,22
 478 -51 478 -51 557 28 c 128,-1,23
 636 107 636 107 636 219 c 256,12,13
526 68 m 1,24,-1
 455 -3 l 1,25,26
 445 10 445 10 438 50 c 0,27,28
 432 85 432 85 416 101 c 0,29,30
 406 111 406 111 393 132 c 128,-1,31
 380 153 380 153 368.5 165 c 128,-1,32
 357 177 357 177 344 183 c 1,33,34
 332 183 332 183 312 184 c 1,35,36
 311 141 311 141 311 104 c 1,37,-1
 237 30 l 1,38,39
 237 125 237 125 248 334 c 1,40,-1
 277 363 l 1,41,42
 252 362 252 362 232 359 c 1,43,-1
 307 434 l 1,44,45
 327 437 327 437 352 437 c 0,46,47
 466 437 466 437 507 395 c 0,48,49
 523 380 523 380 523 334 c 0,50,51
 523 286 523 286 509 272 c 2,52,-1
 455 218 l 1,53,54
 464 201 464 201 490 169 c 0,55,56
 506 153 506 153 512 118 c 0,57,58
 518 80 518 80 526 68 c 1,24,-1
449 258 m 1,59,60
 452 307 452 307 436 325 c 0,61,62
 404 355 404 355 320 361 c 1,63,64
 314 260 314 260 312 200 c 1,65,-1
 370 258 l 1,66,67
 388 268 388 268 411 257 c 1,68,69
 433 256 433 256 449 258 c 1,59,60
EndSplineSet
EndChar
StartChar: uni0D3C
Encoding: 3388 3388 159
Width: 1000
GlyphClass: 2
Flags: W
HStem: -77 26<309 433> 489 29<309 433>
VStem: 73 24<159 283> 237 75<30 200> 636 32<159 283>
Fore
668 221 m 0,0,1
 668 97 668 97 581 10 c 128,-1,2
 494 -77 494 -77 371 -77 c 0,3,4
 247 -77 247 -77 160 10 c 128,-1,5
 73 97 73 97 73 221 c 0,6,7
 73 344 73 344 160 431 c 128,-1,8
 247 518 247 518 371 518 c 0,9,10
 494 518 494 518 581 431 c 128,-1,11
 668 344 668 344 668 221 c 0,0,1
636 219 m 256,12,13
 636 331 636 331 557 410 c 128,-1,14
 478 489 478 489 367 489 c 0,15,16
 255 489 255 489 176 410 c 128,-1,17
 97 331 97 331 97 219 c 256,18,19
 97 107 97 107 176 28 c 128,-1,20
 255 -51 255 -51 367 -51 c 0,21,22
 478 -51 478 -51 557 28 c 128,-1,23
 636 107 636 107 636 219 c 256,12,13
526 68 m 1,24,-1
 455 -3 l 1,25,26
 445 10 445 10 438 50 c 0,27,28
 432 85 432 85 416 101 c 0,29,30
 406 111 406 111 393 132 c 128,-1,31
 380 153 380 153 368.5 165 c 128,-1,32
 357 177 357 177 344 183 c 1,33,34
 332 183 332 183 312 184 c 1,35,36
 311 141 311 141 311 104 c 1,37,-1
 237 30 l 1,38,39
 237 125 237 125 248 334 c 1,40,-1
 277 363 l 1,41,42
 252 362 252 362 232 359 c 1,43,-1
 307 434 l 1,44,45
 327 437 327 437 352 437 c 0,46,47
 466 437 466 437 507 395 c 0,48,49
 523 380 523 380 523 334 c 0,50,51
 523 286 523 286 509 272 c 2,52,-1
 455 218 l 1,53,54
 464 201 464 201 490 169 c 0,55,56
 506 153 506 153 512 118 c 0,57,58
 518 80 518 80 526 68 c 1,24,-1
449 258 m 1,59,60
 452 307 452 307 436 325 c 0,61,62
 404 355 404 355 320 361 c 1,63,64
 314 260 314 260 312 200 c 1,65,-1
 370 258 l 1,66,67
 388 268 388 268 411 257 c 1,68,69
 433 256 433 256 449 258 c 1,59,60
EndSplineSet
EndChar
StartChar: uni0D3D
Encoding: 3389 3389 160
Width: 482
GlyphClass: 2
Flags: W
HStem: -270 52<113 200> 458 52<360 446>
Fore
509 433 m 1,0,-1
 460 412 l 1,1,2
 457 432 457 432 442 445.5 c 128,-1,3
 427 459 427 459 406 458 c 0,4,5
 361 457 361 457 352 401 c 2,6,-1
 315 178 l 1,7,-1
 380 182 l 1,8,-1
 380 129 l 1,9,-1
 306 125 l 1,10,11
 302 97 302 97 261 -168 c 0,12,13
 246 -270 246 -270 154 -270 c 0,14,15
 73 -270 73 -270 51 -193 c 1,16,-1
 100 -172 l 1,17,18
 102 -192 102 -192 117.5 -205.5 c 128,-1,19
 133 -219 133 -219 154 -218 c 0,20,21
 199 -217 199 -217 208 -161 c 2,22,-1
 252 122 l 1,23,-1
 199 119 l 1,24,-1
 199 172 l 1,25,-1
 261 175 l 1,26,-1
 299 408 l 2,27,28
 315 510 315 510 406 510 c 0,29,30
 487 510 487 510 509 433 c 1,0,-1
EndSplineSet
EndChar
StartChar: uni0D3E
Encoding: 3390 3390 161
Width: 348
GlyphClass: 2
Flags: W
HStem: -9 51<167 245> 334 49<167 248>
VStem: 63 54<104 141 239 259> 292 56<118 264>
Fore
348 193 m 0,0,1
 348 106 348 106 315 53 c 0,2,3
 275 -9 275 -9 198 -9 c 0,4,5
 136 -9 136 -9 101 27 c 0,6,7
 63 67 63 67 63 141 c 1,8,-1
 117 141 l 1,9,10
 117 102 117 102 139.5 72 c 128,-1,11
 162 42 162 42 198 42 c 0,12,13
 292 42 292 42 292 193 c 0,14,15
 292 334 292 334 203 334 c 0,16,17
 162 334 162 334 139 306.5 c 128,-1,18
 116 279 116 279 116 239 c 1,19,-1
 62 239 l 1,20,21
 63 301 63 301 98 340 c 0,22,23
 135 383 135 383 200 383 c 0,24,25
 275 383 275 383 314 325 c 0,26,27
 348 274 348 274 348 193 c 0,0,1
EndSplineSet
EndChar
StartChar: uni0D3F
Encoding: 3391 3391 162
Width: 104
GlyphClass: 2
Flags: W
HStem: 1 21G<53 106> 508 52<-26 22>
VStem: -108 52<438 476> 53 53<1 458>
Fore
106 1 m 1,0,-1
 53 1 l 1,1,-1
 53 451 l 2,2,3
 53 507 53 507 -1 508 c 0,4,5
 -24 509 -24 509 -40 491.5 c 128,-1,6
 -56 474 -56 474 -56 451 c 0,7,8
 -56 424 -56 424 -49 410 c 1,9,-1
 -104 410 l 1,10,11
 -108 433 -108 433 -108 452 c 0,12,13
 -108 499 -108 499 -79.5 529.5 c 128,-1,14
 -51 560 -51 560 -1 560 c 0,15,16
 45 560 45 560 75.5 533 c 128,-1,17
 106 506 106 506 106 458 c 2,18,-1
 106 1 l 1,0,-1
EndSplineSet
EndChar
StartChar: uni0D40
Encoding: 3392 3392 163
Width: 101
GlyphClass: 2
Flags: W
HStem: 0 21G<51 104> 388 45<-76 -45> 508 50<-41 43>
VStem: -135 49<448 487> -34 45<445 479> 51 53<0 0 438 500>
Fore
104 0 m 1,0,-1
 51 0 l 1,1,-1
 50 438 l 2,2,3
 50 468 50 468 35 488 c 128,-1,4
 20 508 20 508 -9 508 c 2,5,-1
 -13 508 l 1,6,7
 11 486 11 486 11 459 c 0,8,9
 11 431 11 431 -10 409.5 c 128,-1,10
 -31 388 -31 388 -60 388 c 0,11,12
 -91 388 -91 388 -113 410.5 c 128,-1,13
 -135 433 -135 433 -135 464 c 0,14,15
 -135 510 -135 510 -97 536 c 0,16,17
 -65 558 -65 558 -17 558 c 0,18,19
 103 558 103 558 103 442 c 2,20,-1
 104 0 l 1,0,-1
-34 463 m 0,21,22
 -34 494 -34 494 -60 494 c 256,23,24
 -86 494 -86 494 -86 463 c 0,25,26
 -86 433 -86 433 -60 433 c 256,27,28
 -34 433 -34 433 -34 463 c 0,21,22
EndSplineSet
EndChar
StartChar: u1
Encoding: 3393 3393 164
Width: 262
GlyphClass: 2
Flags: W
HStem: -205 43<130 179> -40 40<118 164>
VStem: 50 42<-126 -80> 209 47<-105 -104>
Fore
256 -105 m 0,0,1
 255 -149 255 -149 226.5 -177 c 128,-1,2
 198 -205 198 -205 151 -205 c 0,3,4
 109 -205 109 -205 81 -179 c 0,5,6
 50 -151 50 -151 50 -101 c 0,7,8
 50 -59 50 -59 76 -29.5 c 128,-1,9
 102 0 102 0 133 0 c 1,10,11
 152 58 152 58 160 176 c 0,12,13
 165 236 165 236 134.5 287.5 c 128,-1,14
 104 339 104 339 62 336 c 1,15,-1
 69 384 l 1,16,17
 132 374 132 374 171 324 c 128,-1,18
 210 274 210 274 210 202 c 0,19,20
 210 78 210 78 181 -2 c 1,21,22
 217 -9 217 -9 237 -38 c 128,-1,23
 257 -67 257 -67 256 -105 c 0,0,1
209 -104 m 0,24,25
 210 -78 210 -78 193.5 -59 c 128,-1,26
 177 -40 177 -40 151 -40 c 256,27,28
 125 -40 125 -40 108.5 -58.5 c 128,-1,29
 92 -77 92 -77 92 -101 c 0,30,31
 92 -126 92 -126 107.5 -144 c 128,-1,32
 123 -162 123 -162 150 -162 c 0,33,34
 207 -162 207 -162 209 -104 c 0,24,25
EndSplineSet
EndChar
StartChar: u2
Encoding: 3394 3394 165
Width: 262
GlyphClass: 2
Flags: W
HStem: -205 43<130 174> -120 23<126 173> -39 39<118 169> 335 49<60 66>
VStem: 50 41<-126 -80> 158 50<141 239> 210 46<-112 -98>
Fore
256 -105 m 0,0,1
 255 -149 255 -149 226 -177 c 128,-1,2
 197 -205 197 -205 151 -205 c 0,3,4
 109 -205 109 -205 81 -179 c 0,5,6
 50 -151 50 -151 50 -101 c 0,7,8
 50 -59 50 -59 76.5 -29.5 c 128,-1,9
 103 0 103 0 133 0 c 1,10,11
 153 59 153 59 158 176 c 0,12,13
 161 238 161 238 132 286 c 128,-1,14
 103 334 103 334 60 335 c 1,15,-1
 66 384 l 1,16,17
 126 378 126 378 167 326.5 c 128,-1,18
 208 275 208 275 208 204 c 0,19,20
 208 77 208 77 181 -2 c 1,21,22
 216 -9 216 -9 236.5 -38 c 128,-1,23
 257 -67 257 -67 256 -105 c 0,0,1
204 -76 m 1,24,25
 187 -39 187 -39 151 -39 c 0,26,27
 110 -39 110 -39 96 -79 c 1,28,29
 114 -97 114 -97 148 -97 c 0,30,31
 184 -97 184 -97 204 -76 c 1,24,25
210 -98 m 1,32,33
 197 -120 197 -120 149 -120 c 0,34,35
 103 -120 103 -120 91 -101 c 1,36,37
 90 -125 90 -125 106.5 -143.5 c 128,-1,38
 123 -162 123 -162 150 -162 c 0,39,40
 178 -162 178 -162 194 -144 c 128,-1,41
 210 -126 210 -126 210 -98 c 1,32,33
EndSplineSet
EndChar
StartChar: r1
Encoding: 3395 3395 166
Width: 314
GlyphClass: 2
Flags: W
HStem: -214 46<117 179> -40 39<101 151> 358 20G<111 163>
VStem: 30 45<-126 -72> 108 54<256 323> 111 52<378 378> 178 47<-136 -81> 265 45<-112 -54>
Fore
310 -75 m 0,0,1
 310 -146 310 -146 255 -183 c 0,2,3
 210 -214 210 -214 148 -214 c 0,4,5
 92 -214 92 -214 60 -180 c 0,6,7
 30 -149 30 -149 30 -104 c 0,8,9
 30 -57 30 -57 58 -29 c 128,-1,10
 86 -1 86 -1 130 -1 c 0,11,12
 173 -1 173 -1 199 -31.5 c 128,-1,13
 225 -62 225 -62 225 -100 c 0,14,15
 225 -149 225 -149 193 -170 c 1,16,17
 265 -149 265 -149 265 -76 c 0,18,19
 265 -31 265 -31 183 57.5 c 128,-1,20
 101 146 101 146 108 323 c 0,21,22
 107 342 107 342 111 378 c 1,23,-1
 163 378 l 1,24,25
 162 329 162 329 162 301 c 0,26,27
 162 212 162 212 177 165.5 c 128,-1,28
 192 119 192 119 238 65 c 0,29,30
 280 16 280 16 294 -10 c 0,31,32
 310 -40 310 -40 310 -75 c 0,0,1
178 -104 m 0,33,34
 178 -77 178 -77 164 -58.5 c 128,-1,35
 150 -40 150 -40 126 -40 c 0,36,37
 75 -40 75 -40 75 -104 c 0,38,39
 75 -130 75 -130 90.5 -149 c 128,-1,40
 106 -168 106 -168 127 -168 c 0,41,42
 178 -168 178 -168 178 -104 c 0,33,34
EndSplineSet
EndChar
StartChar: r2
Encoding: 3396 3396 167
Width: 1000
GlyphClass: 2
Flags: W
HStem: -77 26<309 433> 489 29<309 433>
VStem: 73 24<159 283> 237 75<30 200> 636 32<159 283>
Fore
668 221 m 0,0,1
 668 97 668 97 581 10 c 128,-1,2
 494 -77 494 -77 371 -77 c 0,3,4
 247 -77 247 -77 160 10 c 128,-1,5
 73 97 73 97 73 221 c 0,6,7
 73 344 73 344 160 431 c 128,-1,8
 247 518 247 518 371 518 c 0,9,10
 494 518 494 518 581 431 c 128,-1,11
 668 344 668 344 668 221 c 0,0,1
636 219 m 256,12,13
 636 331 636 331 557 410 c 128,-1,14
 478 489 478 489 367 489 c 0,15,16
 255 489 255 489 176 410 c 128,-1,17
 97 331 97 331 97 219 c 256,18,19
 97 107 97 107 176 28 c 128,-1,20
 255 -51 255 -51 367 -51 c 0,21,22
 478 -51 478 -51 557 28 c 128,-1,23
 636 107 636 107 636 219 c 256,12,13
526 68 m 1,24,-1
 455 -3 l 1,25,26
 445 10 445 10 438 50 c 0,27,28
 432 85 432 85 416 101 c 0,29,30
 406 111 406 111 393 132 c 128,-1,31
 380 153 380 153 368.5 165 c 128,-1,32
 357 177 357 177 344 183 c 1,33,34
 332 183 332 183 312 184 c 1,35,36
 311 141 311 141 311 104 c 1,37,-1
 237 30 l 1,38,39
 237 125 237 125 248 334 c 1,40,-1
 277 363 l 1,41,42
 252 362 252 362 232 359 c 1,43,-1
 307 434 l 1,44,45
 327 437 327 437 352 437 c 0,46,47
 466 437 466 437 507 395 c 0,48,49
 523 380 523 380 523 334 c 0,50,51
 523 286 523 286 509 272 c 2,52,-1
 455 218 l 1,53,54
 464 201 464 201 490 169 c 0,55,56
 506 153 506 153 512 118 c 0,57,58
 518 80 518 80 526 68 c 1,24,-1
449 258 m 1,59,60
 452 307 452 307 436 325 c 0,61,62
 404 355 404 355 320 361 c 1,63,64
 314 260 314 260 312 200 c 1,65,-1
 370 258 l 1,66,67
 388 268 388 268 411 257 c 1,68,69
 433 256 433 256 449 258 c 1,59,60
EndSplineSet
EndChar
StartChar: uni0D45
Encoding: 3397 3397 168
Width: 1000
GlyphClass: 2
Flags: W
HStem: -77 26<309 433> 489 29<309 433>
VStem: 73 24<159 283> 237 75<30 200> 636 32<159 283>
Fore
668 221 m 0,0,1
 668 97 668 97 581 10 c 128,-1,2
 494 -77 494 -77 371 -77 c 0,3,4
 247 -77 247 -77 160 10 c 128,-1,5
 73 97 73 97 73 221 c 0,6,7
 73 344 73 344 160 431 c 128,-1,8
 247 518 247 518 371 518 c 0,9,10
 494 518 494 518 581 431 c 128,-1,11
 668 344 668 344 668 221 c 0,0,1
636 219 m 256,12,13
 636 331 636 331 557 410 c 128,-1,14
 478 489 478 489 367 489 c 0,15,16
 255 489 255 489 176 410 c 128,-1,17
 97 331 97 331 97 219 c 256,18,19
 97 107 97 107 176 28 c 128,-1,20
 255 -51 255 -51 367 -51 c 0,21,22
 478 -51 478 -51 557 28 c 128,-1,23
 636 107 636 107 636 219 c 256,12,13
526 68 m 1,24,-1
 455 -3 l 1,25,26
 445 10 445 10 438 50 c 0,27,28
 432 85 432 85 416 101 c 0,29,30
 406 111 406 111 393 132 c 128,-1,31
 380 153 380 153 368.5 165 c 128,-1,32
 357 177 357 177 344 183 c 1,33,34
 332 183 332 183 312 184 c 1,35,36
 311 141 311 141 311 104 c 1,37,-1
 237 30 l 1,38,39
 237 125 237 125 248 334 c 1,40,-1
 277 363 l 1,41,42
 252 362 252 362 232 359 c 1,43,-1
 307 434 l 1,44,45
 327 437 327 437 352 437 c 0,46,47
 466 437 466 437 507 395 c 0,48,49
 523 380 523 380 523 334 c 0,50,51
 523 286 523 286 509 272 c 2,52,-1
 455 218 l 1,53,54
 464 201 464 201 490 169 c 0,55,56
 506 153 506 153 512 118 c 0,57,58
 518 80 518 80 526 68 c 1,24,-1
449 258 m 1,59,60
 452 307 452 307 436 325 c 0,61,62
 404 355 404 355 320 361 c 1,63,64
 314 260 314 260 312 200 c 1,65,-1
 370 258 l 1,66,67
 388 268 388 268 411 257 c 1,68,69
 433 256 433 256 449 258 c 1,59,60
EndSplineSet
EndChar
StartChar: uni0D46
Encoding: 3398 3398 169
Width: 473
GlyphClass: 2
Flags: W
HStem: -7 49<165 229> 182 48<183 233> 334 49<228 326>
VStem: 61 66<97 208> 266 63<85 137> 434 57<112 219>
Fore
491 174 m 0,0,1
 491 51 491 51 376 -7 c 1,2,-1
 347 33 l 1,3,4
 434 77 434 77 434 174 c 0,5,6
 434 242 434 242 391 288 c 128,-1,7
 348 334 348 334 276 334 c 0,8,9
 208 334 208 334 162.5 289.5 c 128,-1,10
 117 245 117 245 113 178 c 1,11,12
 121 203 121 203 151 217 c 0,13,14
 177 230 177 230 207 230 c 0,15,16
 259 230 259 230 294 196 c 128,-1,17
 329 162 329 162 329 112 c 0,18,19
 329 59 329 59 293 26 c 128,-1,20
 257 -7 257 -7 200 -7 c 0,21,22
 129 -7 129 -7 92 46 c 0,23,24
 61 91 61 91 61 160 c 0,25,26
 61 255 61 255 119.5 319 c 128,-1,27
 178 383 178 383 278 383 c 0,28,29
 374 383 374 383 432.5 323.5 c 128,-1,30
 491 264 491 264 491 174 c 0,0,1
266 110 m 0,31,32
 266 139 266 139 247 160.5 c 128,-1,33
 228 182 228 182 198 182 c 256,34,35
 168 182 168 182 147.5 161 c 128,-1,36
 127 140 127 140 127 111 c 0,37,38
 127 83 127 83 147.5 62.5 c 128,-1,39
 168 42 168 42 198 42 c 256,40,41
 228 42 228 42 247 62 c 128,-1,42
 266 82 266 82 266 110 c 0,31,32
EndSplineSet
EndChar
StartChar: uni0D47
Encoding: 3399 3399 170
Width: 345
GlyphClass: 2
Flags: W
HStem: -11 49<199 267> 120 46<270 305> 205 49<270 305> 334 51<199 267>
VStem: 59 58<142 229> 204 53<74 108 264 298> 317 51<65 106 265 307>
Fore
368 89 m 0,0,1
 368 41 368 41 328 13 c 0,2,3
 292 -11 292 -11 242 -11 c 0,4,5
 155 -11 155 -11 106 45 c 0,6,7
 59 98 59 98 59 186 c 0,8,9
 59 273 59 273 106 327 c 0,10,11
 156 385 156 385 242 385 c 0,12,13
 292 385 292 385 328 360 c 0,14,15
 368 331 368 331 368 282 c 0,16,17
 368 247 368 247 345 226 c 128,-1,18
 322 205 322 205 287 205 c 256,19,20
 252 205 252 205 228 226 c 128,-1,21
 204 247 204 247 204 281 c 0,22,23
 204 308 204 308 227 333 c 1,24,-1
 225 334 l 1,25,26
 172 333 172 333 142 284 c 0,27,28
 117 242 117 242 117 186 c 0,29,30
 117 129 117 129 142 88 c 0,31,32
 172 39 172 39 225 38 c 1,33,-1
 227 39 l 1,34,35
 204 64 204 64 204 91 c 0,36,37
 204 125 204 125 228 145.5 c 128,-1,38
 252 166 252 166 287 166 c 256,39,40
 322 166 322 166 345 145 c 128,-1,41
 368 124 368 124 368 89 c 0,0,1
317 283 m 0,42,43
 317 313 317 313 287 313 c 256,44,45
 257 313 257 313 257 283 c 0,46,47
 257 254 257 254 287 254 c 256,48,49
 317 254 317 254 317 283 c 0,42,43
317 89 m 256,50,51
 317 120 317 120 287 120 c 0,52,53
 258 120 258 120 258 89 c 256,54,55
 258 58 258 58 287 58 c 0,56,57
 317 58 317 58 317 89 c 256,50,51
EndSplineSet
EndChar
StartChar: uni0D48
Encoding: 3400 3400 171
Width: 965
GlyphClass: 2
Flags: W
HStem: -7 49<165 229 640 704> 182 48<183 233 658 708> 334 49<228 326 703 801>
VStem: 61 66<97 208> 266 63<85 137> 434 57<112 219> 536 66<97 208> 741 63<85 137> 909 57<112 219>
Fore
966 174 m 0,0,1
 966 51 966 51 851 -7 c 1,2,-1
 822 33 l 1,3,4
 909 77 909 77 909 174 c 0,5,6
 909 242 909 242 866 288 c 128,-1,7
 823 334 823 334 751 334 c 0,8,9
 683 334 683 334 637.5 289.5 c 128,-1,10
 592 245 592 245 588 178 c 1,11,12
 596 203 596 203 626 217 c 0,13,14
 652 230 652 230 682 230 c 0,15,16
 734 230 734 230 769 196 c 128,-1,17
 804 162 804 162 804 112 c 0,18,19
 804 59 804 59 768 26 c 128,-1,20
 732 -7 732 -7 675 -7 c 0,21,22
 604 -7 604 -7 567 46 c 0,23,24
 536 91 536 91 536 160 c 0,25,26
 536 255 536 255 594.5 319 c 128,-1,27
 653 383 653 383 753 383 c 0,28,29
 849 383 849 383 907.5 323.5 c 128,-1,30
 966 264 966 264 966 174 c 0,0,1
741 110 m 0,31,32
 741 139 741 139 722 160.5 c 128,-1,33
 703 182 703 182 673 182 c 256,34,35
 643 182 643 182 622.5 161 c 128,-1,36
 602 140 602 140 602 111 c 0,37,38
 602 83 602 83 622.5 62.5 c 128,-1,39
 643 42 643 42 673 42 c 256,40,41
 703 42 703 42 722 62 c 128,-1,42
 741 82 741 82 741 110 c 0,31,32
491 174 m 0,43,44
 491 51 491 51 376 -7 c 1,45,-1
 347 33 l 1,46,47
 434 77 434 77 434 174 c 0,48,49
 434 242 434 242 391 288 c 128,-1,50
 348 334 348 334 276 334 c 0,51,52
 208 334 208 334 162.5 289.5 c 128,-1,53
 117 245 117 245 113 178 c 1,54,55
 121 203 121 203 151 217 c 0,56,57
 177 230 177 230 207 230 c 0,58,59
 259 230 259 230 294 196 c 128,-1,60
 329 162 329 162 329 112 c 0,61,62
 329 59 329 59 293 26 c 128,-1,63
 257 -7 257 -7 200 -7 c 0,64,65
 129 -7 129 -7 92 46 c 0,66,67
 61 91 61 91 61 160 c 0,68,69
 61 255 61 255 119.5 319 c 128,-1,70
 178 383 178 383 278 383 c 0,71,72
 374 383 374 383 432.5 323.5 c 128,-1,73
 491 264 491 264 491 174 c 0,43,44
266 110 m 0,74,75
 266 139 266 139 247 160.5 c 128,-1,76
 228 182 228 182 198 182 c 256,77,78
 168 182 168 182 147.5 161 c 128,-1,79
 127 140 127 140 127 111 c 0,80,81
 127 83 127 83 147.5 62.5 c 128,-1,82
 168 42 168 42 198 42 c 256,83,84
 228 42 228 42 247 62 c 128,-1,85
 266 82 266 82 266 110 c 0,74,75
EndSplineSet
EndChar
StartChar: uni0D49
Encoding: 3401 3401 172
Width: 1000
GlyphClass: 2
Flags: W
HStem: -77 26<309 433> 489 29<309 433>
VStem: 73 24<159 283> 237 75<30 200> 636 32<159 283>
Fore
668 221 m 0,0,1
 668 97 668 97 581 10 c 128,-1,2
 494 -77 494 -77 371 -77 c 0,3,4
 247 -77 247 -77 160 10 c 128,-1,5
 73 97 73 97 73 221 c 0,6,7
 73 344 73 344 160 431 c 128,-1,8
 247 518 247 518 371 518 c 0,9,10
 494 518 494 518 581 431 c 128,-1,11
 668 344 668 344 668 221 c 0,0,1
636 219 m 256,12,13
 636 331 636 331 557 410 c 128,-1,14
 478 489 478 489 367 489 c 0,15,16
 255 489 255 489 176 410 c 128,-1,17
 97 331 97 331 97 219 c 256,18,19
 97 107 97 107 176 28 c 128,-1,20
 255 -51 255 -51 367 -51 c 0,21,22
 478 -51 478 -51 557 28 c 128,-1,23
 636 107 636 107 636 219 c 256,12,13
526 68 m 1,24,-1
 455 -3 l 1,25,26
 445 10 445 10 438 50 c 0,27,28
 432 85 432 85 416 101 c 0,29,30
 406 111 406 111 393 132 c 128,-1,31
 380 153 380 153 368.5 165 c 128,-1,32
 357 177 357 177 344 183 c 1,33,34
 332 183 332 183 312 184 c 1,35,36
 311 141 311 141 311 104 c 1,37,-1
 237 30 l 1,38,39
 237 125 237 125 248 334 c 1,40,-1
 277 363 l 1,41,42
 252 362 252 362 232 359 c 1,43,-1
 307 434 l 1,44,45
 327 437 327 437 352 437 c 0,46,47
 466 437 466 437 507 395 c 0,48,49
 523 380 523 380 523 334 c 0,50,51
 523 286 523 286 509 272 c 2,52,-1
 455 218 l 1,53,54
 464 201 464 201 490 169 c 0,55,56
 506 153 506 153 512 118 c 0,57,58
 518 80 518 80 526 68 c 1,24,-1
449 258 m 1,59,60
 452 307 452 307 436 325 c 0,61,62
 404 355 404 355 320 361 c 1,63,64
 314 260 314 260 312 200 c 1,65,-1
 370 258 l 1,66,67
 388 268 388 268 411 257 c 1,68,69
 433 256 433 256 449 258 c 1,59,60
EndSplineSet
EndChar
StartChar: uni0D4A
Encoding: 3402 3402 173
Width: 1127
GlyphClass: 2
Flags: W
HStem: -53 45<227 1012> 66 46<278 335> 66 50<827 955> 218 41<643 729> 246 39<278 332> 391 44<341 433> 396 39<849 951> 532 42<196 981>
VStem: 80 43<63 428> 179 45<167 261> 358 61<146 192> 532 77<189 290> 766 30<298 298> 950 71<161 346> 1085 43<63 428>
Fore
1128 93 m 2,0,1
 1128 33 1128 33 1085 -10 c 128,-1,2
 1042 -53 1042 -53 981 -53 c 2,3,-1
 227 -53 l 2,4,5
 166 -53 166 -53 123 -10 c 128,-1,6
 80 33 80 33 80 93 c 2,7,-1
 80 428 l 2,8,9
 80 488 80 488 123 531 c 128,-1,10
 166 574 166 574 227 574 c 2,11,-1
 981 574 l 2,12,13
 1042 574 1042 574 1085 531 c 128,-1,14
 1128 488 1128 488 1128 428 c 2,15,-1
 1128 93 l 2,0,1
1085 138 m 2,16,-1
 1085 385 l 2,17,18
 1085 446 1085 446 1042 489 c 128,-1,19
 999 532 999 532 939 532 c 2,20,-1
 269 532 l 2,21,22
 209 532 209 532 166 489 c 128,-1,23
 123 446 123 446 123 385 c 2,24,-1
 123 138 l 2,25,26
 123 78 123 78 166 35 c 128,-1,27
 209 -8 209 -8 269 -8 c 2,28,-1
 939 -8 l 2,29,30
 999 -8 999 -8 1042 35 c 128,-1,31
 1085 78 1085 78 1085 138 c 2,16,-1
1021 256 m 0,32,33
 1021 66 1021 66 888 66 c 0,34,35
 765 66 765 66 766 189 c 2,36,-1
 766 191 l 1,37,-1
 796 191 l 1,38,39
 804 150 804 150 815 136 c 0,40,41
 830 116 830 116 867 116 c 0,42,43
 919 116 919 116 938 164 c 0,44,45
 950 195 950 195 950 257 c 0,46,47
 950 396 950 396 877 396 c 0,48,49
 831 396 831 396 814 367 c 0,50,51
 802 349 802 349 796 298 c 1,52,-1
 766 298 l 1,53,-1
 766 300 l 2,54,55
 766 368 766 368 789 399 c 0,56,57
 816 435 816 435 881 435 c 0,58,59
 1021 435 1021 435 1021 256 c 0,32,33
729 218 m 1,60,-1
 643 218 l 1,61,-1
 643 259 l 1,62,-1
 729 259 l 1,63,-1
 729 218 l 1,60,-1
609 249 m 0,64,65
 609 147 609 147 493 61 c 1,66,-1
 447 79 l 1,67,68
 532 142 532 142 532 236 c 0,69,70
 532 300 532 300 486 345.5 c 128,-1,71
 440 391 440 391 376 391 c 0,72,73
 307 391 307 391 262 345 c 128,-1,74
 217 299 217 299 208 230 c 1,75,-1
 211 227 l 1,76,77
 253 285 253 285 309 285 c 0,78,79
 354 285 354 285 386.5 250 c 128,-1,80
 419 215 419 215 419 170 c 0,81,82
 419 122 419 122 389 94 c 128,-1,83
 359 66 359 66 311 66 c 0,84,85
 249 66 249 66 212 110 c 0,86,87
 179 152 179 152 179 216 c 0,88,89
 179 306 179 306 240 370.5 c 128,-1,90
 301 435 301 435 391 435 c 0,91,92
 475 435 475 435 539 385 c 0,93,94
 609 331 609 331 609 249 c 0,64,65
358 176 m 0,95,96
 358 205 358 205 340 225.5 c 128,-1,97
 322 246 322 246 293 246 c 256,98,99
 264 246 264 246 244 228 c 128,-1,100
 224 210 224 210 224 181 c 0,101,102
 224 154 224 154 244.5 133 c 128,-1,103
 265 112 265 112 292 112 c 0,104,105
 318 112 318 112 338 131 c 128,-1,106
 358 150 358 150 358 176 c 0,95,96
EndSplineSet
EndChar
StartChar: uni0D4B
Encoding: 3403 3403 174
Width: 1038
GlyphClass: 2
Flags: W
HStem: -53 33<227 923> 65 51<728 855> 68 27<301 386> 204 27<421 453> 218 40<543 630> 269 27<421 473> 395 40<749 852> 409 27<301 386> 532 42<196 893>
VStem: 80 46<63 428> 182 67<175 332> 356 48<141 183 319 363> 478 29<140 179 305 366> 851 71<160 345> 1004 35<63 428>
Fore
1039 93 m 2,0,1
 1039 33 1039 33 996 -10 c 128,-1,2
 953 -53 953 -53 893 -53 c 2,3,-1
 227 -53 l 2,4,5
 166 -53 166 -53 123 -10 c 128,-1,6
 80 33 80 33 80 93 c 2,7,-1
 80 428 l 2,8,9
 80 488 80 488 123 531 c 128,-1,10
 166 574 166 574 227 574 c 2,11,-1
 893 574 l 2,12,13
 953 574 953 574 996 531 c 128,-1,14
 1039 488 1039 488 1039 428 c 2,15,-1
 1039 93 l 2,0,1
1004 126 m 2,16,-1
 1004 385 l 2,17,18
 1004 446 1004 446 961 489 c 128,-1,19
 918 532 918 532 857 532 c 2,20,-1
 272 532 l 2,21,22
 212 532 212 532 169 489 c 128,-1,23
 126 446 126 446 126 385 c 2,24,-1
 126 126 l 2,25,26
 126 66 126 66 169 23 c 128,-1,27
 212 -20 212 -20 272 -20 c 2,28,-1
 857 -20 l 2,29,30
 918 -20 918 -20 961 23 c 128,-1,31
 1004 66 1004 66 1004 126 c 2,16,-1
922 255 m 0,32,33
 922 65 922 65 789 65 c 0,34,35
 667 65 667 65 667 188 c 2,36,-1
 667 190 l 1,37,-1
 696 190 l 1,38,39
 704 149 704 149 715 135 c 0,40,41
 731 116 731 116 768 116 c 0,42,43
 851 116 851 116 851 256 c 0,44,45
 851 395 851 395 777 395 c 0,46,47
 732 395 732 395 714 367 c 0,48,49
 704 349 704 349 696 297 c 1,50,-1
 667 297 l 1,51,-1
 667 300 l 2,52,53
 667 367 667 367 690 398 c 0,54,55
 716 435 716 435 782 435 c 0,56,57
 922 435 922 435 922 255 c 0,32,33
630 218 m 1,58,-1
 543 218 l 1,59,-1
 543 258 l 1,60,-1
 630 258 l 1,61,-1
 630 218 l 1,58,-1
507 164 m 0,62,63
 507 115 507 115 455 88 c 0,64,65
 414 68 414 68 358 68 c 0,66,67
 273 68 273 68 227.5 118.5 c 128,-1,68
 182 169 182 169 182 255 c 0,69,70
 182 339 182 339 228.5 387.5 c 128,-1,71
 275 436 275 436 358 436 c 0,72,73
 413 436 413 436 455 416 c 0,74,75
 507 390 507 390 507 341 c 0,76,77
 507 269 507 269 438 269 c 0,78,79
 404 269 404 269 380 286.5 c 128,-1,80
 356 304 356 304 356 337 c 0,81,82
 356 382 356 382 384 403 c 1,83,84
 371 409 371 409 354 409 c 0,85,86
 249 409 249 409 249 255 c 0,87,88
 249 95 249 95 354 95 c 0,89,90
 371 95 371 95 384 102 c 1,91,92
 356 118 356 118 356 164 c 0,93,94
 356 195 356 195 382 214 c 0,95,96
 405 231 405 231 438 231 c 0,97,98
 468 231 468 231 487.5 212.5 c 128,-1,99
 507 194 507 194 507 164 c 0,62,63
478 339 m 0,100,101
 478 388 478 388 432 397 c 1,102,103
 404 384 404 384 404 343 c 0,104,105
 404 296 404 296 438 296 c 0,106,107
 478 296 478 296 478 339 c 0,100,101
478 166 m 0,108,109
 478 182 478 182 466 193 c 128,-1,110
 454 204 454 204 438 204 c 0,111,112
 404 204 404 204 404 161 c 0,113,114
 404 122 404 122 432 107 c 1,115,116
 478 117 478 117 478 166 c 0,108,109
EndSplineSet
EndChar
StartChar: uni0D4C
Encoding: 3404 3404 175
Width: 496
GlyphClass: 2
Flags: W
HStem: -9 50<272 374> 329 55<99 193 331 392>
VStem: 32 54<224 309> 37 51<185 185> 217 60<193 292> 439 59<117 261>
Fore
498 194 m 0,0,1
 498 116 498 116 461 62 c 0,2,3
 412 -9 412 -9 312 -9 c 0,4,5
 242 -9 242 -9 202 31 c 0,6,7
 168 64 168 64 168 106 c 1,8,-1
 222 106 l 1,9,10
 236 41 236 41 309 41 c 0,11,12
 439 41 439 41 439 192 c 0,13,14
 439 329 439 329 344 329 c 0,15,16
 317 329 317 329 297 310 c 128,-1,17
 277 291 277 291 277 261 c 2,18,-1
 277 194 l 1,19,-1
 217 193 l 1,20,-1
 217 254 l 2,21,22
 217 329 217 329 155 329 c 0,23,24
 118 329 118 329 102 306 c 128,-1,25
 86 283 86 283 86 228 c 0,26,27
 86 219 86 219 88 185 c 1,28,-1
 37 185 l 1,29,30
 32 224 32 224 32 235 c 0,31,32
 32 383 32 383 165 383 c 0,33,34
 221 383 221 383 248 337 c 1,35,36
 266 362 266 362 286 372 c 0,37,38
 310 384 310 384 355 384 c 0,39,40
 417 384 417 384 457.5 333 c 128,-1,41
 498 282 498 282 498 194 c 0,0,1
EndSplineSet
EndChar
StartChar: xx
Encoding: 3405 3405 176
Width: 5
GlyphClass: 2
Flags: W
HStem: 383 50<20 64>
VStem: -67 50<474 503> 101 50<474 502>
Fore
151 498 m 0,0,1
 151 450 151 450 119 416.5 c 128,-1,2
 87 383 87 383 42 383 c 256,3,4
 -3 383 -3 383 -35 416.5 c 128,-1,5
 -67 450 -67 450 -67 498 c 0,6,7
 -67 507 -67 507 -66 512 c 1,8,-1
 -16 512 l 1,9,10
 -17 508 -17 508 -17 498 c 0,11,12
 -17 470 -17 470 0.5 451.5 c 128,-1,13
 18 433 18 433 42 433 c 256,14,15
 66 433 66 433 83.5 451.5 c 128,-1,16
 101 470 101 470 101 498 c 0,17,18
 101 505 101 505 100 512 c 1,19,-1
 150 512 l 1,20,21
 151 507 151 507 151 498 c 0,0,1
EndSplineSet
EndChar
StartChar: uni0D4E
Encoding: 3406 3406 177
Width: 1000
GlyphClass: 2
Flags: W
HStem: -77 26<309 433> 489 29<309 433>
VStem: 73 24<159 283> 237 75<30 200> 636 32<159 283>
Fore
668 221 m 0,0,1
 668 97 668 97 581 10 c 128,-1,2
 494 -77 494 -77 371 -77 c 0,3,4
 247 -77 247 -77 160 10 c 128,-1,5
 73 97 73 97 73 221 c 0,6,7
 73 344 73 344 160 431 c 128,-1,8
 247 518 247 518 371 518 c 0,9,10
 494 518 494 518 581 431 c 128,-1,11
 668 344 668 344 668 221 c 0,0,1
636 219 m 256,12,13
 636 331 636 331 557 410 c 128,-1,14
 478 489 478 489 367 489 c 0,15,16
 255 489 255 489 176 410 c 128,-1,17
 97 331 97 331 97 219 c 256,18,19
 97 107 97 107 176 28 c 128,-1,20
 255 -51 255 -51 367 -51 c 0,21,22
 478 -51 478 -51 557 28 c 128,-1,23
 636 107 636 107 636 219 c 256,12,13
526 68 m 1,24,-1
 455 -3 l 1,25,26
 445 10 445 10 438 50 c 0,27,28
 432 85 432 85 416 101 c 0,29,30
 406 111 406 111 393 132 c 128,-1,31
 380 153 380 153 368.5 165 c 128,-1,32
 357 177 357 177 344 183 c 1,33,34
 332 183 332 183 312 184 c 1,35,36
 311 141 311 141 311 104 c 1,37,-1
 237 30 l 1,38,39
 237 125 237 125 248 334 c 1,40,-1
 277 363 l 1,41,42
 252 362 252 362 232 359 c 1,43,-1
 307 434 l 1,44,45
 327 437 327 437 352 437 c 0,46,47
 466 437 466 437 507 395 c 0,48,49
 523 380 523 380 523 334 c 0,50,51
 523 286 523 286 509 272 c 2,52,-1
 455 218 l 1,53,54
 464 201 464 201 490 169 c 0,55,56
 506 153 506 153 512 118 c 0,57,58
 518 80 518 80 526 68 c 1,24,-1
449 258 m 1,59,60
 452 307 452 307 436 325 c 0,61,62
 404 355 404 355 320 361 c 1,63,64
 314 260 314 260 312 200 c 1,65,-1
 370 258 l 1,66,67
 388 268 388 268 411 257 c 1,68,69
 433 256 433 256 449 258 c 1,59,60
EndSplineSet
EndChar
StartChar: uni0D4F
Encoding: 3407 3407 178
Width: 1000
GlyphClass: 2
Flags: W
HStem: -77 25<309 433> 488 30<309 432>
VStem: 72 25<159 282> 236 76<30 200> 636 32<160 283>
Fore
668 221 m 128,-1,1
 668 98 668 98 581 11 c 0,2,3
 494 -77 494 -77 371 -77 c 0,4,5
 247 -77 247 -77 159 10 c 0,6,7
 72 97 72 97 72 220 c 0,8,9
 72 344 72 344 159 431 c 0,10,11
 247 518 247 518 370 518 c 128,-1,12
 493 518 493 518 580 431 c 0,13,0
 668 344 668 344 668 221 c 128,-1,1
636 219 m 128,-1,15
 636 331 636 331 557 409 c 0,16,17
 478 488 478 488 366.5 488 c 128,-1,18
 255 488 255 488 176 409 c 0,19,20
 97 331 97 331 97 219 c 128,-1,21
 97 107 97 107 176 27 c 0,22,23
 255 -52 255 -52 366.5 -52 c 128,-1,24
 478 -52 478 -52 557 27 c 0,25,14
 636 107 636 107 636 219 c 128,-1,15
526 68 m 1,26,-1
 455 -3 l 1,27,28
 445 11 445 11 438 48 c 128,-1,29
 431 85 431 85 416 101 c 0,30,31
 407 111 407 111 394 132 c 128,-1,32
 381 153 381 153 369 165 c 1,33,34
 348 181 348 181 344 183 c 1,35,36
 338 183 338 183 327 184 c 0,37,38
 317 184 317 184 312 184 c 1,39,40
 311 156 311 156 311 104 c 1,41,-1
 236 30 l 1,42,43
 236 142 236 142 248 334 c 1,44,-1
 276 362 l 1,45,46
 258 362 258 362 232 358 c 1,47,-1
 307 434 l 1,48,49
 354 441 354 441 417 431.5 c 128,-1,50
 480 422 480 422 507 395 c 0,51,52
 523 378 523 378 523 332 c 128,-1,53
 523 286 523 286 509 272 c 2,54,-1
 455 218 l 1,55,56
 460 212 460 212 466 202 c 128,-1,57
 472 192 472 192 478 184 c 0,58,59
 483 176 483 176 490 169 c 0,60,61
 506 153 506 153 512 116 c 0,62,63
 518 80 518 80 526 68 c 1,26,-1
448 258 m 1,64,65
 452 305 452 305 436 324 c 0,66,67
 404 356 404 356 320 360 c 1,68,69
 316 310 316 310 312 200 c 1,70,-1
 370 258 l 1,71,72
 388 268 388 268 411 257 c 1,73,74
 437 257 437 257 448 258 c 1,64,65
EndSplineSet
EndChar
StartChar: uni0D50
Encoding: 3408 3408 179
Width: 1000
GlyphClass: 2
Flags: W
HStem: -77 25<309 433> 488 30<309 432>
VStem: 72 25<159 282> 236 76<30 200> 636 32<160 283>
Fore
668 221 m 128,-1,1
 668 98 668 98 581 11 c 0,2,3
 494 -77 494 -77 371 -77 c 0,4,5
 247 -77 247 -77 159 10 c 0,6,7
 72 97 72 97 72 220 c 0,8,9
 72 344 72 344 159 431 c 0,10,11
 247 518 247 518 370 518 c 128,-1,12
 493 518 493 518 580 431 c 0,13,0
 668 344 668 344 668 221 c 128,-1,1
636 219 m 128,-1,15
 636 331 636 331 557 409 c 0,16,17
 478 488 478 488 366.5 488 c 128,-1,18
 255 488 255 488 176 409 c 0,19,20
 97 331 97 331 97 219 c 128,-1,21
 97 107 97 107 176 27 c 0,22,23
 255 -52 255 -52 366.5 -52 c 128,-1,24
 478 -52 478 -52 557 27 c 0,25,14
 636 107 636 107 636 219 c 128,-1,15
526 68 m 1,26,-1
 455 -3 l 1,27,28
 445 11 445 11 438 48 c 128,-1,29
 431 85 431 85 416 101 c 0,30,31
 407 111 407 111 394 132 c 128,-1,32
 381 153 381 153 369 165 c 1,33,34
 348 181 348 181 344 183 c 1,35,36
 338 183 338 183 327 184 c 0,37,38
 317 184 317 184 312 184 c 1,39,40
 311 156 311 156 311 104 c 1,41,-1
 236 30 l 1,42,43
 236 142 236 142 248 334 c 1,44,-1
 276 362 l 1,45,46
 258 362 258 362 232 358 c 1,47,-1
 307 434 l 1,48,49
 354 441 354 441 417 431.5 c 128,-1,50
 480 422 480 422 507 395 c 0,51,52
 523 378 523 378 523 332 c 128,-1,53
 523 286 523 286 509 272 c 2,54,-1
 455 218 l 1,55,56
 460 212 460 212 466 202 c 128,-1,57
 472 192 472 192 478 184 c 0,58,59
 483 176 483 176 490 169 c 0,60,61
 506 153 506 153 512 116 c 0,62,63
 518 80 518 80 526 68 c 1,26,-1
448 258 m 1,64,65
 452 305 452 305 436 324 c 0,66,67
 404 356 404 356 320 360 c 1,68,69
 316 310 316 310 312 200 c 1,70,-1
 370 258 l 1,71,72
 388 268 388 268 411 257 c 1,73,74
 437 257 437 257 448 258 c 1,64,65
EndSplineSet
EndChar
StartChar: uni0D51
Encoding: 3409 3409 180
Width: 1000
GlyphClass: 2
Flags: W
HStem: -77 25<309 433> 488 30<309 432>
VStem: 72 25<159 282> 236 76<30 200> 636 32<160 283>
Fore
668 221 m 128,-1,1
 668 98 668 98 581 11 c 0,2,3
 494 -77 494 -77 371 -77 c 0,4,5
 247 -77 247 -77 159 10 c 0,6,7
 72 97 72 97 72 220 c 0,8,9
 72 344 72 344 159 431 c 0,10,11
 247 518 247 518 370 518 c 128,-1,12
 493 518 493 518 580 431 c 0,13,0
 668 344 668 344 668 221 c 128,-1,1
636 219 m 128,-1,15
 636 331 636 331 557 409 c 0,16,17
 478 488 478 488 366.5 488 c 128,-1,18
 255 488 255 488 176 409 c 0,19,20
 97 331 97 331 97 219 c 128,-1,21
 97 107 97 107 176 27 c 0,22,23
 255 -52 255 -52 366.5 -52 c 128,-1,24
 478 -52 478 -52 557 27 c 0,25,14
 636 107 636 107 636 219 c 128,-1,15
526 68 m 1,26,-1
 455 -3 l 1,27,28
 445 11 445 11 438 48 c 128,-1,29
 431 85 431 85 416 101 c 0,30,31
 407 111 407 111 394 132 c 128,-1,32
 381 153 381 153 369 165 c 1,33,34
 348 181 348 181 344 183 c 1,35,36
 338 183 338 183 327 184 c 0,37,38
 317 184 317 184 312 184 c 1,39,40
 311 156 311 156 311 104 c 1,41,-1
 236 30 l 1,42,43
 236 142 236 142 248 334 c 1,44,-1
 276 362 l 1,45,46
 258 362 258 362 232 358 c 1,47,-1
 307 434 l 1,48,49
 354 441 354 441 417 431.5 c 128,-1,50
 480 422 480 422 507 395 c 0,51,52
 523 378 523 378 523 332 c 128,-1,53
 523 286 523 286 509 272 c 2,54,-1
 455 218 l 1,55,56
 460 212 460 212 466 202 c 128,-1,57
 472 192 472 192 478 184 c 0,58,59
 483 176 483 176 490 169 c 0,60,61
 506 153 506 153 512 116 c 0,62,63
 518 80 518 80 526 68 c 1,26,-1
448 258 m 1,64,65
 452 305 452 305 436 324 c 0,66,67
 404 356 404 356 320 360 c 1,68,69
 316 310 316 310 312 200 c 1,70,-1
 370 258 l 1,71,72
 388 268 388 268 411 257 c 1,73,74
 437 257 437 257 448 258 c 1,64,65
EndSplineSet
EndChar
StartChar: uni0D52
Encoding: 3410 3410 181
Width: 1000
GlyphClass: 2
Flags: W
HStem: -77 25<309 433> 488 30<309 432>
VStem: 72 25<159 282> 236 76<30 200> 636 32<160 283>
Fore
668 221 m 128,-1,1
 668 98 668 98 581 11 c 0,2,3
 494 -77 494 -77 371 -77 c 0,4,5
 247 -77 247 -77 159 10 c 0,6,7
 72 97 72 97 72 220 c 0,8,9
 72 344 72 344 159 431 c 0,10,11
 247 518 247 518 370 518 c 128,-1,12
 493 518 493 518 580 431 c 0,13,0
 668 344 668 344 668 221 c 128,-1,1
636 219 m 128,-1,15
 636 331 636 331 557 409 c 0,16,17
 478 488 478 488 366.5 488 c 128,-1,18
 255 488 255 488 176 409 c 0,19,20
 97 331 97 331 97 219 c 128,-1,21
 97 107 97 107 176 27 c 0,22,23
 255 -52 255 -52 366.5 -52 c 128,-1,24
 478 -52 478 -52 557 27 c 0,25,14
 636 107 636 107 636 219 c 128,-1,15
526 68 m 1,26,-1
 455 -3 l 1,27,28
 445 11 445 11 438 48 c 128,-1,29
 431 85 431 85 416 101 c 0,30,31
 407 111 407 111 394 132 c 128,-1,32
 381 153 381 153 369 165 c 1,33,34
 348 181 348 181 344 183 c 1,35,36
 338 183 338 183 327 184 c 0,37,38
 317 184 317 184 312 184 c 1,39,40
 311 156 311 156 311 104 c 1,41,-1
 236 30 l 1,42,43
 236 142 236 142 248 334 c 1,44,-1
 276 362 l 1,45,46
 258 362 258 362 232 358 c 1,47,-1
 307 434 l 1,48,49
 354 441 354 441 417 431.5 c 128,-1,50
 480 422 480 422 507 395 c 0,51,52
 523 378 523 378 523 332 c 128,-1,53
 523 286 523 286 509 272 c 2,54,-1
 455 218 l 1,55,56
 460 212 460 212 466 202 c 128,-1,57
 472 192 472 192 478 184 c 0,58,59
 483 176 483 176 490 169 c 0,60,61
 506 153 506 153 512 116 c 0,62,63
 518 80 518 80 526 68 c 1,26,-1
448 258 m 1,64,65
 452 305 452 305 436 324 c 0,66,67
 404 356 404 356 320 360 c 1,68,69
 316 310 316 310 312 200 c 1,70,-1
 370 258 l 1,71,72
 388 268 388 268 411 257 c 1,73,74
 437 257 437 257 448 258 c 1,64,65
EndSplineSet
EndChar
StartChar: uni0D53
Encoding: 3411 3411 182
Width: 1000
GlyphClass: 2
Flags: W
HStem: -77 25<309 433> 488 30<309 432>
VStem: 72 25<159 282> 236 76<30 200> 636 32<160 283>
Fore
668 221 m 128,-1,1
 668 98 668 98 581 11 c 0,2,3
 494 -77 494 -77 371 -77 c 0,4,5
 247 -77 247 -77 159 10 c 0,6,7
 72 97 72 97 72 220 c 0,8,9
 72 344 72 344 159 431 c 0,10,11
 247 518 247 518 370 518 c 128,-1,12
 493 518 493 518 580 431 c 0,13,0
 668 344 668 344 668 221 c 128,-1,1
636 219 m 128,-1,15
 636 331 636 331 557 409 c 0,16,17
 478 488 478 488 366.5 488 c 128,-1,18
 255 488 255 488 176 409 c 0,19,20
 97 331 97 331 97 219 c 128,-1,21
 97 107 97 107 176 27 c 0,22,23
 255 -52 255 -52 366.5 -52 c 128,-1,24
 478 -52 478 -52 557 27 c 0,25,14
 636 107 636 107 636 219 c 128,-1,15
526 68 m 1,26,-1
 455 -3 l 1,27,28
 445 11 445 11 438 48 c 128,-1,29
 431 85 431 85 416 101 c 0,30,31
 407 111 407 111 394 132 c 128,-1,32
 381 153 381 153 369 165 c 1,33,34
 348 181 348 181 344 183 c 1,35,36
 338 183 338 183 327 184 c 0,37,38
 317 184 317 184 312 184 c 1,39,40
 311 156 311 156 311 104 c 1,41,-1
 236 30 l 1,42,43
 236 142 236 142 248 334 c 1,44,-1
 276 362 l 1,45,46
 258 362 258 362 232 358 c 1,47,-1
 307 434 l 1,48,49
 354 441 354 441 417 431.5 c 128,-1,50
 480 422 480 422 507 395 c 0,51,52
 523 378 523 378 523 332 c 128,-1,53
 523 286 523 286 509 272 c 2,54,-1
 455 218 l 1,55,56
 460 212 460 212 466 202 c 128,-1,57
 472 192 472 192 478 184 c 0,58,59
 483 176 483 176 490 169 c 0,60,61
 506 153 506 153 512 116 c 0,62,63
 518 80 518 80 526 68 c 1,26,-1
448 258 m 1,64,65
 452 305 452 305 436 324 c 0,66,67
 404 356 404 356 320 360 c 1,68,69
 316 310 316 310 312 200 c 1,70,-1
 370 258 l 1,71,72
 388 268 388 268 411 257 c 1,73,74
 437 257 437 257 448 258 c 1,64,65
EndSplineSet
EndChar
StartChar: uni0D54
Encoding: 3412 3412 183
Width: 1000
GlyphClass: 2
Flags: W
HStem: -77 25<309 433> 488 30<309 432>
VStem: 72 25<159 282> 236 76<30 200> 636 32<160 283>
Fore
668 221 m 128,-1,1
 668 98 668 98 581 11 c 0,2,3
 494 -77 494 -77 371 -77 c 0,4,5
 247 -77 247 -77 159 10 c 0,6,7
 72 97 72 97 72 220 c 0,8,9
 72 344 72 344 159 431 c 0,10,11
 247 518 247 518 370 518 c 128,-1,12
 493 518 493 518 580 431 c 0,13,0
 668 344 668 344 668 221 c 128,-1,1
636 219 m 128,-1,15
 636 331 636 331 557 409 c 0,16,17
 478 488 478 488 366.5 488 c 128,-1,18
 255 488 255 488 176 409 c 0,19,20
 97 331 97 331 97 219 c 128,-1,21
 97 107 97 107 176 27 c 0,22,23
 255 -52 255 -52 366.5 -52 c 128,-1,24
 478 -52 478 -52 557 27 c 0,25,14
 636 107 636 107 636 219 c 128,-1,15
526 68 m 1,26,-1
 455 -3 l 1,27,28
 445 11 445 11 438 48 c 128,-1,29
 431 85 431 85 416 101 c 0,30,31
 407 111 407 111 394 132 c 128,-1,32
 381 153 381 153 369 165 c 1,33,34
 348 181 348 181 344 183 c 1,35,36
 338 183 338 183 327 184 c 0,37,38
 317 184 317 184 312 184 c 1,39,40
 311 156 311 156 311 104 c 1,41,-1
 236 30 l 1,42,43
 236 142 236 142 248 334 c 1,44,-1
 276 362 l 1,45,46
 258 362 258 362 232 358 c 1,47,-1
 307 434 l 1,48,49
 354 441 354 441 417 431.5 c 128,-1,50
 480 422 480 422 507 395 c 0,51,52
 523 378 523 378 523 332 c 128,-1,53
 523 286 523 286 509 272 c 2,54,-1
 455 218 l 1,55,56
 460 212 460 212 466 202 c 128,-1,57
 472 192 472 192 478 184 c 0,58,59
 483 176 483 176 490 169 c 0,60,61
 506 153 506 153 512 116 c 0,62,63
 518 80 518 80 526 68 c 1,26,-1
448 258 m 1,64,65
 452 305 452 305 436 324 c 0,66,67
 404 356 404 356 320 360 c 1,68,69
 316 310 316 310 312 200 c 1,70,-1
 370 258 l 1,71,72
 388 268 388 268 411 257 c 1,73,74
 437 257 437 257 448 258 c 1,64,65
EndSplineSet
EndChar
StartChar: uni0D55
Encoding: 3413 3413 184
Width: 1000
GlyphClass: 2
Flags: W
HStem: -77 25<309 433> 488 30<309 432>
VStem: 72 25<159 282> 236 76<30 200> 636 32<160 283>
Fore
668 221 m 128,-1,1
 668 98 668 98 581 11 c 0,2,3
 494 -77 494 -77 371 -77 c 0,4,5
 247 -77 247 -77 159 10 c 0,6,7
 72 97 72 97 72 220 c 0,8,9
 72 344 72 344 159 431 c 0,10,11
 247 518 247 518 370 518 c 128,-1,12
 493 518 493 518 580 431 c 0,13,0
 668 344 668 344 668 221 c 128,-1,1
636 219 m 128,-1,15
 636 331 636 331 557 409 c 0,16,17
 478 488 478 488 366.5 488 c 128,-1,18
 255 488 255 488 176 409 c 0,19,20
 97 331 97 331 97 219 c 128,-1,21
 97 107 97 107 176 27 c 0,22,23
 255 -52 255 -52 366.5 -52 c 128,-1,24
 478 -52 478 -52 557 27 c 0,25,14
 636 107 636 107 636 219 c 128,-1,15
526 68 m 1,26,-1
 455 -3 l 1,27,28
 445 11 445 11 438 48 c 128,-1,29
 431 85 431 85 416 101 c 0,30,31
 407 111 407 111 394 132 c 128,-1,32
 381 153 381 153 369 165 c 1,33,34
 348 181 348 181 344 183 c 1,35,36
 338 183 338 183 327 184 c 0,37,38
 317 184 317 184 312 184 c 1,39,40
 311 156 311 156 311 104 c 1,41,-1
 236 30 l 1,42,43
 236 142 236 142 248 334 c 1,44,-1
 276 362 l 1,45,46
 258 362 258 362 232 358 c 1,47,-1
 307 434 l 1,48,49
 354 441 354 441 417 431.5 c 128,-1,50
 480 422 480 422 507 395 c 0,51,52
 523 378 523 378 523 332 c 128,-1,53
 523 286 523 286 509 272 c 2,54,-1
 455 218 l 1,55,56
 460 212 460 212 466 202 c 128,-1,57
 472 192 472 192 478 184 c 0,58,59
 483 176 483 176 490 169 c 0,60,61
 506 153 506 153 512 116 c 0,62,63
 518 80 518 80 526 68 c 1,26,-1
448 258 m 1,64,65
 452 305 452 305 436 324 c 0,66,67
 404 356 404 356 320 360 c 1,68,69
 316 310 316 310 312 200 c 1,70,-1
 370 258 l 1,71,72
 388 268 388 268 411 257 c 1,73,74
 437 257 437 257 448 258 c 1,64,65
EndSplineSet
EndChar
StartChar: uni0D56
Encoding: 3414 3414 185
Width: 1000
GlyphClass: 2
Flags: W
HStem: -77 25<309 433> 488 30<309 432>
VStem: 72 25<159 282> 236 76<30 200> 636 32<160 283>
Fore
668 221 m 128,-1,1
 668 98 668 98 581 11 c 0,2,3
 494 -77 494 -77 371 -77 c 0,4,5
 247 -77 247 -77 159 10 c 0,6,7
 72 97 72 97 72 220 c 0,8,9
 72 344 72 344 159 431 c 0,10,11
 247 518 247 518 370 518 c 128,-1,12
 493 518 493 518 580 431 c 0,13,0
 668 344 668 344 668 221 c 128,-1,1
636 219 m 128,-1,15
 636 331 636 331 557 409 c 0,16,17
 478 488 478 488 366.5 488 c 128,-1,18
 255 488 255 488 176 409 c 0,19,20
 97 331 97 331 97 219 c 128,-1,21
 97 107 97 107 176 27 c 0,22,23
 255 -52 255 -52 366.5 -52 c 128,-1,24
 478 -52 478 -52 557 27 c 0,25,14
 636 107 636 107 636 219 c 128,-1,15
526 68 m 1,26,-1
 455 -3 l 1,27,28
 445 11 445 11 438 48 c 128,-1,29
 431 85 431 85 416 101 c 0,30,31
 407 111 407 111 394 132 c 128,-1,32
 381 153 381 153 369 165 c 1,33,34
 348 181 348 181 344 183 c 1,35,36
 338 183 338 183 327 184 c 0,37,38
 317 184 317 184 312 184 c 1,39,40
 311 156 311 156 311 104 c 1,41,-1
 236 30 l 1,42,43
 236 142 236 142 248 334 c 1,44,-1
 276 362 l 1,45,46
 258 362 258 362 232 358 c 1,47,-1
 307 434 l 1,48,49
 354 441 354 441 417 431.5 c 128,-1,50
 480 422 480 422 507 395 c 0,51,52
 523 378 523 378 523 332 c 128,-1,53
 523 286 523 286 509 272 c 2,54,-1
 455 218 l 1,55,56
 460 212 460 212 466 202 c 128,-1,57
 472 192 472 192 478 184 c 0,58,59
 483 176 483 176 490 169 c 0,60,61
 506 153 506 153 512 116 c 0,62,63
 518 80 518 80 526 68 c 1,26,-1
448 258 m 1,64,65
 452 305 452 305 436 324 c 0,66,67
 404 356 404 356 320 360 c 1,68,69
 316 310 316 310 312 200 c 1,70,-1
 370 258 l 1,71,72
 388 268 388 268 411 257 c 1,73,74
 437 257 437 257 448 258 c 1,64,65
EndSplineSet
EndChar
StartChar: uni0D57
Encoding: 3415 3415 186
Width: 496
GlyphClass: 2
Flags: W
HStem: -9 50<272 374> 329 55<99 193 331 392>
VStem: 32 54<224 309> 37 51<185 185> 217 60<193 292> 439 59<117 261>
Fore
498 194 m 0,0,1
 498 116 498 116 461 62 c 0,2,3
 412 -9 412 -9 312 -9 c 0,4,5
 242 -9 242 -9 202 31 c 0,6,7
 168 64 168 64 168 106 c 1,8,-1
 222 106 l 1,9,10
 236 41 236 41 309 41 c 0,11,12
 439 41 439 41 439 192 c 0,13,14
 439 329 439 329 344 329 c 0,15,16
 317 329 317 329 297 310 c 128,-1,17
 277 291 277 291 277 261 c 2,18,-1
 277 194 l 1,19,-1
 217 193 l 1,20,-1
 217 254 l 2,21,22
 217 329 217 329 155 329 c 0,23,24
 118 329 118 329 102 306 c 128,-1,25
 86 283 86 283 86 228 c 0,26,27
 86 219 86 219 88 185 c 1,28,-1
 37 185 l 1,29,30
 32 224 32 224 32 235 c 0,31,32
 32 383 32 383 165 383 c 0,33,34
 221 383 221 383 248 337 c 1,35,36
 266 362 266 362 286 372 c 0,37,38
 310 384 310 384 355 384 c 0,39,40
 417 384 417 384 457.5 333 c 128,-1,41
 498 282 498 282 498 194 c 0,0,1
EndSplineSet
EndChar
StartChar: uni0D58
Encoding: 3416 3416 187
Width: 1000
GlyphClass: 2
Flags: W
HStem: -77 25<309 433> 488 30<309 432>
VStem: 72 25<159 282> 236 76<30 200> 636 32<160 283>
Fore
668 221 m 128,-1,1
 668 98 668 98 581 11 c 0,2,3
 494 -77 494 -77 371 -77 c 0,4,5
 247 -77 247 -77 159 10 c 0,6,7
 72 97 72 97 72 220 c 0,8,9
 72 344 72 344 159 431 c 0,10,11
 247 518 247 518 370 518 c 128,-1,12
 493 518 493 518 580 431 c 0,13,0
 668 344 668 344 668 221 c 128,-1,1
636 219 m 128,-1,15
 636 331 636 331 557 409 c 0,16,17
 478 488 478 488 366.5 488 c 128,-1,18
 255 488 255 488 176 409 c 0,19,20
 97 331 97 331 97 219 c 128,-1,21
 97 107 97 107 176 27 c 0,22,23
 255 -52 255 -52 366.5 -52 c 128,-1,24
 478 -52 478 -52 557 27 c 0,25,14
 636 107 636 107 636 219 c 128,-1,15
526 68 m 1,26,-1
 455 -3 l 1,27,28
 445 11 445 11 438 48 c 128,-1,29
 431 85 431 85 416 101 c 0,30,31
 407 111 407 111 394 132 c 128,-1,32
 381 153 381 153 369 165 c 1,33,34
 348 181 348 181 344 183 c 1,35,36
 338 183 338 183 327 184 c 0,37,38
 317 184 317 184 312 184 c 1,39,40
 311 156 311 156 311 104 c 1,41,-1
 236 30 l 1,42,43
 236 142 236 142 248 334 c 1,44,-1
 276 362 l 1,45,46
 258 362 258 362 232 358 c 1,47,-1
 307 434 l 1,48,49
 354 441 354 441 417 431.5 c 128,-1,50
 480 422 480 422 507 395 c 0,51,52
 523 378 523 378 523 332 c 128,-1,53
 523 286 523 286 509 272 c 2,54,-1
 455 218 l 1,55,56
 460 212 460 212 466 202 c 128,-1,57
 472 192 472 192 478 184 c 0,58,59
 483 176 483 176 490 169 c 0,60,61
 506 153 506 153 512 116 c 0,62,63
 518 80 518 80 526 68 c 1,26,-1
448 258 m 1,64,65
 452 305 452 305 436 324 c 0,66,67
 404 356 404 356 320 360 c 1,68,69
 316 310 316 310 312 200 c 1,70,-1
 370 258 l 1,71,72
 388 268 388 268 411 257 c 1,73,74
 437 257 437 257 448 258 c 1,64,65
EndSplineSet
EndChar
StartChar: uni0D59
Encoding: 3417 3417 188
Width: 1000
GlyphClass: 2
Flags: W
HStem: -77 25<309 433> 488 30<309 432>
VStem: 72 25<159 282> 236 76<30 200> 636 32<160 283>
Fore
668 221 m 128,-1,1
 668 98 668 98 581 11 c 0,2,3
 494 -77 494 -77 371 -77 c 0,4,5
 247 -77 247 -77 159 10 c 0,6,7
 72 97 72 97 72 220 c 0,8,9
 72 344 72 344 159 431 c 0,10,11
 247 518 247 518 370 518 c 128,-1,12
 493 518 493 518 580 431 c 0,13,0
 668 344 668 344 668 221 c 128,-1,1
636 219 m 128,-1,15
 636 331 636 331 557 409 c 0,16,17
 478 488 478 488 366.5 488 c 128,-1,18
 255 488 255 488 176 409 c 0,19,20
 97 331 97 331 97 219 c 128,-1,21
 97 107 97 107 176 27 c 0,22,23
 255 -52 255 -52 366.5 -52 c 128,-1,24
 478 -52 478 -52 557 27 c 0,25,14
 636 107 636 107 636 219 c 128,-1,15
526 68 m 1,26,-1
 455 -3 l 1,27,28
 445 11 445 11 438 48 c 128,-1,29
 431 85 431 85 416 101 c 0,30,31
 407 111 407 111 394 132 c 128,-1,32
 381 153 381 153 369 165 c 1,33,34
 348 181 348 181 344 183 c 1,35,36
 338 183 338 183 327 184 c 0,37,38
 317 184 317 184 312 184 c 1,39,40
 311 156 311 156 311 104 c 1,41,-1
 236 30 l 1,42,43
 236 142 236 142 248 334 c 1,44,-1
 276 362 l 1,45,46
 258 362 258 362 232 358 c 1,47,-1
 307 434 l 1,48,49
 354 441 354 441 417 431.5 c 128,-1,50
 480 422 480 422 507 395 c 0,51,52
 523 378 523 378 523 332 c 128,-1,53
 523 286 523 286 509 272 c 2,54,-1
 455 218 l 1,55,56
 460 212 460 212 466 202 c 128,-1,57
 472 192 472 192 478 184 c 0,58,59
 483 176 483 176 490 169 c 0,60,61
 506 153 506 153 512 116 c 0,62,63
 518 80 518 80 526 68 c 1,26,-1
448 258 m 1,64,65
 452 305 452 305 436 324 c 0,66,67
 404 356 404 356 320 360 c 1,68,69
 316 310 316 310 312 200 c 1,70,-1
 370 258 l 1,71,72
 388 268 388 268 411 257 c 1,73,74
 437 257 437 257 448 258 c 1,64,65
EndSplineSet
EndChar
StartChar: uni0D5A
Encoding: 3418 3418 189
Width: 1000
GlyphClass: 2
Flags: W
HStem: -77 25<309 433> 488 30<309 432>
VStem: 72 25<159 282> 236 76<30 200> 636 32<160 283>
Fore
668 221 m 128,-1,1
 668 98 668 98 581 11 c 0,2,3
 494 -77 494 -77 371 -77 c 0,4,5
 247 -77 247 -77 159 10 c 0,6,7
 72 97 72 97 72 220 c 0,8,9
 72 344 72 344 159 431 c 0,10,11
 247 518 247 518 370 518 c 128,-1,12
 493 518 493 518 580 431 c 0,13,0
 668 344 668 344 668 221 c 128,-1,1
636 219 m 128,-1,15
 636 331 636 331 557 409 c 0,16,17
 478 488 478 488 366.5 488 c 128,-1,18
 255 488 255 488 176 409 c 0,19,20
 97 331 97 331 97 219 c 128,-1,21
 97 107 97 107 176 27 c 0,22,23
 255 -52 255 -52 366.5 -52 c 128,-1,24
 478 -52 478 -52 557 27 c 0,25,14
 636 107 636 107 636 219 c 128,-1,15
526 68 m 1,26,-1
 455 -3 l 1,27,28
 445 11 445 11 438 48 c 128,-1,29
 431 85 431 85 416 101 c 0,30,31
 407 111 407 111 394 132 c 128,-1,32
 381 153 381 153 369 165 c 1,33,34
 348 181 348 181 344 183 c 1,35,36
 338 183 338 183 327 184 c 0,37,38
 317 184 317 184 312 184 c 1,39,40
 311 156 311 156 311 104 c 1,41,-1
 236 30 l 1,42,43
 236 142 236 142 248 334 c 1,44,-1
 276 362 l 1,45,46
 258 362 258 362 232 358 c 1,47,-1
 307 434 l 1,48,49
 354 441 354 441 417 431.5 c 128,-1,50
 480 422 480 422 507 395 c 0,51,52
 523 378 523 378 523 332 c 128,-1,53
 523 286 523 286 509 272 c 2,54,-1
 455 218 l 1,55,56
 460 212 460 212 466 202 c 128,-1,57
 472 192 472 192 478 184 c 0,58,59
 483 176 483 176 490 169 c 0,60,61
 506 153 506 153 512 116 c 0,62,63
 518 80 518 80 526 68 c 1,26,-1
448 258 m 1,64,65
 452 305 452 305 436 324 c 0,66,67
 404 356 404 356 320 360 c 1,68,69
 316 310 316 310 312 200 c 1,70,-1
 370 258 l 1,71,72
 388 268 388 268 411 257 c 1,73,74
 437 257 437 257 448 258 c 1,64,65
EndSplineSet
EndChar
StartChar: uni0D5B
Encoding: 3419 3419 190
Width: 1000
GlyphClass: 2
Flags: W
HStem: -77 25<309 433> 488 30<309 432>
VStem: 72 25<159 282> 236 76<30 200> 636 32<160 283>
Fore
668 221 m 128,-1,1
 668 98 668 98 581 11 c 0,2,3
 494 -77 494 -77 371 -77 c 0,4,5
 247 -77 247 -77 159 10 c 0,6,7
 72 97 72 97 72 220 c 0,8,9
 72 344 72 344 159 431 c 0,10,11
 247 518 247 518 370 518 c 128,-1,12
 493 518 493 518 580 431 c 0,13,0
 668 344 668 344 668 221 c 128,-1,1
636 219 m 128,-1,15
 636 331 636 331 557 409 c 0,16,17
 478 488 478 488 366.5 488 c 128,-1,18
 255 488 255 488 176 409 c 0,19,20
 97 331 97 331 97 219 c 128,-1,21
 97 107 97 107 176 27 c 0,22,23
 255 -52 255 -52 366.5 -52 c 128,-1,24
 478 -52 478 -52 557 27 c 0,25,14
 636 107 636 107 636 219 c 128,-1,15
526 68 m 1,26,-1
 455 -3 l 1,27,28
 445 11 445 11 438 48 c 128,-1,29
 431 85 431 85 416 101 c 0,30,31
 407 111 407 111 394 132 c 128,-1,32
 381 153 381 153 369 165 c 1,33,34
 348 181 348 181 344 183 c 1,35,36
 338 183 338 183 327 184 c 0,37,38
 317 184 317 184 312 184 c 1,39,40
 311 156 311 156 311 104 c 1,41,-1
 236 30 l 1,42,43
 236 142 236 142 248 334 c 1,44,-1
 276 362 l 1,45,46
 258 362 258 362 232 358 c 1,47,-1
 307 434 l 1,48,49
 354 441 354 441 417 431.5 c 128,-1,50
 480 422 480 422 507 395 c 0,51,52
 523 378 523 378 523 332 c 128,-1,53
 523 286 523 286 509 272 c 2,54,-1
 455 218 l 1,55,56
 460 212 460 212 466 202 c 128,-1,57
 472 192 472 192 478 184 c 0,58,59
 483 176 483 176 490 169 c 0,60,61
 506 153 506 153 512 116 c 0,62,63
 518 80 518 80 526 68 c 1,26,-1
448 258 m 1,64,65
 452 305 452 305 436 324 c 0,66,67
 404 356 404 356 320 360 c 1,68,69
 316 310 316 310 312 200 c 1,70,-1
 370 258 l 1,71,72
 388 268 388 268 411 257 c 1,73,74
 437 257 437 257 448 258 c 1,64,65
EndSplineSet
EndChar
StartChar: uni0D5C
Encoding: 3420 3420 191
Width: 1000
GlyphClass: 2
Flags: W
HStem: -77 25<309 433> 488 30<309 432>
VStem: 72 25<159 282> 236 76<30 200> 636 32<160 283>
Fore
668 221 m 128,-1,1
 668 98 668 98 581 11 c 0,2,3
 494 -77 494 -77 371 -77 c 0,4,5
 247 -77 247 -77 159 10 c 0,6,7
 72 97 72 97 72 220 c 0,8,9
 72 344 72 344 159 431 c 0,10,11
 247 518 247 518 370 518 c 128,-1,12
 493 518 493 518 580 431 c 0,13,0
 668 344 668 344 668 221 c 128,-1,1
636 219 m 128,-1,15
 636 331 636 331 557 409 c 0,16,17
 478 488 478 488 366.5 488 c 128,-1,18
 255 488 255 488 176 409 c 0,19,20
 97 331 97 331 97 219 c 128,-1,21
 97 107 97 107 176 27 c 0,22,23
 255 -52 255 -52 366.5 -52 c 128,-1,24
 478 -52 478 -52 557 27 c 0,25,14
 636 107 636 107 636 219 c 128,-1,15
526 68 m 1,26,-1
 455 -3 l 1,27,28
 445 11 445 11 438 48 c 128,-1,29
 431 85 431 85 416 101 c 0,30,31
 407 111 407 111 394 132 c 128,-1,32
 381 153 381 153 369 165 c 1,33,34
 348 181 348 181 344 183 c 1,35,36
 338 183 338 183 327 184 c 0,37,38
 317 184 317 184 312 184 c 1,39,40
 311 156 311 156 311 104 c 1,41,-1
 236 30 l 1,42,43
 236 142 236 142 248 334 c 1,44,-1
 276 362 l 1,45,46
 258 362 258 362 232 358 c 1,47,-1
 307 434 l 1,48,49
 354 441 354 441 417 431.5 c 128,-1,50
 480 422 480 422 507 395 c 0,51,52
 523 378 523 378 523 332 c 128,-1,53
 523 286 523 286 509 272 c 2,54,-1
 455 218 l 1,55,56
 460 212 460 212 466 202 c 128,-1,57
 472 192 472 192 478 184 c 0,58,59
 483 176 483 176 490 169 c 0,60,61
 506 153 506 153 512 116 c 0,62,63
 518 80 518 80 526 68 c 1,26,-1
448 258 m 1,64,65
 452 305 452 305 436 324 c 0,66,67
 404 356 404 356 320 360 c 1,68,69
 316 310 316 310 312 200 c 1,70,-1
 370 258 l 1,71,72
 388 268 388 268 411 257 c 1,73,74
 437 257 437 257 448 258 c 1,64,65
EndSplineSet
EndChar
StartChar: uni0D5D
Encoding: 3421 3421 192
Width: 1000
GlyphClass: 2
Flags: W
HStem: -77 25<309 433> 488 30<309 432>
VStem: 72 25<159 282> 236 76<30 200> 636 32<160 283>
Fore
668 221 m 128,-1,1
 668 98 668 98 581 11 c 0,2,3
 494 -77 494 -77 371 -77 c 0,4,5
 247 -77 247 -77 159 10 c 0,6,7
 72 97 72 97 72 220 c 0,8,9
 72 344 72 344 159 431 c 0,10,11
 247 518 247 518 370 518 c 128,-1,12
 493 518 493 518 580 431 c 0,13,0
 668 344 668 344 668 221 c 128,-1,1
636 219 m 128,-1,15
 636 331 636 331 557 409 c 0,16,17
 478 488 478 488 366.5 488 c 128,-1,18
 255 488 255 488 176 409 c 0,19,20
 97 331 97 331 97 219 c 128,-1,21
 97 107 97 107 176 27 c 0,22,23
 255 -52 255 -52 366.5 -52 c 128,-1,24
 478 -52 478 -52 557 27 c 0,25,14
 636 107 636 107 636 219 c 128,-1,15
526 68 m 1,26,-1
 455 -3 l 1,27,28
 445 11 445 11 438 48 c 128,-1,29
 431 85 431 85 416 101 c 0,30,31
 407 111 407 111 394 132 c 128,-1,32
 381 153 381 153 369 165 c 1,33,34
 348 181 348 181 344 183 c 1,35,36
 338 183 338 183 327 184 c 0,37,38
 317 184 317 184 312 184 c 1,39,40
 311 156 311 156 311 104 c 1,41,-1
 236 30 l 1,42,43
 236 142 236 142 248 334 c 1,44,-1
 276 362 l 1,45,46
 258 362 258 362 232 358 c 1,47,-1
 307 434 l 1,48,49
 354 441 354 441 417 431.5 c 128,-1,50
 480 422 480 422 507 395 c 0,51,52
 523 378 523 378 523 332 c 128,-1,53
 523 286 523 286 509 272 c 2,54,-1
 455 218 l 1,55,56
 460 212 460 212 466 202 c 128,-1,57
 472 192 472 192 478 184 c 0,58,59
 483 176 483 176 490 169 c 0,60,61
 506 153 506 153 512 116 c 0,62,63
 518 80 518 80 526 68 c 1,26,-1
448 258 m 1,64,65
 452 305 452 305 436 324 c 0,66,67
 404 356 404 356 320 360 c 1,68,69
 316 310 316 310 312 200 c 1,70,-1
 370 258 l 1,71,72
 388 268 388 268 411 257 c 1,73,74
 437 257 437 257 448 258 c 1,64,65
EndSplineSet
EndChar
StartChar: uni0D5E
Encoding: 3422 3422 193
Width: 1000
GlyphClass: 2
Flags: W
HStem: -77 25<309 433> 488 30<309 432>
VStem: 72 25<159 282> 236 76<30 200> 636 32<160 283>
Fore
668 221 m 128,-1,1
 668 98 668 98 581 11 c 0,2,3
 494 -77 494 -77 371 -77 c 0,4,5
 247 -77 247 -77 159 10 c 0,6,7
 72 97 72 97 72 220 c 0,8,9
 72 344 72 344 159 431 c 0,10,11
 247 518 247 518 370 518 c 128,-1,12
 493 518 493 518 580 431 c 0,13,0
 668 344 668 344 668 221 c 128,-1,1
636 219 m 128,-1,15
 636 331 636 331 557 409 c 0,16,17
 478 488 478 488 366.5 488 c 128,-1,18
 255 488 255 488 176 409 c 0,19,20
 97 331 97 331 97 219 c 128,-1,21
 97 107 97 107 176 27 c 0,22,23
 255 -52 255 -52 366.5 -52 c 128,-1,24
 478 -52 478 -52 557 27 c 0,25,14
 636 107 636 107 636 219 c 128,-1,15
526 68 m 1,26,-1
 455 -3 l 1,27,28
 445 11 445 11 438 48 c 128,-1,29
 431 85 431 85 416 101 c 0,30,31
 407 111 407 111 394 132 c 128,-1,32
 381 153 381 153 369 165 c 1,33,34
 348 181 348 181 344 183 c 1,35,36
 338 183 338 183 327 184 c 0,37,38
 317 184 317 184 312 184 c 1,39,40
 311 156 311 156 311 104 c 1,41,-1
 236 30 l 1,42,43
 236 142 236 142 248 334 c 1,44,-1
 276 362 l 1,45,46
 258 362 258 362 232 358 c 1,47,-1
 307 434 l 1,48,49
 354 441 354 441 417 431.5 c 128,-1,50
 480 422 480 422 507 395 c 0,51,52
 523 378 523 378 523 332 c 128,-1,53
 523 286 523 286 509 272 c 2,54,-1
 455 218 l 1,55,56
 460 212 460 212 466 202 c 128,-1,57
 472 192 472 192 478 184 c 0,58,59
 483 176 483 176 490 169 c 0,60,61
 506 153 506 153 512 116 c 0,62,63
 518 80 518 80 526 68 c 1,26,-1
448 258 m 1,64,65
 452 305 452 305 436 324 c 0,66,67
 404 356 404 356 320 360 c 1,68,69
 316 310 316 310 312 200 c 1,70,-1
 370 258 l 1,71,72
 388 268 388 268 411 257 c 1,73,74
 437 257 437 257 448 258 c 1,64,65
EndSplineSet
EndChar
StartChar: uni0D5F
Encoding: 3423 3423 194
Width: 1000
GlyphClass: 2
Flags: W
HStem: -77 25<309 433> 488 30<309 432>
VStem: 72 25<159 282> 236 76<30 200> 636 32<160 283>
Fore
668 221 m 128,-1,1
 668 98 668 98 581 11 c 0,2,3
 494 -77 494 -77 371 -77 c 0,4,5
 247 -77 247 -77 159 10 c 0,6,7
 72 97 72 97 72 220 c 0,8,9
 72 344 72 344 159 431 c 0,10,11
 247 518 247 518 370 518 c 128,-1,12
 493 518 493 518 580 431 c 0,13,0
 668 344 668 344 668 221 c 128,-1,1
636 219 m 128,-1,15
 636 331 636 331 557 409 c 0,16,17
 478 488 478 488 366.5 488 c 128,-1,18
 255 488 255 488 176 409 c 0,19,20
 97 331 97 331 97 219 c 128,-1,21
 97 107 97 107 176 27 c 0,22,23
 255 -52 255 -52 366.5 -52 c 128,-1,24
 478 -52 478 -52 557 27 c 0,25,14
 636 107 636 107 636 219 c 128,-1,15
526 68 m 1,26,-1
 455 -3 l 1,27,28
 445 11 445 11 438 48 c 128,-1,29
 431 85 431 85 416 101 c 0,30,31
 407 111 407 111 394 132 c 128,-1,32
 381 153 381 153 369 165 c 1,33,34
 348 181 348 181 344 183 c 1,35,36
 338 183 338 183 327 184 c 0,37,38
 317 184 317 184 312 184 c 1,39,40
 311 156 311 156 311 104 c 1,41,-1
 236 30 l 1,42,43
 236 142 236 142 248 334 c 1,44,-1
 276 362 l 1,45,46
 258 362 258 362 232 358 c 1,47,-1
 307 434 l 1,48,49
 354 441 354 441 417 431.5 c 128,-1,50
 480 422 480 422 507 395 c 0,51,52
 523 378 523 378 523 332 c 128,-1,53
 523 286 523 286 509 272 c 2,54,-1
 455 218 l 1,55,56
 460 212 460 212 466 202 c 128,-1,57
 472 192 472 192 478 184 c 0,58,59
 483 176 483 176 490 169 c 0,60,61
 506 153 506 153 512 116 c 0,62,63
 518 80 518 80 526 68 c 1,26,-1
448 258 m 1,64,65
 452 305 452 305 436 324 c 0,66,67
 404 356 404 356 320 360 c 1,68,69
 316 310 316 310 312 200 c 1,70,-1
 370 258 l 1,71,72
 388 268 388 268 411 257 c 1,73,74
 437 257 437 257 448 258 c 1,64,65
EndSplineSet
EndChar
StartChar: uni0d60
Encoding: 3424 3424 195
Width: 593
GlyphClass: 2
Flags: W
HStem: -159 54<230 376> -81 31<379 408> -13 30<266 298 362 394> 42 53<218 435> 162 49<173 216 438 480> 333 51<157 212 444 498>
VStem: 60 51<158 267> 77 57<-67 12> 202 44<-50 -21> 246 52<249 296> 309 44<-79 -17> 359 47<250 297> 414 43<-40 -21> 524 58<-65 12> 544 51<158 265>
Fore
595 234 m 0,0,1
 595 175 595 175 566 130 c 0,2,3
 536 82 536 82 487 76 c 1,4,-1
 487 71 l 1,5,6
 582 54 582 54 582 -30 c 0,7,8
 582 -101 582 -101 493 -134 c 0,9,10
 427 -159 427 -159 326 -159 c 256,11,12
 225 -159 225 -159 161 -134 c 0,13,14
 77 -102 77 -102 77 -30 c 0,15,16
 77 54 77 54 170 71 c 1,17,-1
 170 74 l 1,18,19
 114 85 114 85 86 132 c 0,20,21
 60 174 60 174 60 235 c 0,22,23
 60 298 60 298 91 338 c 0,24,25
 125 384 125 384 189 384 c 0,26,27
 236 384 236 384 267 352.5 c 128,-1,28
 298 321 298 321 298 272 c 0,29,30
 298 225 298 225 268.5 193.5 c 128,-1,31
 239 162 239 162 194 162 c 0,32,33
 167 162 167 162 143 178 c 128,-1,34
 119 194 119 194 111 220 c 1,35,36
 111 95 111 95 326 95 c 0,37,38
 544 95 544 95 544 220 c 1,39,40
 537 193 537 193 512.5 177.5 c 128,-1,41
 488 162 488 162 460 162 c 0,42,43
 416 162 416 162 387.5 194.5 c 128,-1,44
 359 227 359 227 359 273 c 0,45,46
 359 322 359 322 389.5 353 c 128,-1,47
 420 384 420 384 468 384 c 0,48,49
 528 384 528 384 563 337 c 0,50,51
 595 296 595 296 595 234 c 0,0,1
526 274 m 256,52,53
 526 299 526 299 510 316 c 128,-1,54
 494 333 494 333 466 333 c 0,55,56
 439 333 439 333 422.5 316 c 128,-1,57
 406 299 406 299 406 275 c 0,58,59
 406 250 406 250 423 230.5 c 128,-1,60
 440 211 440 211 466 211 c 0,61,62
 494 211 494 211 510 230 c 128,-1,63
 526 249 526 249 526 274 c 256,52,53
246 274 m 256,64,65
 246 299 246 299 230.5 316 c 128,-1,66
 215 333 215 333 187 333 c 0,67,68
 160 333 160 333 143 316 c 128,-1,69
 126 299 126 299 126 275 c 0,70,71
 126 250 126 250 143 230.5 c 128,-1,72
 160 211 160 211 187 211 c 256,73,74
 214 211 214 211 230 230 c 128,-1,75
 246 249 246 249 246 274 c 256,64,65
524 -30 m 0,76,77
 524 42 524 42 326 42 c 0,78,79
 134 42 134 42 134 -30 c 0,80,81
 134 -105 134 -105 326 -105 c 0,82,83
 393 -105 393 -105 445 -93 c 0,84,85
 524 -74 524 -74 524 -30 c 0,76,77
457 -31 m 0,86,87
 457 -49 457 -49 438.5 -65 c 128,-1,88
 420 -81 420 -81 395 -81 c 1,89,-1
 379 -50 l 1,90,91
 391 -50 391 -50 402.5 -43 c 128,-1,92
 414 -36 414 -36 414 -31 c 0,93,94
 414 -13 414 -13 373 -13 c 0,95,96
 353 -13 353 -13 353 -21 c 2,97,-1
 353 -79 l 1,98,-1
 309 -79 l 1,99,-1
 309 -21 l 2,100,101
 309 -13 309 -13 285 -13 c 0,102,103
 246 -13 246 -13 246 -31 c 0,104,105
 246 -37 246 -37 256.5 -44.5 c 128,-1,106
 267 -52 267 -52 281 -54 c 1,107,-1
 263 -82 l 1,108,109
 202 -68 202 -68 202 -32 c 0,110,111
 202 -10 202 -10 226 3.5 c 128,-1,112
 250 17 250 17 285 17 c 0,113,114
 312 17 312 17 331 7 c 1,115,116
 349 17 349 17 375 17 c 0,117,118
 410 17 410 17 433.5 3.5 c 128,-1,119
 457 -10 457 -10 457 -31 c 0,86,87
EndSplineSet
EndChar
StartChar: l2
Encoding: 3425 3425 196
Width: 834
GlyphClass: 2
Flags: W
HStem: -156 45<599 674> -7 47<166 228 557 625> 182 48<184 232> 250 44<576 625> 333 51<234 319 465 563>
VStem: 61 66<97 198> 266 63<84 138> 367 55<0 263> 464 50<102 167> 665 49<92 181> 784 50<35 149>
Fore
834 83 m 0,0,1
 834 -14 834 -14 780 -82 c 0,2,3
 722 -156 722 -156 627 -156 c 0,4,5
 571 -156 571 -156 523 -124 c 1,6,-1
 544 -81 l 1,7,8
 584 -111 584 -111 627 -111 c 0,9,10
 700 -111 700 -111 744 -50 c 0,11,12
 784 4 784 4 784 80 c 0,13,14
 784 218 784 218 694 243 c 1,15,16
 714 205 714 205 714 156 c 0,17,18
 714 87 714 87 686 44 c 0,19,20
 652 -7 652 -7 587 -7 c 0,21,22
 526 -7 526 -7 494 34 c 0,23,24
 464 70 464 70 464 133 c 0,25,26
 464 200 464 200 503.5 247 c 128,-1,27
 543 294 543 294 609 294 c 1,28,29
 587 333 587 333 518 333 c 0,30,31
 475 333 475 333 448.5 308 c 128,-1,32
 422 283 422 283 422 241 c 2,33,-1
 422 0 l 1,34,-1
 367 0 l 1,35,-1
 367 241 l 2,36,37
 367 284 367 284 338.5 308.5 c 128,-1,38
 310 333 310 333 267 333 c 0,39,40
 202 333 202 333 159.5 288 c 128,-1,41
 117 243 117 243 113 178 c 1,42,43
 122 203 122 203 152 218 c 0,44,45
 177 230 177 230 207 230 c 0,46,47
 258 230 258 230 293.5 196.5 c 128,-1,48
 329 163 329 163 329 112 c 0,49,50
 329 57 329 57 292.5 25 c 128,-1,51
 256 -7 256 -7 200 -7 c 0,52,53
 131 -7 131 -7 94 44 c 0,54,55
 61 89 61 89 61 160 c 0,56,57
 61 236 61 236 100 296.5 c 128,-1,58
 139 357 139 357 209 377 c 0,59,60
 236 384 236 384 273 384 c 0,61,62
 365 384 365 384 394 324 c 1,63,64
 421 384 421 384 509 384 c 0,65,66
 617 384 617 384 668 295 c 1,67,68
 750 286 750 286 794 224 c 0,69,70
 834 168 834 168 834 83 c 0,0,1
665 144 m 0,71,72
 665 205 665 205 639 249 c 1,73,74
 630 250 630 250 621 250 c 0,75,76
 572 250 572 250 543 216.5 c 128,-1,77
 514 183 514 183 514 132 c 0,78,79
 514 94 514 94 531 69 c 0,80,81
 550 40 550 40 586 40 c 0,82,83
 665 40 665 40 665 144 c 0,71,72
266 110 m 256,84,85
 266 139 266 139 246.5 160.5 c 128,-1,86
 227 182 227 182 198 182 c 256,87,88
 169 182 169 182 148 161.5 c 128,-1,89
 127 141 127 141 127 111 c 0,90,91
 127 82 127 82 148 62 c 128,-1,92
 169 42 169 42 198 42 c 256,93,94
 227 42 227 42 246.5 61.5 c 128,-1,95
 266 81 266 81 266 110 c 256,84,85
EndSplineSet
EndChar
StartChar: uni0D62
Encoding: 3426 3426 197
Width: 1000
GlyphClass: 2
Flags: W
HStem: -77 25<309 433> 488 30<309 432>
VStem: 72 25<159 282> 236 76<30 200> 636 32<160 283>
Fore
668 221 m 128,-1,1
 668 98 668 98 581 11 c 0,2,3
 494 -77 494 -77 371 -77 c 0,4,5
 247 -77 247 -77 159 10 c 0,6,7
 72 97 72 97 72 220 c 0,8,9
 72 344 72 344 159 431 c 0,10,11
 247 518 247 518 370 518 c 128,-1,12
 493 518 493 518 580 431 c 0,13,0
 668 344 668 344 668 221 c 128,-1,1
636 219 m 128,-1,15
 636 331 636 331 557 409 c 0,16,17
 478 488 478 488 366.5 488 c 128,-1,18
 255 488 255 488 176 409 c 0,19,20
 97 331 97 331 97 219 c 128,-1,21
 97 107 97 107 176 27 c 0,22,23
 255 -52 255 -52 366.5 -52 c 128,-1,24
 478 -52 478 -52 557 27 c 0,25,14
 636 107 636 107 636 219 c 128,-1,15
526 68 m 1,26,-1
 455 -3 l 1,27,28
 445 11 445 11 438 48 c 128,-1,29
 431 85 431 85 416 101 c 0,30,31
 407 111 407 111 394 132 c 128,-1,32
 381 153 381 153 369 165 c 1,33,34
 348 181 348 181 344 183 c 1,35,36
 338 183 338 183 327 184 c 0,37,38
 317 184 317 184 312 184 c 1,39,40
 311 156 311 156 311 104 c 1,41,-1
 236 30 l 1,42,43
 236 142 236 142 248 334 c 1,44,-1
 276 362 l 1,45,46
 258 362 258 362 232 358 c 1,47,-1
 307 434 l 1,48,49
 354 441 354 441 417 431.5 c 128,-1,50
 480 422 480 422 507 395 c 0,51,52
 523 378 523 378 523 332 c 128,-1,53
 523 286 523 286 509 272 c 2,54,-1
 455 218 l 1,55,56
 460 212 460 212 466 202 c 128,-1,57
 472 192 472 192 478 184 c 0,58,59
 483 176 483 176 490 169 c 0,60,61
 506 153 506 153 512 116 c 0,62,63
 518 80 518 80 526 68 c 1,26,-1
448 258 m 1,64,65
 452 305 452 305 436 324 c 0,66,67
 404 356 404 356 320 360 c 1,68,69
 316 310 316 310 312 200 c 1,70,-1
 370 258 l 1,71,72
 388 268 388 268 411 257 c 1,73,74
 437 257 437 257 448 258 c 1,64,65
EndSplineSet
EndChar
